<svg width="1098" height="295" fill="none" xmlns="http://www.w3.org/2000/svg"><path fill="#F3F9FF" d="M0 .065h1098v294H0z"/><mask id="a" style="mask-type:alpha" maskUnits="userSpaceOnUse" x="0" y="0" width="1098" height="295"><path fill="#E8F4F7" d="M0 .065h1098v294H0z"/></mask><g mask="url(#a)" stroke="#3898FE" stroke-opacity=".188" stroke-linecap="square"><path d="M754.522 21.178v347.406M824.522 89.178v347.406M1014.43 88.565H667.022"/><path d="M1014.43 155.565H667.022" stroke-dasharray="1 1 1"/><path d="M894.522 21.178v347.406M964.522 21.178v347.406"/></g><path d="m100.88 95.918 2.08-5.56h10.96l2.2 5.56h7.6l-11.76-28.32h-6.64l-11.88 28.32h7.44Zm4.04-11.04 3.6-9.72 3.52 9.72h-7.12Zm33.287 11.04c2.6 0 4.64-.48 6.16-1.44 1.48-.96 2.24-2.28 2.24-3.88 0-.8-.16-1.52-.44-2.12a5.24 5.24 0 0 0-1.2-1.44c-.48-.36-1.08-.64-1.72-.84-.68-.2-1.36-.32-2.08-.4.56-.16 1.12-.32 1.68-.52.56-.2 1.04-.48 1.44-.8.4-.32.72-.76.96-1.24s.36-1.12.36-1.88c0-1.6-.72-2.92-2.08-3.88s-3.32-1.48-5.84-1.48h-11v19.92h11.52Zm-4.96-4.48v-3.68h2.52c.52 0 1.04.04 1.56.04.48.04.96.12 1.36.24.4.12.72.32.96.56.24.28.36.64.36 1.08 0 .48-.12.8-.36 1.04s-.56.44-.96.52c-.4.12-.88.2-1.4.2h-4.04Zm2.64-7.48h-2.64v-3.48h2.56c.88 0 1.64.12 2.32.32.64.24 1 .72 1 1.44 0 .4-.12.68-.28.92-.16.24-.4.4-.72.52-.32.12-.64.2-1.04.24-.4.04-.8.04-1.2.04Zm13.307-7.96v5.08h5.52v14.84h6.56v-14.84h5.56v-5.08h-17.64Zm43.164 9.88c0-1.6-.32-3.08-.88-4.4-.6-1.28-1.4-2.4-2.4-3.32-1.04-.88-2.2-1.6-3.52-2.08-1.36-.48-2.76-.72-4.28-.72-1.52 0-2.92.24-4.28.72-1.36.48-2.52 1.2-3.52 2.08-1 .92-1.8 2.04-2.36 3.32-.6 1.32-.88 2.8-.88 4.4 0 1.64.28 3.12.88 4.44a9.634 9.634 0 0 0 2.36 3.36c1 .92 2.16 1.64 3.52 2.12 1.36.52 2.76.76 4.28.76 1.52 0 2.92-.24 4.28-.76 1.32-.48 2.48-1.2 3.52-2.12 1-.92 1.8-2.04 2.4-3.36.56-1.32.88-2.8.88-4.44Zm-6.32 0c0 .64-.12 1.28-.32 1.88-.2.64-.48 1.2-.88 1.68s-.92.88-1.48 1.16c-.6.32-1.28.44-2.04.44-.8 0-1.48-.12-2.04-.44a4.25 4.25 0 0 1-1.48-1.16c-.4-.48-.72-1.04-.92-1.68-.2-.6-.28-1.24-.28-1.88 0-.64.08-1.24.28-1.88.2-.6.48-1.12.88-1.6s.88-.84 1.48-1.16c.56-.28 1.24-.44 2.04-.44.76 0 1.44.16 2.04.44.56.32 1.08.68 1.48 1.16.4.48.68 1 .92 1.6.2.64.32 1.24.32 1.88Zm17.218-9.88h-5.76v19.92h6.56v-10.76l5.2 6.96h1.12l5.16-7.04v10.84h6.56v-19.92h-5.76l-6.48 8.04-6.6-8.04Zm36.712 11.24v.68c0 1.28-.36 2.28-1.08 3-.72.72-1.72 1.08-3.04 1.08-.32 0-.68 0-1-.08-.36-.08-.68-.2-.92-.36-.28-.16-.52-.36-.68-.64-.16-.24-.24-.56-.24-.96 0-.56.16-1.04.56-1.4.36-.36.84-.64 1.4-.84.56-.16 1.24-.28 1.96-.36.72-.08 1.48-.12 2.2-.12h.84Zm-12.04-8.52 3.32 3.56c.6-.56 1.32-1.04 2.2-1.44.88-.4 1.76-.6 2.72-.6 1 0 1.84.24 2.56.72.68.48 1.04 1.2 1.04 2.16v.32c-1.44 0-2.92.08-4.44.24-1.52.16-2.92.48-4.16.96-1.24.48-2.24 1.16-3.04 2.04-.8.88-1.16 2.04-1.16 3.48 0 1.2.2 2.16.68 2.96.44.8 1 1.44 1.72 1.92s1.48.84 2.36 1.04c.84.24 1.68.32 2.48.32 1.2 0 2.28-.2 3.32-.68 1.04-.44 1.8-1.08 2.32-1.92h.12v2.12h6v-10.04c0-1.8-.2-3.36-.52-4.68-.32-1.32-.84-2.4-1.56-3.28-.72-.88-1.68-1.52-2.84-1.92-1.16-.4-2.56-.64-4.24-.64-1.64 0-3.24.28-4.8.84-1.56.56-2.92 1.4-4.08 2.52Zm22.163-2.72v5.08h5.52v14.84h6.56v-14.84h5.56v-5.08h-17.64Zm37.323 8.4v11.52h6.56v-19.92h-6.56l-8.76 11.44v-11.44h-6.56v19.92h6.56l8.76-11.52Zm13.979-2c.24-.44.56-.84.96-1.2.32-.28.76-.56 1.32-.84.52-.24 1.16-.4 1.96-.4 1.28 0 2.24.24 2.92.68.64.48 1 1 1 1.6 0 .36-.12.64-.32.84-.2.2-.48.36-.84.44-.36.12-.8.2-1.28.24-.48.04-1 .04-1.56.04h-3.28v4.08h3.28c.56 0 1.08.04 1.64.08.52.08 1 .16 1.44.32.44.16.8.36 1.08.6.24.24.4.56.4.92 0 .72-.36 1.2-1.08 1.52-.72.32-1.68.44-2.88.44-.56 0-1.16-.04-1.72-.2a9.35 9.35 0 0 1-1.6-.48c-.48-.16-.92-.36-1.32-.6s-.72-.44-.96-.64l-2.84 3.92c.28.24.68.56 1.16.88.48.32 1.12.64 1.84.96.72.32 1.6.56 2.56.8s2.08.32 3.36.32c1.36 0 2.68-.08 3.88-.28 1.2-.2 2.28-.52 3.16-1 .88-.44 1.6-1.04 2.12-1.8.48-.76.76-1.68.76-2.8 0-.8-.16-1.48-.48-2.08-.32-.6-.72-1.12-1.16-1.52-.48-.4-.96-.72-1.48-.96-.56-.24-1-.36-1.4-.44v-.12c.4-.16.8-.36 1.2-.6.4-.24.8-.56 1.16-.96.36-.36.64-.8.88-1.36.24-.52.36-1.16.36-1.88 0-1.8-.8-3.2-2.4-4.2-1.6-.96-3.8-1.48-6.64-1.48-1.4 0-2.6.16-3.6.44-1.04.28-1.88.64-2.6 1.08-.72.44-1.28.92-1.72 1.4-.44.52-.76 1-1 1.44l3.72 2.8Zm34.829 2v11.52h6.56v-19.92h-6.56l-8.76 11.44v-11.44h-6.56v19.92h6.56l8.76-11.52Zm34.818 1.48c0-1.36-.24-2.68-.68-3.96-.44-1.28-1.08-2.4-1.88-3.36-.8-.96-1.8-1.72-2.96-2.28-1.2-.56-2.48-.84-3.92-.84-1.48 0-2.76.32-3.84.92-1.08.6-1.92 1.28-2.52 2.08h-.12v-2.44h-6.24v29.52h6.56v-11.8h.08c.6.88 1.44 1.56 2.56 2.04 1.08.48 2.24.72 3.48.72 1.48 0 2.8-.28 4-.88a8.881 8.881 0 0 0 2.96-2.32c.8-.96 1.44-2.12 1.88-3.4.4-1.28.64-2.6.64-4Zm-6.36 0c0 .64-.12 1.28-.32 1.92-.2.64-.48 1.16-.88 1.64s-.88.88-1.44 1.16c-.6.32-1.28.44-2.04.44s-1.44-.12-2-.44c-.6-.28-1.12-.68-1.52-1.16-.4-.48-.72-1-.96-1.64-.24-.6-.32-1.24-.32-1.88 0-.64.08-1.24.32-1.88.24-.6.56-1.16.96-1.64.4-.48.92-.84 1.52-1.16.56-.28 1.24-.44 2-.44s1.44.16 2.04.44c.56.32 1.04.68 1.44 1.16.4.48.68 1 .88 1.6.2.64.32 1.24.32 1.88Zm22.715 13.04 8.92-22.92h-6.96l-3.96 12.8h-.12l-4.44-12.8h-7.28l8.32 19.6-.64 1.64c-.32.88-.72 1.52-1.16 2-.48.48-1.2.68-2.2.68-.32 0-.68 0-1.08-.08s-.72-.16-1.04-.28l-.72 5.52c.48.16 1.04.24 1.68.32.64.08 1.28.12 1.92.12 1.24 0 2.32-.12 3.24-.44.92-.28 1.72-.72 2.4-1.28.68-.56 1.28-1.28 1.76-2.08s.96-1.76 1.36-2.8Zm27.762-3v-11.52l-8.76 11.52h-6.56v-19.92h6.56v11.44l8.76-11.44h6.56v19.92h-6.56Zm-6-28.44-4.4.76c.4 1.68 1.16 2.96 2.32 3.84 1.12.92 2.6 1.36 4.4 1.36 1.68 0 3.08-.4 4.24-1.28 1.16-.84 2-2.16 2.48-3.92l-4.4-.76c-.16.64-.44 1.16-.84 1.52-.44.36-.92.52-1.48.52-.56 0-1.08-.16-1.48-.52-.44-.32-.72-.84-.84-1.52Zm16.898 8.52v5.08h5.52v14.84h6.56v-14.84h5.56v-5.08h-17.64Zm35.724 7.68h-8.44c0-.48.16-.96.4-1.44.24-.48.56-.88.96-1.24.4-.32.84-.6 1.4-.8.52-.2 1.12-.32 1.76-.32 1.28 0 2.28.4 2.92 1.12.64.76 1 1.64 1 2.68Zm6.04 2.52c0-1.68-.28-3.2-.76-4.56-.48-1.32-1.16-2.44-2.04-3.4a8.98 8.98 0 0 0-3.16-2.12c-1.24-.48-2.6-.76-4.04-.76-1.52 0-2.96.28-4.24.76-1.32.52-2.44 1.24-3.4 2.16-.96.92-1.72 2.04-2.28 3.36-.56 1.32-.84 2.8-.84 4.4 0 1.68.28 3.2.84 4.48.56 1.32 1.36 2.44 2.36 3.32 1 .88 2.16 1.56 3.52 2.04 1.32.48 2.72.68 4.24.68 2 0 3.8-.36 5.32-1.08 1.52-.72 2.76-1.8 3.72-3.16l-4.56-2.88c-.48.64-1.04 1.12-1.76 1.52-.72.4-1.6.56-2.64.56-.6 0-1.16-.08-1.72-.28-.56-.16-1.04-.44-1.48-.76-.44-.32-.8-.72-1.08-1.2-.28-.44-.44-.96-.48-1.52h14.44c0-.24.04-.48.04-.76v-.8Zm-356.459 46.04c0 1.44-.44 2.6-1.28 3.52-.84.96-1.96 1.4-3.32 1.4-1.4 0-2.52-.44-3.36-1.32-.88-.88-1.28-2.12-1.28-3.64 0-1.64.44-2.88 1.32-3.68.88-.8 2.04-1.2 3.4-1.2 1.36 0 2.44.48 3.28 1.4.8.96 1.24 2.12 1.24 3.52Zm-3.8-10.24c-.72 0-1.48.08-2.32.2-.88.12-1.64.4-2.28.84.24-1.52.96-2.64 2.16-3.36 1.2-.72 2.8-1.12 4.8-1.12h6.56v-4.92H110c-2.4 0-4.52.32-6.28.88-1.76.6-3.24 1.56-4.4 2.84-1.2 1.32-2.08 3-2.64 5.08-.6 2.08-.88 4.64-.88 7.6 0 1.44.12 2.72.36 3.84.32 1.44.8 2.72 1.44 3.8.64 1.12 1.44 2 2.32 2.72.88.72 1.92 1.28 3.04 1.64 1.12.36 2.28.52 3.52.52 1.6 0 3.08-.24 4.44-.72 1.36-.48 2.52-1.2 3.48-2.12.96-.88 1.72-2 2.28-3.28.56-1.28.84-2.72.84-4.32 0-1.56-.28-2.96-.8-4.24a9.753 9.753 0 0 0-2.12-3.16c-.88-.88-1.96-1.52-3.16-2-1.2-.48-2.52-.72-3.88-.72Zm30.423 8.4v11.52h6.56v-19.92h-6.56l-8.76 11.44v-11.44h-6.56v19.92h6.56l8.76-11.52Zm13.978-2c.24-.44.56-.84.96-1.2.32-.28.76-.56 1.32-.84.52-.24 1.16-.4 1.96-.4 1.28 0 2.24.24 2.92.68.64.48 1 1 1 1.6 0 .36-.12.64-.32.84-.2.2-.48.36-.84.44-.36.12-.8.2-1.28.24-.48.04-1 .04-1.56.04h-3.28v4.08h3.28c.56 0 1.08.04 1.64.08.52.08 1 .16 1.44.32.44.16.8.36 1.08.6.24.24.4.56.4.92 0 .72-.36 1.2-1.08 1.52-.72.32-1.68.44-2.88.44-.56 0-1.16-.04-1.72-.2a9.35 9.35 0 0 1-1.6-.48c-.48-.16-.92-.36-1.32-.6s-.72-.44-.96-.64l-2.84 3.92c.28.24.68.56 1.16.88.48.32 1.12.64 1.84.96.72.32 1.6.56 2.56.8s2.08.32 3.36.32c1.36 0 2.68-.08 3.88-.28 1.2-.2 2.28-.52 3.16-1 .88-.44 1.6-1.04 2.12-1.8.48-.76.76-1.68.76-2.8 0-.8-.16-1.48-.48-2.08-.32-.6-.72-1.12-1.16-1.52-.48-.4-.96-.72-1.48-.96-.56-.24-1-.36-1.4-.44v-.12c.4-.16.8-.36 1.2-.6.4-.24.8-.56 1.16-.96.36-.36.64-.8.88-1.36.24-.52.36-1.16.36-1.88 0-1.8-.8-3.2-2.4-4.2-1.6-.96-3.8-1.48-6.64-1.48-1.4 0-2.6.16-3.6.44-1.04.28-1.88.64-2.6 1.08-.72.44-1.28.92-1.72 1.4-.44.52-.76 1-1 1.44l3.72 2.8Zm26.07 13.52v-7.52h6.68v7.52h6.56v-19.92h-6.56v7.36h-6.68v-7.36h-6.56v19.92h6.56Zm33.068-12.24h-8.44c0-.48.16-.96.4-1.44.24-.48.56-.88.96-1.24.4-.32.84-.6 1.4-.8.52-.2 1.12-.32 1.76-.32 1.28 0 2.28.4 2.92 1.12.64.76 1 1.64 1 2.68Zm6.04 2.52c0-1.68-.28-3.2-.76-4.56-.48-1.32-1.16-2.44-2.04-3.4a8.98 8.98 0 0 0-3.16-2.12c-1.24-.48-2.6-.76-4.04-.76-1.52 0-2.96.28-4.24.76-1.32.52-2.44 1.24-3.4 2.16-.96.92-1.72 2.04-2.28 3.36-.56 1.32-.84 2.8-.84 4.4 0 1.68.28 3.2.84 4.48.56 1.32 1.36 2.44 2.36 3.32 1 .88 2.16 1.56 3.52 2.04 1.32.48 2.72.68 4.24.68 2 0 3.8-.36 5.32-1.08 1.52-.72 2.76-1.8 3.72-3.16l-4.56-2.88c-.48.64-1.04 1.12-1.76 1.52-.72.4-1.6.56-2.64.56-.6 0-1.16-.08-1.72-.28-.56-.16-1.04-.44-1.48-.76-.44-.32-.8-.72-1.08-1.2-.28-.44-.44-.96-.48-1.52h14.44c0-.24.04-.48.04-.76v-.8Zm18.774-3.76 3.8-4.4c-.4-.4-.88-.76-1.44-1.08-.56-.32-1.16-.6-1.8-.84-.64-.24-1.32-.4-2.04-.56-.72-.12-1.4-.2-2.12-.2-1.56 0-3 .28-4.36.76-1.36.48-2.56 1.2-3.56 2.12-1 .92-1.8 2.04-2.36 3.32-.56 1.32-.84 2.8-.84 4.4 0 1.68.28 3.16.84 4.44a9.634 9.634 0 0 0 2.36 3.36c1 .92 2.2 1.6 3.56 2.08 1.36.48 2.8.72 4.4.72 1.44 0 2.84-.2 4.16-.68 1.28-.44 2.36-1.08 3.2-1.88l-3.64-4.44c-.4.48-.96.88-1.6 1.12-.64.24-1.32.36-1.96.36-.72 0-1.4-.12-1.96-.4-.56-.24-1.08-.6-1.48-1.08-.4-.48-.72-1-.92-1.64-.24-.6-.32-1.24-.32-1.96 0-.68.08-1.32.32-1.96.24-.6.56-1.12.96-1.6.4-.48.88-.84 1.44-1.12.56-.28 1.16-.44 1.88-.44.64 0 1.32.16 1.96.44.64.32 1.12.68 1.52 1.16Zm6.263 5.6h10.16v-5.2h-10.16v5.2Zm21.713 7.88v-14.84h6.36v14.84h6.56v-19.92h-19.48v19.92h6.56Zm41.195-10.04c0-1.36-.24-2.68-.68-3.96-.44-1.28-1.08-2.4-1.88-3.36-.8-.96-1.8-1.72-2.96-2.28-1.2-.56-2.48-.84-3.92-.84-1.48 0-2.76.32-3.84.92-1.08.6-1.92 1.28-2.52 2.08h-.12v-2.44h-6.24v29.52h6.56v-11.8h.08c.6.88 1.44 1.56 2.56 2.04 1.08.48 2.24.72 3.48.72 1.48 0 2.8-.28 4-.88a8.881 8.881 0 0 0 2.96-2.32c.8-.96 1.44-2.12 1.88-3.4.4-1.28.64-2.6.64-4Zm-6.36 0c0 .64-.12 1.28-.32 1.92-.2.64-.48 1.16-.88 1.64s-.88.88-1.44 1.16c-.6.32-1.28.44-2.04.44s-1.44-.12-2-.44c-.6-.28-1.12-.68-1.52-1.16-.4-.48-.72-1-.96-1.64-.24-.6-.32-1.24-.32-1.88 0-.64.08-1.24.32-1.88.24-.6.56-1.16.96-1.64.4-.48.92-.84 1.52-1.16.56-.28 1.24-.44 2-.44s1.44.16 2.04.44c.56.32 1.04.68 1.44 1.16.4.48.68 1 .88 1.6.2.64.32 1.24.32 1.88Zm32.635 0c0-1.6-.32-3.08-.88-4.4-.6-1.28-1.4-2.4-2.4-3.32-1.04-.88-2.2-1.6-3.52-2.08-1.36-.48-2.76-.72-4.28-.72-1.52 0-2.92.24-4.28.72-1.36.48-2.52 1.2-3.52 2.08-1 .92-1.8 2.04-2.36 3.32-.6 1.32-.88 2.8-.88 4.4 0 1.64.28 3.12.88 4.44a9.634 9.634 0 0 0 2.36 3.36c1 .92 2.16 1.64 3.52 2.12 1.36.52 2.76.76 4.28.76 1.52 0 2.92-.24 4.28-.76 1.32-.48 2.48-1.2 3.52-2.12 1-.92 1.8-2.04 2.4-3.36.56-1.32.88-2.8.88-4.44Zm-6.32 0c0 .64-.12 1.28-.32 1.88-.2.64-.48 1.2-.88 1.68s-.92.88-1.48 1.16c-.6.32-1.28.44-2.04.44-.8 0-1.48-.12-2.04-.44a4.25 4.25 0 0 1-1.48-1.16c-.4-.48-.72-1.04-.92-1.68-.2-.6-.28-1.24-.28-1.88 0-.64.08-1.24.28-1.88.2-.6.48-1.12.88-1.6s.88-.84 1.48-1.16c.56-.28 1.24-.44 2.04-.44.76 0 1.44.16 2.04.44.56.32 1.08.68 1.48 1.16.4.48.68 1 .92 1.6.2.64.32 1.24.32 1.88Zm11.459-9.88v19.92h17.32v5.56h5.36v-10.64h-3.12v-14.84h-6.56v14.84h-6.44v-14.84h-6.56Zm40.135 7.68h-8.44c0-.48.16-.96.4-1.44.24-.48.56-.88.96-1.24.4-.32.84-.6 1.4-.8.52-.2 1.12-.32 1.76-.32 1.28 0 2.28.4 2.92 1.12.64.76 1 1.64 1 2.68Zm6.04 2.52c0-1.68-.28-3.2-.76-4.56-.48-1.32-1.16-2.44-2.04-3.4a8.98 8.98 0 0 0-3.16-2.12c-1.24-.48-2.6-.76-4.04-.76-1.52 0-2.96.28-4.24.76-1.32.52-2.44 1.24-3.4 2.16-.96.92-1.72 2.04-2.28 3.36-.56 1.32-.84 2.8-.84 4.4 0 1.68.28 3.2.84 4.48.56 1.32 1.36 2.44 2.36 3.32 1 .88 2.16 1.56 3.52 2.04 1.32.48 2.72.68 4.24.68 2 0 3.8-.36 5.32-1.08 1.52-.72 2.76-1.8 3.72-3.16l-4.56-2.88c-.48.64-1.04 1.12-1.76 1.52-.72.4-1.6.56-2.64.56-.6 0-1.16-.08-1.72-.28-.56-.16-1.04-.44-1.48-.76-.44-.32-.8-.72-1.08-1.2-.28-.44-.44-.96-.48-1.52h14.44c0-.24.04-.48.04-.76v-.8Zm18.774-3.76 3.8-4.4c-.4-.4-.88-.76-1.44-1.08-.56-.32-1.16-.6-1.8-.84-.64-.24-1.32-.4-2.04-.56-.72-.12-1.4-.2-2.12-.2-1.56 0-3 .28-4.36.76-1.36.48-2.56 1.2-3.56 2.12-1 .92-1.8 2.04-2.36 3.32-.56 1.32-.84 2.8-.84 4.4 0 1.68.28 3.16.84 4.44a9.634 9.634 0 0 0 2.36 3.36c1 .92 2.2 1.6 3.56 2.08 1.36.48 2.8.72 4.4.72 1.44 0 2.84-.2 4.16-.68 1.28-.44 2.36-1.08 3.2-1.88l-3.64-4.44c-.4.48-.96.88-1.6 1.12-.64.24-1.32.36-1.96.36-.72 0-1.4-.12-1.96-.4-.56-.24-1.08-.6-1.48-1.08-.4-.48-.72-1-.92-1.64-.24-.6-.32-1.24-.32-1.96 0-.68.08-1.32.32-1.96.24-.6.56-1.12.96-1.6.4-.48.88-.84 1.44-1.12.56-.28 1.16-.44 1.88-.44.64 0 1.32.16 1.96.44.64.32 1.12.68 1.52 1.16Zm21.103 0 3.8-4.4c-.4-.4-.88-.76-1.44-1.08-.56-.32-1.16-.6-1.8-.84-.64-.24-1.32-.4-2.04-.56-.72-.12-1.4-.2-2.12-.2-1.56 0-3 .28-4.36.76-1.36.48-2.56 1.2-3.56 2.12-1 .92-1.8 2.04-2.36 3.32-.56 1.32-.84 2.8-.84 4.4 0 1.68.28 3.16.84 4.44a9.634 9.634 0 0 0 2.36 3.36c1 .92 2.2 1.6 3.56 2.08 1.36.48 2.8.72 4.4.72 1.44 0 2.84-.2 4.16-.68 1.28-.44 2.36-1.08 3.2-1.88l-3.64-4.44c-.4.48-.96.88-1.6 1.12-.64.24-1.32.36-1.96.36-.72 0-1.4-.12-1.96-.4-.56-.24-1.08-.6-1.48-1.08-.4-.48-.72-1-.92-1.64-.24-.6-.32-1.24-.32-1.96 0-.68.08-1.32.32-1.96.24-.6.56-1.12.96-1.6.4-.48.88-.84 1.44-1.12.56-.28 1.16-.44 1.88-.44.64 0 1.32.16 1.96.44.64.32 1.12.68 1.52 1.16Zm13.944-6.44h-6.56v19.92h11.16c1.28 0 2.44-.16 3.44-.52s1.84-.84 2.52-1.48c.64-.64 1.16-1.36 1.52-2.24a7.7 7.7 0 0 0 .52-2.76c0-.96-.16-1.84-.44-2.68-.32-.84-.76-1.56-1.4-2.2-.64-.64-1.48-1.12-2.52-1.48-1.04-.32-2.32-.52-3.8-.52h-4.44v-6.04Zm0 15.32v-4.68h3.12c.88 0 1.64.16 2.24.48.6.32.92.96.92 1.84 0 .92-.32 1.56-.88 1.88-.56.32-1.32.48-2.2.48h-3.2Zm20.88-15.32h-6.56v19.92h6.56v-19.92ZM574.872 77.174h-9.18v12.744h1.296V78.362h6.588v11.556h1.296V77.174Zm12.129 8.532c0-.63-.126-1.224-.342-1.764a4.13 4.13 0 0 0-.918-1.404 4.207 4.207 0 0 0-1.422-.918 5.024 5.024 0 0 0-1.818-.342c-.648 0-1.26.126-1.8.342a4.038 4.038 0 0 0-1.422.918c-.396.396-.72.864-.936 1.404a4.73 4.73 0 0 0-.324 1.764c0 .648.108 1.224.324 1.764.216.54.54 1.008.936 1.404.396.396.864.72 1.422.936.54.216 1.152.324 1.8.324.648 0 1.26-.108 1.818-.324a4.252 4.252 0 0 0 1.422-.936 4.13 4.13 0 0 0 .918-1.404c.216-.54.342-1.116.342-1.764Zm-1.296 0c0 .468-.09.918-.234 1.332-.144.414-.36.774-.63 1.08-.288.306-.612.54-1.008.72-.396.18-.846.252-1.332.252-.504 0-.936-.072-1.332-.252a2.87 2.87 0 0 1-.99-.72 2.986 2.986 0 0 1-.648-1.08 4.052 4.052 0 0 1-.216-1.332c0-.468.072-.9.216-1.314.144-.414.36-.774.648-1.08.27-.306.594-.558.99-.738.396-.18.828-.27 1.332-.27.486 0 .936.09 1.332.27.396.18.72.432 1.008.738.27.306.486.666.63 1.08.144.414.234.846.234 1.314Zm3.959 6.714v-2.502h7.398v2.502h1.188v-3.564h-1.404l-2.862-7.362h-1.08l-3.096 7.362h-1.35v3.564h1.206Zm1.386-3.564 2.358-5.886 2.214 5.886h-4.572Zm10.415-3.906v-3.456h-1.224v8.424h1.224v-3.924c.648.018 1.242.09 1.764.216.504.126.954.342 1.35.648.396.306.72.702.972 1.206s.468 1.116.648 1.854h1.368c-.324-1.26-.774-2.25-1.314-3.006-.558-.756-1.332-1.278-2.322-1.602l3.276-3.816h-1.368l-3.024 3.564a8.203 8.203 0 0 0-1.35-.108Zm14.788 4.968h1.242l-3.456-8.424h-1.08l-3.69 8.424h1.278l2.916-6.948 2.79 6.948Zm15.564-4.212c0-.63-.126-1.224-.342-1.764a4.13 4.13 0 0 0-.918-1.404 4.207 4.207 0 0 0-1.422-.918 5.024 5.024 0 0 0-1.818-.342c-.576 0-1.116.09-1.62.27-.504.18-.954.432-1.332.756a4.107 4.107 0 0 0-.954 1.134c-.252.45-.432.936-.504 1.458h-1.836v-3.402h-1.224v8.424h1.224v-3.996h1.764c.018.612.144 1.188.378 1.692.216.504.54.954.936 1.332.396.378.864.666 1.404.882.54.216 1.116.306 1.764.306.648 0 1.26-.108 1.818-.324a4.252 4.252 0 0 0 1.422-.936 4.13 4.13 0 0 0 .918-1.404c.216-.54.342-1.116.342-1.764Zm-1.296 0c0 .468-.09.918-.234 1.332-.144.414-.36.774-.63 1.08-.288.306-.612.54-1.008.72-.396.18-.846.252-1.332.252-.504 0-.936-.072-1.332-.252a2.87 2.87 0 0 1-.99-.72 2.986 2.986 0 0 1-.648-1.08 4.052 4.052 0 0 1-.216-1.332c0-.468.072-.9.216-1.314.144-.414.36-.774.648-1.08.27-.306.594-.558.99-.738.396-.18.828-.27 1.332-.27.486 0 .936.09 1.332.27.396.18.72.432 1.008.738.27.306.486.666.63 1.08.144.414.234.846.234 1.314Zm3.641-4.212v1.89c0 .558.036 1.044.144 1.476.09.432.27.774.558 1.062.27.288.648.504 1.152.648.486.144 1.116.216 1.908.216h1.854v3.132h1.224v-8.424h-1.224v4.266h-1.836c-.612 0-1.098-.054-1.44-.162-.36-.108-.612-.27-.774-.522-.162-.252-.252-.558-.288-.954a15.211 15.211 0 0 1-.054-1.404v-1.224h-1.224Zm15.754 2.988v.27c-.774 0-1.512.036-2.232.09-.72.054-1.35.18-1.89.36-.558.18-1.008.468-1.332.846-.324.378-.486.882-.486 1.53 0 .468.09.864.27 1.188.18.324.414.594.702.792.288.216.594.36.936.45.342.09.684.126 1.008.126.684 0 1.26-.108 1.746-.36s.918-.648 1.314-1.224h.036c0 .234 0 .468.036.702.018.252.054.468.09.666h1.098a5.112 5.112 0 0 1-.108-.882c-.036-.342-.036-.684-.036-1.008v-3.69c0-.504-.09-.954-.252-1.35a2.921 2.921 0 0 0-.702-.954 3.07 3.07 0 0 0-1.044-.558 4.222 4.222 0 0 0-1.278-.198 5.5 5.5 0 0 0-1.944.342c-.576.234-1.026.522-1.368.864l.684.81c.288-.288.666-.54 1.098-.72.432-.18.9-.27 1.404-.27.72 0 1.278.18 1.674.54.378.36.576.918.576 1.638Zm-.36 1.224h.36v.63c0 .378-.072.738-.18 1.062a2.955 2.955 0 0 1-.522.9 2.617 2.617 0 0 1-.846.612c-.342.144-.72.216-1.152.216-.252 0-.486-.018-.72-.072a1.806 1.806 0 0 1-.63-.27 1.264 1.264 0 0 1-.468-.504c-.108-.198-.162-.45-.162-.756 0-.396.126-.702.396-.954.252-.234.594-.414 1.008-.54a6.331 6.331 0 0 1 1.386-.252 21.754 21.754 0 0 1 1.53-.072Zm11.463 4.212V83.06l-5.166 6.858h-1.26v-8.424h1.26V88.1l5.166-6.606h1.26v8.424h-1.26Zm-4.374-12.654-.882.396c.09.288.216.558.36.81.144.27.342.504.558.702.216.198.486.36.792.468.288.126.648.18 1.044.18s.756-.054 1.08-.198c.306-.144.576-.306.792-.522.216-.216.396-.45.54-.702.144-.252.252-.486.342-.738l-.882-.396c-.18.468-.396.846-.666 1.134-.288.306-.684.45-1.206.45-.504 0-.9-.126-1.188-.414-.288-.288-.522-.666-.684-1.17Zm7.798 4.23v1.026h2.988v7.398h1.224V82.52h3.186v-1.026h-7.398Zm16.061 3.564h-5.742c.018-.36.108-.702.27-1.026.144-.324.36-.63.63-.882.252-.252.558-.468.918-.612a2.9 2.9 0 0 1 1.134-.234c.864 0 1.548.27 2.016.792.468.522.738 1.17.774 1.962Zm1.242.396c0-.576-.09-1.116-.27-1.62a4.116 4.116 0 0 0-.756-1.314 3.578 3.578 0 0 0-1.26-.9 4.44 4.44 0 0 0-1.746-.342c-.612 0-1.17.126-1.674.342a3.909 3.909 0 0 0-1.35.918 4.086 4.086 0 0 0-.9 1.404 4.73 4.73 0 0 0-.324 1.764c0 .648.108 1.224.324 1.764a4.13 4.13 0 0 0 .918 1.404c.378.396.828.72 1.368.936.54.216 1.116.324 1.746.324.684 0 1.332-.126 1.944-.414.612-.27 1.17-.72 1.674-1.368l-.918-.72a3.229 3.229 0 0 1-1.062 1.026c-.468.288-1.008.432-1.638.432-.432 0-.846-.072-1.206-.234a2.836 2.836 0 0 1-.972-.666 2.565 2.565 0 0 1-.648-.972 2.866 2.866 0 0 1-.252-1.188h6.984c0-.108.018-.198.018-.306v-.27Zm9.171 4.464V82.52h4.662v7.398h1.224v-8.424h-7.11v8.424h1.224Zm10.728 4.32v-5.742h.054c.342.54.81.936 1.386 1.224.576.288 1.17.414 1.782.414.648 0 1.242-.108 1.782-.342.54-.216.99-.54 1.368-.936.378-.396.666-.864.882-1.404.216-.54.324-1.116.324-1.746 0-.612-.108-1.206-.324-1.746a4.326 4.326 0 0 0-.882-1.404 4.108 4.108 0 0 0-1.368-.936 4.76 4.76 0 0 0-1.782-.342 3.94 3.94 0 0 0-1.782.432 3.422 3.422 0 0 0-1.386 1.242h-.054v-1.458h-1.224v12.744h1.224Zm6.282-8.532c0 .468-.072.918-.216 1.332-.144.414-.36.774-.63 1.08a2.87 2.87 0 0 1-.99.72c-.396.18-.846.252-1.35.252-.468 0-.9-.072-1.296-.252a3.201 3.201 0 0 1-1.026-.72 3.085 3.085 0 0 1-.684-1.062 3.67 3.67 0 0 1-.234-1.35c0-.468.072-.918.234-1.332.162-.414.396-.774.684-1.08a3.201 3.201 0 0 1 2.322-.99c.504 0 .954.09 1.35.27.396.18.72.432.99.738s.486.666.63 1.08c.144.414.216.846.216 1.314Zm10.717-2.646v6.858h1.26v-8.424h-1.26l-5.166 6.606v-6.606h-1.26v8.424h1.26l5.166-6.858Zm8.644 6.858c1.098 0 1.926-.198 2.502-.612.558-.396.846-.954.846-1.638 0-.342-.072-.63-.18-.882a1.677 1.677 0 0 0-.504-.612 2.497 2.497 0 0 0-.72-.378 6.94 6.94 0 0 0-.882-.162c.252-.072.486-.144.72-.234.216-.072.414-.18.594-.324.18-.144.306-.306.414-.522.09-.216.144-.468.144-.792 0-.684-.27-1.224-.774-1.638-.522-.414-1.314-.63-2.376-.63h-3.636v8.424h3.852Zm-2.628-.99v-2.826h2.286c.72 0 1.278.09 1.71.27.432.18.648.558.648 1.134 0 .36-.09.63-.234.81a1.377 1.377 0 0 1-.648.432c-.288.09-.612.144-.972.162-.378.018-.792.018-1.224.018h-1.566ZM727 85.22h-2.34v-2.736h1.53c.396 0 .774.018 1.116.036.324.036.612.09.864.18.234.09.414.216.558.396.126.18.198.432.198.738 0 .558-.18.936-.522 1.116-.342.18-.81.27-1.404.27Zm7.842-3.726h-1.224v8.424h3.024c.54 0 1.026-.072 1.44-.216a3.105 3.105 0 0 0 1.044-.594c.27-.252.468-.54.612-.882a2.63 2.63 0 0 0 .216-1.08c0-.378-.072-.738-.18-1.08a2.51 2.51 0 0 0-.576-.864c-.27-.252-.612-.432-1.044-.576-.432-.144-.972-.216-1.584-.216h-1.728v-2.916Zm0 7.434v-3.546h1.458c.324 0 .648.036.936.09.288.054.522.144.738.27.216.144.378.324.504.54.108.234.18.522.18.864 0 .36-.072.648-.18.864-.108.234-.27.414-.468.558a1.731 1.731 0 0 1-.72.288 5.197 5.197 0 0 1-.936.072h-1.512Zm7.434-7.434h-1.224v8.424h1.224v-8.424Zm2.897 0v1.89c0 .558.036 1.044.144 1.476.09.432.27.774.558 1.062.27.288.648.504 1.152.648.486.144 1.116.216 1.908.216h1.854v3.132h1.224v-8.424h-1.224v4.266h-1.836c-.612 0-1.098-.054-1.44-.162-.36-.108-.612-.27-.774-.522-.162-.252-.252-.558-.288-.954a15.211 15.211 0 0 1-.054-1.404v-1.224h-1.224Zm11.596 8.424v-3.996h4.806v3.996h1.224v-8.424h-1.224v3.402h-4.806v-3.402h-1.224v8.424h1.224Zm10.796-8.424h-1.224v8.424h3.024c.54 0 1.026-.072 1.44-.216a3.105 3.105 0 0 0 1.044-.594c.27-.252.468-.54.612-.882a2.63 2.63 0 0 0 .216-1.08c0-.378-.072-.738-.18-1.08a2.51 2.51 0 0 0-.576-.864c-.27-.252-.612-.432-1.044-.576-.432-.144-.972-.216-1.584-.216h-1.728v-2.916Zm0 7.434v-3.546h1.458c.324 0 .648.036.936.09.288.054.522.144.738.27.216.144.378.324.504.54.108.234.18.522.18.864 0 .36-.072.648-.18.864-.108.234-.27.414-.468.558a1.731 1.731 0 0 1-.72.288 5.197 5.197 0 0 1-.936.072h-1.512Zm7.434-7.434h-1.224v8.424h1.224v-8.424Zm10.043 3.564H779.3c.018-.36.108-.702.27-1.026.144-.324.36-.63.63-.882.252-.252.558-.468.918-.612a2.9 2.9 0 0 1 1.134-.234c.864 0 1.548.27 2.016.792.468.522.738 1.17.774 1.962Zm1.242.396c0-.576-.09-1.116-.27-1.62a4.116 4.116 0 0 0-.756-1.314 3.578 3.578 0 0 0-1.26-.9 4.44 4.44 0 0 0-1.746-.342c-.612 0-1.17.126-1.674.342a3.909 3.909 0 0 0-1.35.918 4.086 4.086 0 0 0-.9 1.404 4.73 4.73 0 0 0-.324 1.764c0 .648.108 1.224.324 1.764a4.13 4.13 0 0 0 .918 1.404c.378.396.828.72 1.368.936.54.216 1.116.324 1.746.324.684 0 1.332-.126 1.944-.414.612-.27 1.17-.72 1.674-1.368l-.918-.72a3.229 3.229 0 0 1-1.062 1.026c-.468.288-1.008.432-1.638.432-.432 0-.846-.072-1.206-.234a2.836 2.836 0 0 1-.972-.666 2.565 2.565 0 0 1-.648-.972 2.866 2.866 0 0 1-.252-1.188h6.984c0-.108.018-.198.018-.306v-.27Zm9.171 4.464V82.52h4.662v7.398h1.224v-8.424h-7.11v8.424h1.224Zm10.728 4.32v-5.742h.054c.342.54.81.936 1.386 1.224.576.288 1.17.414 1.782.414.648 0 1.242-.108 1.782-.342.54-.216.99-.54 1.368-.936.378-.396.666-.864.882-1.404.216-.54.324-1.116.324-1.746 0-.612-.108-1.206-.324-1.746a4.326 4.326 0 0 0-.882-1.404 4.108 4.108 0 0 0-1.368-.936 4.76 4.76 0 0 0-1.782-.342 3.94 3.94 0 0 0-1.782.432 3.422 3.422 0 0 0-1.386 1.242h-.054v-1.458h-1.224v12.744h1.224Zm6.282-8.532c0 .468-.072.918-.216 1.332-.144.414-.36.774-.63 1.08a2.87 2.87 0 0 1-.99.72c-.396.18-.846.252-1.35.252-.468 0-.9-.072-1.296-.252a3.201 3.201 0 0 1-1.026-.72 3.085 3.085 0 0 1-.684-1.062 3.67 3.67 0 0 1-.234-1.35c0-.468.072-.918.234-1.332.162-.414.396-.774.684-1.08a3.201 3.201 0 0 1 2.322-.99c.504 0 .954.09 1.35.27.396.18.72.432.99.738s.486.666.63 1.08c.144.414.216.846.216 1.314Zm10.717-2.646v6.858h1.26v-8.424h-1.26l-5.166 6.606v-6.606h-1.26v8.424h1.26l5.166-6.858Zm10.589 6.858h1.242l-3.456-8.424h-1.08l-3.69 8.424h1.278l2.916-6.948 2.79 6.948Zm12.036-4.212c0-.63-.126-1.224-.342-1.764a4.13 4.13 0 0 0-.918-1.404 4.207 4.207 0 0 0-1.422-.918 5.024 5.024 0 0 0-1.818-.342c-.648 0-1.26.126-1.8.342a4.038 4.038 0 0 0-1.422.918c-.396.396-.72.864-.936 1.404a4.73 4.73 0 0 0-.324 1.764c0 .648.108 1.224.324 1.764.216.54.54 1.008.936 1.404.396.396.864.72 1.422.936.54.216 1.152.324 1.8.324.648 0 1.26-.108 1.818-.324a4.252 4.252 0 0 0 1.422-.936 4.13 4.13 0 0 0 .918-1.404c.216-.54.342-1.116.342-1.764Zm-1.296 0c0 .468-.09.918-.234 1.332-.144.414-.36.774-.63 1.08-.288.306-.612.54-1.008.72-.396.18-.846.252-1.332.252-.504 0-.936-.072-1.332-.252a2.87 2.87 0 0 1-.99-.72 2.986 2.986 0 0 1-.648-1.08 4.052 4.052 0 0 1-.216-1.332c0-.468.072-.9.216-1.314.144-.414.36-.774.648-1.08.27-.306.594-.558.99-.738.396-.18.828-.27 1.332-.27.486 0 .936.09 1.332.27.396.18.72.432 1.008.738.27.306.486.666.63 1.08.144.414.234.846.234 1.314Zm9.485.288v3.924h1.224v-3.924c.576.018 1.116.09 1.584.216.468.144.9.36 1.278.648.36.306.684.702.954 1.206.252.504.468 1.116.648 1.854h1.368c-.324-1.296-.774-2.304-1.314-3.042-.558-.738-1.296-1.26-2.232-1.584l3.096-3.798h-1.368l-2.826 3.546-.594-.054c-.198-.018-.396-.036-.594-.036v-3.456h-1.224v3.456c-.216 0-.432.018-.63.036s-.378.036-.558.054l-2.826-3.546h-1.368l3.078 3.798c-.936.324-1.692.846-2.232 1.566-.558.738-.99 1.764-1.296 3.06h1.368c.144-.738.36-1.35.63-1.854.252-.504.576-.9.954-1.206.36-.288.792-.504 1.278-.648a7.037 7.037 0 0 1 1.602-.216Zm16.452-.936h-5.742c.018-.36.108-.702.27-1.026.144-.324.36-.63.63-.882.252-.252.558-.468.918-.612a2.9 2.9 0 0 1 1.134-.234c.864 0 1.548.27 2.016.792.468.522.738 1.17.774 1.962Zm1.242.396c0-.576-.09-1.116-.27-1.62a4.116 4.116 0 0 0-.756-1.314 3.578 3.578 0 0 0-1.26-.9 4.44 4.44 0 0 0-1.746-.342c-.612 0-1.17.126-1.674.342a3.909 3.909 0 0 0-1.35.918 4.086 4.086 0 0 0-.9 1.404 4.73 4.73 0 0 0-.324 1.764c0 .648.108 1.224.324 1.764a4.13 4.13 0 0 0 .918 1.404c.378.396.828.72 1.368.936.54.216 1.116.324 1.746.324.684 0 1.332-.126 1.944-.414.612-.27 1.17-.72 1.674-1.368l-.918-.72a3.229 3.229 0 0 1-1.062 1.026c-.468.288-1.008.432-1.638.432-.432 0-.846-.072-1.206-.234a2.836 2.836 0 0 1-.972-.666 2.565 2.565 0 0 1-.648-.972 2.866 2.866 0 0 1-.252-1.188h6.984c0-.108.018-.198.018-.306v-.27Zm4.228 4.464v-3.996h4.806v3.996h1.224v-8.424h-1.224v3.402h-4.806v-3.402h-1.224v8.424h1.224Zm15.999-6.858v6.858h1.26v-8.424h-1.26l-5.166 6.606v-6.606h-1.26v8.424h1.26l5.166-6.858Zm8.716 3.24h1.458v3.618h1.224v-8.424h-3.186c-1.152 0-2.016.216-2.61.63-.594.432-.882 1.026-.882 1.782 0 .612.198 1.08.594 1.386.396.306.9.486 1.512.54v.054a3.2 3.2 0 0 0-1.026.594c-.288.252-.54.558-.756.918-.216.36-.378.738-.486 1.17a6.616 6.616 0 0 0-.234 1.35h1.368c.09-1.116.378-1.998.882-2.646.486-.648 1.206-.972 2.142-.972Zm-2.7-2.394c0-.306.054-.558.18-.738.126-.18.288-.306.504-.396.216-.09.468-.144.756-.18.288-.018.594-.036.918-.036h1.8v2.682h-1.782c-.306 0-.594 0-.882-.036a3.059 3.059 0 0 1-.774-.18 1.194 1.194 0 0 1-.522-.414c-.144-.18-.198-.414-.198-.702Zm9.21 8.532 1.458-4.23h-1.278l-1.206 4.23h1.026Zm10.453-7.488v-3.456h-1.224v8.424h1.224v-3.924c.648.018 1.242.09 1.764.216.504.126.954.342 1.35.648.396.306.72.702.972 1.206s.468 1.116.648 1.854h1.368c-.324-1.26-.774-2.25-1.314-3.006-.558-.756-1.332-1.278-2.322-1.602l3.276-3.816h-1.368l-3.024 3.564a8.203 8.203 0 0 0-1.35-.108Zm17.435.756c0-.63-.126-1.224-.342-1.764a4.13 4.13 0 0 0-.918-1.404 4.207 4.207 0 0 0-1.422-.918 5.024 5.024 0 0 0-1.818-.342c-.648 0-1.26.126-1.8.342a4.038 4.038 0 0 0-1.422.918c-.396.396-.72.864-.936 1.404a4.73 4.73 0 0 0-.324 1.764c0 .648.108 1.224.324 1.764.216.54.54 1.008.936 1.404.396.396.864.72 1.422.936.54.216 1.152.324 1.8.324.648 0 1.26-.108 1.818-.324a4.252 4.252 0 0 0 1.422-.936 4.13 4.13 0 0 0 .918-1.404c.216-.54.342-1.116.342-1.764Zm-1.296 0c0 .468-.09.918-.234 1.332-.144.414-.36.774-.63 1.08-.288.306-.612.54-1.008.72-.396.18-.846.252-1.332.252-.504 0-.936-.072-1.332-.252a2.87 2.87 0 0 1-.99-.72 2.986 2.986 0 0 1-.648-1.08 4.052 4.052 0 0 1-.216-1.332c0-.468.072-.9.216-1.314.144-.414.36-.774.648-1.08.27-.306.594-.558.99-.738.396-.18.828-.27 1.332-.27.486 0 .936.09 1.332.27.396.18.72.432 1.008.738.27.306.486.666.63 1.08.144.414.234.846.234 1.314Zm2.933-4.212v1.026h2.988v7.398h1.224V82.52h3.186v-1.026h-7.398Zm18.005 4.212c0-.63-.126-1.224-.342-1.764a4.13 4.13 0 0 0-.918-1.404 4.207 4.207 0 0 0-1.422-.918 5.024 5.024 0 0 0-1.818-.342c-.648 0-1.26.126-1.8.342a4.038 4.038 0 0 0-1.422.918c-.396.396-.72.864-.936 1.404a4.73 4.73 0 0 0-.324 1.764c0 .648.108 1.224.324 1.764.216.54.54 1.008.936 1.404.396.396.864.72 1.422.936.54.216 1.152.324 1.8.324.648 0 1.26-.108 1.818-.324a4.252 4.252 0 0 0 1.422-.936 4.13 4.13 0 0 0 .918-1.404c.216-.54.342-1.116.342-1.764Zm-1.296 0c0 .468-.09.918-.234 1.332-.144.414-.36.774-.63 1.08-.288.306-.612.54-1.008.72-.396.18-.846.252-1.332.252-.504 0-.936-.072-1.332-.252a2.87 2.87 0 0 1-.99-.72 2.986 2.986 0 0 1-.648-1.08 4.052 4.052 0 0 1-.216-1.332c0-.468.072-.9.216-1.314.144-.414.36-.774.648-1.08.27-.306.594-.558.99-.738.396-.18.828-.27 1.332-.27.486 0 .936.09 1.332.27.396.18.72.432 1.008.738.27.306.486.666.63 1.08.144.414.234.846.234 1.314Zm5.597 8.532v-5.742h.054c.342.54.81.936 1.386 1.224.576.288 1.17.414 1.782.414.648 0 1.242-.108 1.782-.342.54-.216.99-.54 1.368-.936.378-.396.666-.864.882-1.404.216-.54.324-1.116.324-1.746 0-.612-.108-1.206-.324-1.746a4.326 4.326 0 0 0-.882-1.404 4.108 4.108 0 0 0-1.368-.936 4.76 4.76 0 0 0-1.782-.342 3.94 3.94 0 0 0-1.782.432 3.422 3.422 0 0 0-1.386 1.242h-.054v-1.458h-1.224v12.744h1.224Zm6.282-8.532c0 .468-.072.918-.216 1.332-.144.414-.36.774-.63 1.08a2.87 2.87 0 0 1-.99.72c-.396.18-.846.252-1.35.252-.468 0-.9-.072-1.296-.252a3.201 3.201 0 0 1-1.026-.72 3.085 3.085 0 0 1-.684-1.062 3.67 3.67 0 0 1-.234-1.35c0-.468.072-.918.234-1.332.162-.414.396-.774.684-1.08a3.201 3.201 0 0 1 2.322-.99c.504 0 .954.09 1.35.27.396.18.72.432.99.738s.486.666.63 1.08c.144.414.216.846.216 1.314Zm5.515-4.212h-1.224v8.424h3.024c.54 0 1.026-.072 1.44-.216a3.105 3.105 0 0 0 1.044-.594c.27-.252.468-.54.612-.882a2.63 2.63 0 0 0 .216-1.08c0-.378-.072-.738-.18-1.08a2.51 2.51 0 0 0-.576-.864c-.27-.252-.612-.432-1.044-.576-.432-.144-.972-.216-1.584-.216h-1.728v-2.916Zm0 7.434v-3.546h1.458c.324 0 .648.036.936.09.288.054.522.144.738.27.216.144.378.324.504.54.108.234.18.522.18.864 0 .36-.072.648-.18.864-.108.234-.27.414-.468.558a1.731 1.731 0 0 1-.72.288 5.197 5.197 0 0 1-.936.072h-1.512Zm7.434-7.434h-1.224v8.424h1.224v-8.424Zm10.043 3.564h-5.742c.018-.36.108-.702.27-1.026.144-.324.36-.63.63-.882.252-.252.558-.468.918-.612a2.9 2.9 0 0 1 1.134-.234c.864 0 1.548.27 2.016.792.468.522.738 1.17.774 1.962Zm1.242.396c0-.576-.09-1.116-.27-1.62a4.116 4.116 0 0 0-.756-1.314 3.578 3.578 0 0 0-1.26-.9 4.44 4.44 0 0 0-1.746-.342c-.612 0-1.17.126-1.674.342a3.909 3.909 0 0 0-1.35.918 4.086 4.086 0 0 0-.9 1.404 4.73 4.73 0 0 0-.324 1.764c0 .648.108 1.224.324 1.764a4.13 4.13 0 0 0 .918 1.404c.378.396.828.72 1.368.936.54.216 1.116.324 1.746.324.684 0 1.332-.126 1.944-.414.612-.27 1.17-.72 1.674-1.368l-.918-.72a3.229 3.229 0 0 1-1.062 1.026c-.468.288-1.008.432-1.638.432-.432 0-.846-.072-1.206-.234a2.836 2.836 0 0 1-.972-.666 2.565 2.565 0 0 1-.648-.972 2.866 2.866 0 0 1-.252-1.188h6.984c0-.108.018-.198.018-.306v-.27ZM569.4 117.918c1.098 0 1.926-.198 2.502-.612.558-.396.846-.954.846-1.638 0-.342-.072-.63-.18-.882a1.677 1.677 0 0 0-.504-.612 2.497 2.497 0 0 0-.72-.378 6.94 6.94 0 0 0-.882-.162c.252-.072.486-.144.72-.234.216-.072.414-.18.594-.324.18-.144.306-.306.414-.522.09-.216.144-.468.144-.792 0-.684-.27-1.224-.774-1.638-.522-.414-1.314-.63-2.376-.63h-3.636v8.424h3.852Zm-2.628-.99v-2.826h2.286c.72 0 1.278.09 1.71.27.432.18.648.558.648 1.134 0 .36-.09.63-.234.81a1.377 1.377 0 0 1-.648.432c-.288.09-.612.144-.972.162-.378.018-.792.018-1.224.018h-1.566Zm2.34-3.708h-2.34v-2.736h1.53c.396 0 .774.018 1.116.036.324.036.612.09.864.18.234.09.414.216.558.396.126.18.198.432.198.738 0 .558-.18.936-.522 1.116-.342.18-.81.27-1.404.27Zm7.841-3.726h-1.224v8.424h3.024c.54 0 1.026-.072 1.44-.216a3.105 3.105 0 0 0 1.044-.594c.27-.252.468-.54.612-.882a2.63 2.63 0 0 0 .216-1.08c0-.378-.072-.738-.18-1.08a2.51 2.51 0 0 0-.576-.864c-.27-.252-.612-.432-1.044-.576-.432-.144-.972-.216-1.584-.216h-1.728v-2.916Zm0 7.434v-3.546h1.458c.324 0 .648.036.936.09.288.054.522.144.738.27.216.144.378.324.504.54.108.234.18.522.18.864 0 .36-.072.648-.18.864-.108.234-.27.414-.468.558a1.731 1.731 0 0 1-.72.288 5.197 5.197 0 0 1-.936.072h-1.512Zm7.434-7.434h-1.224v8.424h1.224v-8.424Zm14.914 1.566v6.858h1.26v-8.424h-1.26l-5.166 6.606v-6.606h-1.26v8.424h1.26l5.166-6.858Zm10.931.36.954-.684c-.36-.468-.846-.828-1.422-1.08a4.263 4.263 0 0 0-1.71-.378c-.684 0-1.314.126-1.854.342a4.038 4.038 0 0 0-1.422.918 4.086 4.086 0 0 0-.9 1.404 4.73 4.73 0 0 0-.324 1.764c0 .648.108 1.224.324 1.764.216.54.504 1.008.9 1.404.396.396.864.72 1.422.936.54.216 1.17.324 1.854.324.72 0 1.35-.126 1.872-.396a3.83 3.83 0 0 0 1.332-1.062l-.918-.684a2.984 2.984 0 0 1-.918.792c-.378.216-.828.306-1.368.306-.504 0-.936-.072-1.332-.252a2.942 2.942 0 0 1-1.008-.72 2.986 2.986 0 0 1-.648-1.08 3.901 3.901 0 0 1-.216-1.332c0-.468.072-.918.216-1.332.144-.414.36-.774.648-1.08a3.201 3.201 0 0 1 2.358-.99c.45 0 .864.108 1.26.324.396.216.684.468.9.792Zm4.529 6.498v-7.398h4.662v7.398h1.224v-8.424h-7.11v8.424h1.224Zm17.874-4.212c0-.63-.126-1.224-.342-1.764a4.13 4.13 0 0 0-.918-1.404 4.207 4.207 0 0 0-1.422-.918 5.024 5.024 0 0 0-1.818-.342c-.648 0-1.26.126-1.8.342a4.038 4.038 0 0 0-1.422.918c-.396.396-.72.864-.936 1.404a4.73 4.73 0 0 0-.324 1.764c0 .648.108 1.224.324 1.764.216.54.54 1.008.936 1.404.396.396.864.72 1.422.936.54.216 1.152.324 1.8.324.648 0 1.26-.108 1.818-.324a4.252 4.252 0 0 0 1.422-.936 4.13 4.13 0 0 0 .918-1.404c.216-.54.342-1.116.342-1.764Zm-1.296 0c0 .468-.09.918-.234 1.332-.144.414-.36.774-.63 1.08-.288.306-.612.54-1.008.72-.396.18-.846.252-1.332.252-.504 0-.936-.072-1.332-.252a2.87 2.87 0 0 1-.99-.72 2.986 2.986 0 0 1-.648-1.08 4.052 4.052 0 0 1-.216-1.332c0-.468.072-.9.216-1.314.144-.414.36-.774.648-1.08.27-.306.594-.558.99-.738.396-.18.828-.27 1.332-.27.486 0 .936.09 1.332.27.396.18.72.432 1.008.738.27.306.486.666.63 1.08.144.414.234.846.234 1.314Zm10.097 4.212h1.242l-3.456-8.424h-1.08l-3.69 8.424h1.278l2.916-6.948 2.79 6.948Zm4.818-8.424h-1.224v8.424h3.384c.54 0 1.026-.072 1.44-.216a3.105 3.105 0 0 0 1.044-.594 2.39 2.39 0 0 0 .648-.882 2.63 2.63 0 0 0 .216-1.08c0-.378-.072-.738-.18-1.08a2.327 2.327 0 0 0-.594-.864c-.27-.252-.63-.432-1.062-.576-.432-.144-.972-.216-1.584-.216h-2.088v-2.916Zm0 7.434v-3.546h1.818c.324 0 .648.036.936.09.288.054.558.144.774.27.216.144.378.324.504.54.108.234.18.522.18.864 0 .36-.072.648-.18.864-.108.234-.27.414-.486.558a1.92 1.92 0 0 1-.738.288 5.197 5.197 0 0 1-.936.072h-1.872Zm8.719-5.49c.072-.234.216-.45.414-.648.144-.162.36-.306.648-.45.27-.144.63-.216 1.062-.216.324 0 .594.054.846.144.234.09.432.198.576.342.144.144.27.324.342.504.072.198.108.396.108.594 0 .504-.198.882-.558 1.134-.378.252-.828.36-1.368.36h-.9v.936h1.08c.72 0 1.242.144 1.548.432.306.288.468.612.468 1.008 0 .486-.198.864-.558 1.152-.378.288-.882.432-1.53.432-.468 0-.864-.054-1.17-.198-.306-.126-.54-.27-.702-.45a1.555 1.555 0 0 1-.468-.666l-.99.612c.126.324.342.612.63.846.234.216.558.396.972.576.414.18.954.252 1.602.252 1.044 0 1.89-.234 2.502-.72a2.236 2.236 0 0 0 .918-1.854 1.91 1.91 0 0 0-.198-.864 2.131 2.131 0 0 0-.54-.594 2.529 2.529 0 0 0-.774-.342 4.035 4.035 0 0 0-.936-.108v-.054a2.3 2.3 0 0 0 .846-.18c.252-.108.486-.252.684-.432.18-.18.342-.378.45-.63.108-.234.162-.486.162-.774 0-.252-.072-.522-.18-.81a2.182 2.182 0 0 0-.522-.774 2.844 2.844 0 0 0-.936-.576c-.396-.144-.846-.216-1.386-.216-.612 0-1.116.09-1.512.27-.396.18-.72.36-.954.558a2.475 2.475 0 0 0-.63.828l.954.576Zm11.421 5.166-2.862-7.11h-1.368l3.6 8.406-.684 1.764c-.18.486-.396.864-.63 1.116-.252.252-.576.378-.99.378-.324 0-.612-.036-.9-.144l-.126 1.116c.36.072.72.108 1.098.108.72 0 1.278-.18 1.674-.576.396-.396.72-.918.972-1.566l4.194-10.602h-1.332l-2.61 7.11h-.036Zm12.76-3.546h-5.742c.018-.36.108-.702.27-1.026.144-.324.36-.63.63-.882.252-.252.558-.468.918-.612a2.9 2.9 0 0 1 1.134-.234c.864 0 1.548.27 2.016.792.468.522.738 1.17.774 1.962Zm1.242.396c0-.576-.09-1.116-.27-1.62a4.116 4.116 0 0 0-.756-1.314 3.578 3.578 0 0 0-1.26-.9 4.44 4.44 0 0 0-1.746-.342c-.612 0-1.17.126-1.674.342a3.909 3.909 0 0 0-1.35.918 4.086 4.086 0 0 0-.9 1.404 4.73 4.73 0 0 0-.324 1.764c0 .648.108 1.224.324 1.764a4.13 4.13 0 0 0 .918 1.404c.378.396.828.72 1.368.936.54.216 1.116.324 1.746.324.684 0 1.332-.126 1.944-.414.612-.27 1.17-.72 1.674-1.368l-.918-.72a3.229 3.229 0 0 1-1.062 1.026c-.468.288-1.008.432-1.638.432-.432 0-.846-.072-1.206-.234a2.836 2.836 0 0 1-.972-.666 2.565 2.565 0 0 1-.648-.972 2.866 2.866 0 0 1-.252-1.188h6.984c0-.108.018-.198.018-.306v-.27Zm1.636-3.96v1.026h2.988v7.398h1.224v-7.398h3.186v-1.026h-7.398Zm16.061 3.564h-5.742c.018-.36.108-.702.27-1.026.144-.324.36-.63.63-.882.252-.252.558-.468.918-.612a2.9 2.9 0 0 1 1.134-.234c.864 0 1.548.27 2.016.792.468.522.738 1.17.774 1.962Zm1.242.396c0-.576-.09-1.116-.27-1.62a4.116 4.116 0 0 0-.756-1.314 3.578 3.578 0 0 0-1.26-.9 4.44 4.44 0 0 0-1.746-.342c-.612 0-1.17.126-1.674.342a3.909 3.909 0 0 0-1.35.918 4.086 4.086 0 0 0-.9 1.404 4.73 4.73 0 0 0-.324 1.764c0 .648.108 1.224.324 1.764a4.13 4.13 0 0 0 .918 1.404c.378.396.828.72 1.368.936.54.216 1.116.324 1.746.324.684 0 1.332-.126 1.944-.414.612-.27 1.17-.72 1.674-1.368l-.918-.72a3.229 3.229 0 0 1-1.062 1.026c-.468.288-1.008.432-1.638.432-.432 0-.846-.072-1.206-.234a2.836 2.836 0 0 1-.972-.666 2.565 2.565 0 0 1-.648-.972 2.866 2.866 0 0 1-.252-1.188h6.984c0-.108.018-.198.018-.306v-.27Zm11.799 4.464c1.098 0 1.926-.198 2.502-.612.558-.396.846-.954.846-1.638 0-.342-.072-.63-.18-.882a1.677 1.677 0 0 0-.504-.612 2.497 2.497 0 0 0-.72-.378 6.94 6.94 0 0 0-.882-.162c.252-.072.486-.144.72-.234.216-.072.414-.18.594-.324.18-.144.306-.306.414-.522.09-.216.144-.468.144-.792 0-.684-.27-1.224-.774-1.638-.522-.414-1.314-.63-2.376-.63h-3.636v8.424h3.852Zm-2.628-.99v-2.826h2.286c.72 0 1.278.09 1.71.27.432.18.648.558.648 1.134 0 .36-.09.63-.234.81a1.377 1.377 0 0 1-.648.432c-.288.09-.612.144-.972.162-.378.018-.792.018-1.224.018h-1.566Zm2.34-3.708h-2.34v-2.736h1.53c.396 0 .774.018 1.116.036.324.036.612.09.864.18.234.09.414.216.558.396.126.18.198.432.198.738 0 .558-.18.936-.522 1.116-.342.18-.81.27-1.404.27Zm12.856 9.018v-5.742h.054c.342.54.81.936 1.386 1.224.576.288 1.17.414 1.782.414.648 0 1.242-.108 1.782-.342.54-.216.99-.54 1.368-.936.378-.396.666-.864.882-1.404.216-.54.324-1.116.324-1.746 0-.612-.108-1.206-.324-1.746a4.326 4.326 0 0 0-.882-1.404 4.108 4.108 0 0 0-1.368-.936 4.76 4.76 0 0 0-1.782-.342 3.94 3.94 0 0 0-1.782.432 3.422 3.422 0 0 0-1.386 1.242h-.054v-1.458h-1.224v12.744h1.224Zm6.282-8.532c0 .468-.072.918-.216 1.332-.144.414-.36.774-.63 1.08a2.87 2.87 0 0 1-.99.72c-.396.18-.846.252-1.35.252-.468 0-.9-.072-1.296-.252a3.201 3.201 0 0 1-1.026-.72 3.085 3.085 0 0 1-.684-1.062 3.67 3.67 0 0 1-.234-1.35c0-.468.072-.918.234-1.332.162-.414.396-.774.684-1.08a3.201 3.201 0 0 1 2.322-.99c.504 0 .954.09 1.35.27.396.18.72.432.99.738s.486.666.63 1.08c.144.414.216.846.216 1.314Zm9.673-1.224v.27c-.774 0-1.512.036-2.232.09-.72.054-1.35.18-1.89.36-.558.18-1.008.468-1.332.846-.324.378-.486.882-.486 1.53 0 .468.09.864.27 1.188.18.324.414.594.702.792.288.216.594.36.936.45.342.09.684.126 1.008.126.684 0 1.26-.108 1.746-.36s.918-.648 1.314-1.224h.036c0 .234 0 .468.036.702.018.252.054.468.09.666h1.098a5.112 5.112 0 0 1-.108-.882c-.036-.342-.036-.684-.036-1.008v-3.69c0-.504-.09-.954-.252-1.35a2.921 2.921 0 0 0-.702-.954 3.07 3.07 0 0 0-1.044-.558 4.222 4.222 0 0 0-1.278-.198 5.5 5.5 0 0 0-1.944.342c-.576.234-1.026.522-1.368.864l.684.81c.288-.288.666-.54 1.098-.72.432-.18.9-.27 1.404-.27.72 0 1.278.18 1.674.54.378.36.576.918.576 1.638Zm-.36 1.224h.36v.63c0 .378-.072.738-.18 1.062a2.955 2.955 0 0 1-.522.9 2.617 2.617 0 0 1-.846.612c-.342.144-.72.216-1.152.216-.252 0-.486-.018-.72-.072a1.806 1.806 0 0 1-.63-.27 1.264 1.264 0 0 1-.468-.504c-.108-.198-.162-.45-.162-.756 0-.396.126-.702.396-.954.252-.234.594-.414 1.008-.54a6.331 6.331 0 0 1 1.386-.252 21.754 21.754 0 0 1 1.53-.072Zm11.967.18c0 .432-.072.846-.198 1.242a2.83 2.83 0 0 1-.558 1.026 2.738 2.738 0 0 1-.936.684c-.36.18-.774.252-1.242.252-.468 0-.9-.072-1.278-.252a2.785 2.785 0 0 1-.99-.684 2.974 2.974 0 0 1-.63-1.062 4.225 4.225 0 0 1-.216-1.386c0-.504.072-.936.252-1.314.162-.378.396-.702.684-.954.288-.252.612-.432.99-.558.36-.126.756-.198 1.17-.198.432 0 .846.09 1.206.234.36.162.666.378.918.666.252.288.468.63.612 1.026.144.396.216.81.216 1.278Zm-2.88-4.248c-.72 0-1.35.162-1.926.45-.576.306-1.026.702-1.332 1.206.09-.756.234-1.44.414-2.07.18-.612.468-1.152.828-1.602.36-.432.81-.774 1.386-1.026.576-.234 1.296-.36 2.178-.36h2.466v-1.044h-2.43c-1.89 0-3.294.54-4.23 1.584-.936 1.062-1.494 2.646-1.674 4.77-.036.324-.054.63-.072.954-.018.324-.018.666-.018 1.008 0 .72.09 1.35.306 1.926.198.576.486 1.062.864 1.458.36.396.81.702 1.35.918.54.216 1.134.324 1.818.324a4.55 4.55 0 0 0 1.638-.288 4.384 4.384 0 0 0 1.35-.846c.378-.36.684-.81.918-1.35a4.599 4.599 0 0 0 .342-1.764c0-.63-.108-1.206-.306-1.728a4.34 4.34 0 0 0-.864-1.35 4.17 4.17 0 0 0-1.314-.864 4.71 4.71 0 0 0-1.692-.306Zm15.61 4.068c0-.63-.126-1.224-.342-1.764a4.13 4.13 0 0 0-.918-1.404 4.207 4.207 0 0 0-1.422-.918 5.024 5.024 0 0 0-1.818-.342c-.648 0-1.26.126-1.8.342a4.038 4.038 0 0 0-1.422.918c-.396.396-.72.864-.936 1.404a4.73 4.73 0 0 0-.324 1.764c0 .648.108 1.224.324 1.764.216.54.54 1.008.936 1.404.396.396.864.72 1.422.936.54.216 1.152.324 1.8.324.648 0 1.26-.108 1.818-.324a4.252 4.252 0 0 0 1.422-.936 4.13 4.13 0 0 0 .918-1.404c.216-.54.342-1.116.342-1.764Zm-1.296 0c0 .468-.09.918-.234 1.332-.144.414-.36.774-.63 1.08-.288.306-.612.54-1.008.72-.396.18-.846.252-1.332.252-.504 0-.936-.072-1.332-.252a2.87 2.87 0 0 1-.99-.72 2.986 2.986 0 0 1-.648-1.08 4.052 4.052 0 0 1-.216-1.332c0-.468.072-.9.216-1.314.144-.414.36-.774.648-1.08.27-.306.594-.558.99-.738.396-.18.828-.27 1.332-.27.486 0 .936.09 1.332.27.396.18.72.432 1.008.738.27.306.486.666.63 1.08.144.414.234.846.234 1.314Zm2.933-4.212v1.026h2.988v7.398h1.224v-7.398h3.186v-1.026h-7.398Zm16.061 3.564h-5.742c.018-.36.108-.702.27-1.026.144-.324.36-.63.63-.882.252-.252.558-.468.918-.612a2.9 2.9 0 0 1 1.134-.234c.864 0 1.548.27 2.016.792.468.522.738 1.17.774 1.962Zm1.242.396c0-.576-.09-1.116-.27-1.62a4.116 4.116 0 0 0-.756-1.314 3.578 3.578 0 0 0-1.26-.9 4.44 4.44 0 0 0-1.746-.342c-.612 0-1.17.126-1.674.342a3.909 3.909 0 0 0-1.35.918 4.086 4.086 0 0 0-.9 1.404 4.73 4.73 0 0 0-.324 1.764c0 .648.108 1.224.324 1.764a4.13 4.13 0 0 0 .918 1.404c.378.396.828.72 1.368.936.54.216 1.116.324 1.746.324.684 0 1.332-.126 1.944-.414.612-.27 1.17-.72 1.674-1.368l-.918-.72a3.229 3.229 0 0 1-1.062 1.026c-.468.288-1.008.432-1.638.432-.432 0-.846-.072-1.206-.234a2.836 2.836 0 0 1-.972-.666 2.565 2.565 0 0 1-.648-.972 2.866 2.866 0 0 1-.252-1.188h6.984c0-.108.018-.198.018-.306v-.27Zm4.768 3.6a.955.955 0 0 0-.27-.666.912.912 0 0 0-.702-.306.912.912 0 0 0-.702.306.955.955 0 0 0-.27.666c0 .252.09.486.27.684.18.198.414.288.702.288s.522-.09.702-.288a.997.997 0 0 0 .27-.684Z" fill="#2D3238"/><path d="M565.429 210.065c0-13.254 10.745-24 24-24h392c13.254 0 24.001 10.746 24.001 24 0 13.255-10.747 24-24.001 24h-392c-13.255 0-24-10.745-24-24Z" fill="#fff"/><path d="M565.929 210.065c0-12.978 10.521-23.5 23.5-23.5h392c12.978 0 23.501 10.522 23.501 23.5 0 12.979-10.523 23.5-23.501 23.5h-392c-12.979 0-23.5-10.521-23.5-23.5Z" stroke="#3898FE" stroke-opacity=".4"/><path opacity=".6" d="M586.933 203.737h3.376c.426 0 .858.048 1.296.144.437.086.826.24 1.168.464.352.214.634.507.848.88.224.374.336.843.336 1.408a2.42 2.42 0 0 1-.544 1.568c-.363.438-.848.726-1.456.864v.032c.736.086 1.344.374 1.824.864.49.48.736 1.136.736 1.968a2.844 2.844 0 0 1-1.136 2.288 4.138 4.138 0 0 1-1.328.624c-.523.15-1.11.224-1.76.224h-3.36v-11.328Zm1.152 4.96h2.32c.277 0 .554-.032.832-.096.288-.064.549-.17.784-.32.234-.16.421-.368.56-.624.149-.256.224-.57.224-.944 0-.362-.075-.666-.224-.912a1.708 1.708 0 0 0-.576-.624 2.408 2.408 0 0 0-.864-.336 4.83 4.83 0 0 0-1.056-.112h-2v3.968Zm0 5.376h2.144c.416 0 .81-.037 1.184-.112.384-.085.714-.213.992-.384.288-.181.517-.41.688-.688.17-.288.256-.629.256-1.024 0-.746-.256-1.301-.768-1.664-.502-.373-1.216-.56-2.144-.56h-2.352v4.432Zm13.276.992h-3.424v-7.488h3.232c.949 0 1.653.187 2.112.56.458.363.688.848.688 1.456 0 .278-.043.512-.128.704a1.294 1.294 0 0 1-.368.464c-.15.118-.326.214-.528.288a8.905 8.905 0 0 1-.64.208c.277.022.538.07.784.144.245.075.458.187.64.336.192.139.341.32.448.544.106.214.16.475.16.784 0 .608-.251 1.094-.752 1.456-.502.363-1.243.544-2.224.544Zm-2.336-.88h1.392c.394 0 .757-.005 1.088-.016a3.81 3.81 0 0 0 .864-.144c.245-.085.437-.213.576-.384.138-.17.208-.41.208-.72 0-.512-.192-.848-.576-1.008-.374-.16-.88-.24-1.52-.24h-2.032v2.512Zm2.08-3.296c.533 0 .949-.08 1.248-.24.309-.17.464-.501.464-.992 0-.277-.059-.496-.176-.656a1.014 1.014 0 0 0-.496-.352 2.607 2.607 0 0 0-.768-.16c-.299-.021-.63-.032-.992-.032h-1.36v2.432h2.08Zm12.224-.144c-.032-.704-.262-1.285-.688-1.744-.416-.469-1.014-.704-1.792-.704-.363 0-.699.07-1.008.208-.31.128-.582.31-.816.544a2.56 2.56 0 0 0-.56.784 2.448 2.448 0 0 0-.24.912h5.104Zm1.104.352v.24c0 .086-.006.176-.016.272h-6.208c.01.374.085.726.224 1.056.138.331.33.619.576.864.245.246.533.443.864.592.33.139.688.208 1.072.208.565 0 1.05-.128 1.456-.384.416-.266.73-.57.944-.912l.816.64c-.448.566-.944.971-1.488 1.216a4.079 4.079 0 0 1-1.728.368 4.139 4.139 0 0 1-1.552-.288 3.716 3.716 0 0 1-1.216-.832 3.993 3.993 0 0 1-.816-1.248 4.181 4.181 0 0 1-.288-1.568c0-.565.096-1.088.288-1.568.192-.48.458-.896.8-1.248a3.57 3.57 0 0 1 1.2-.816 3.646 3.646 0 0 1 1.488-.304c.586 0 1.104.102 1.552.304.448.192.821.459 1.12.8.298.331.522.72.672 1.168.16.448.24.928.24 1.44Zm2.932 6.192h-1.072v-3.168h1.2l2.752-6.544h.96l2.544 6.544h1.248v3.168h-1.056v-2.224h-6.576v2.224Zm1.232-3.168h4.064l-1.968-5.232-2.096 5.232Zm14.447-5.152-4.592 6.096h-1.12v-7.488h1.12v5.872l4.592-5.872h1.12v7.488h-1.12v-6.096Zm3.61-1.392h6.576v.912h-2.832v6.576h-1.088v-6.576h-2.656v-.912Zm14.843 3.168c-.032-.704-.261-1.285-.688-1.744-.416-.469-1.013-.704-1.792-.704-.363 0-.699.07-1.008.208-.309.128-.581.31-.816.544a2.577 2.577 0 0 0-.56.784 2.448 2.448 0 0 0-.24.912h5.104Zm1.104.352v.24c0 .086-.005.176-.016.272h-6.208c.011.374.085.726.224 1.056.139.331.331.619.576.864.245.246.533.443.864.592.331.139.688.208 1.072.208.565 0 1.051-.128 1.456-.384.416-.266.731-.57.944-.912l.816.64c-.448.566-.944.971-1.488 1.216a4.072 4.072 0 0 1-1.728.368 4.139 4.139 0 0 1-1.552-.288 3.727 3.727 0 0 1-1.216-.832 4.028 4.028 0 0 1-.816-1.248 4.181 4.181 0 0 1-.288-1.568c0-.565.096-1.088.288-1.568.192-.48.459-.896.8-1.248a3.57 3.57 0 0 1 1.2-.816 3.653 3.653 0 0 1 1.488-.304c.587 0 1.104.102 1.552.304.448.192.821.459 1.12.8.299.331.523.72.672 1.168.16.448.24.928.24 1.44Zm13.972-.352c-.032-.704-.261-1.285-.688-1.744-.416-.469-1.013-.704-1.792-.704-.363 0-.699.07-1.008.208-.309.128-.581.31-.816.544a2.577 2.577 0 0 0-.56.784 2.448 2.448 0 0 0-.24.912h5.104Zm1.104.352v.24c0 .086-.005.176-.016.272h-6.208c.011.374.085.726.224 1.056.139.331.331.619.576.864.245.246.533.443.864.592.331.139.688.208 1.072.208.565 0 1.051-.128 1.456-.384.416-.266.731-.57.944-.912l.816.64c-.448.566-.944.971-1.488 1.216a4.072 4.072 0 0 1-1.728.368 4.139 4.139 0 0 1-1.552-.288 3.727 3.727 0 0 1-1.216-.832 4.028 4.028 0 0 1-.816-1.248 4.181 4.181 0 0 1-.288-1.568c0-.565.096-1.088.288-1.568.192-.48.459-.896.8-1.248a3.57 3.57 0 0 1 1.2-.816 3.653 3.653 0 0 1 1.488-.304c.587 0 1.104.102 1.552.304.448.192.821.459 1.12.8.299.331.523.72.672 1.168.16.448.24.928.24 1.44Zm4.372-2.24a2.52 2.52 0 0 1 .976-1.056 2.774 2.774 0 0 1 1.488-.416c.203 0 .411.022.624.064.224.043.438.128.64.256.214.118.406.278.576.48.182.203.336.464.464.784.256-.512.603-.901 1.04-1.168.448-.277.976-.416 1.584-.416.95 0 1.659.283 2.128.848.48.566.72 1.312.72 2.24v4.592h-1.088v-4.144c0-.789-.149-1.424-.448-1.904-.288-.48-.784-.72-1.488-.72-.394 0-.73.08-1.008.24-.266.16-.485.374-.656.64-.16.256-.277.55-.352.88a4.677 4.677 0 0 0-.112 1.024v3.984h-1.088v-4.368c0-.362-.026-.693-.08-.992a1.907 1.907 0 0 0-.288-.752 1.196 1.196 0 0 0-.544-.48c-.234-.117-.533-.176-.896-.176-.256 0-.517.059-.784.176-.256.118-.49.299-.704.544a2.758 2.758 0 0 0-.496.912c-.128.363-.192.795-.192 1.296v3.84h-1.088v-5.84a23.558 23.558 0 0 0-.064-1.648h1.04a13.96 13.96 0 0 1 .064 1.28h.032Zm18.733 1.376c0-.65-.17-1.136-.512-1.456-.341-.32-.837-.48-1.488-.48-.448 0-.864.08-1.248.24-.384.16-.709.374-.976.64l-.608-.72c.31-.309.715-.565 1.216-.768a4.675 4.675 0 0 1 1.728-.304c.406 0 .784.059 1.136.176.352.107.662.272.928.496.267.224.475.507.624.848.15.342.224.742.224 1.2v3.28c0 .288.011.587.032.896.022.31.054.571.096.784h-.976a8.291 8.291 0 0 1-.08-.592 6.363 6.363 0 0 1-.032-.624h-.032c-.341.502-.73.864-1.168 1.088-.426.214-.944.32-1.552.32-.288 0-.586-.042-.896-.128a2.442 2.442 0 0 1-.832-.384 2.357 2.357 0 0 1-.624-.704c-.16-.288-.24-.64-.24-1.056 0-.576.144-1.029.432-1.36.299-.341.694-.592 1.184-.752a6.487 6.487 0 0 1 1.68-.32c.64-.053 1.302-.08 1.984-.08v-.24Zm-.32 1.088c-.448 0-.901.022-1.36.064a5.408 5.408 0 0 0-1.232.224 2.27 2.27 0 0 0-.896.48c-.234.214-.352.496-.352.848 0 .267.048.491.144.672.107.182.246.331.416.448.171.107.358.187.56.24.214.043.427.064.64.064.384 0 .726-.064 1.024-.192.299-.138.55-.32.752-.544.203-.234.358-.501.464-.8.107-.298.16-.613.16-.944v-.56h-.32Zm6.211 3.744h-1.088v-7.488h1.088v7.488Zm.224-10.368c0 .224-.08.411-.24.56a.787.787 0 0 1-.528.208.787.787 0 0 1-.528-.208.734.734 0 0 1-.24-.56c0-.224.08-.405.24-.544a.76.76 0 0 1 .528-.224.76.76 0 0 1 .528.224c.16.139.24.32.24.544Zm4.752 10.368h-1.088v-12.096h1.088v12.096Z" fill="#1792C7"/><path d="M844.429 210.065c0-13.254 10.745-24 24-24h113c13.254 0 24.001 10.746 24.001 24 0 13.255-10.747 24-24.001 24h-113c-13.255 0-24-10.745-24-24Z" fill="url(#b)"/><path d="m899.963 203.737 2.96 6.464 2.864-6.464h2.192l-4.08 8.864a8.648 8.648 0 0 1-.592 1.088 3.89 3.89 0 0 1-.752.864 3.449 3.449 0 0 1-2.256.768c-.341 0-.635-.026-.88-.08a2.697 2.697 0 0 1-.608-.176 2.412 2.412 0 0 1-.416-.24 4.161 4.161 0 0 1-.304-.24l1.168-1.472c.117.107.272.219.464.336.203.118.443.176.72.176.299 0 .56-.09.784-.272.224-.192.437-.469.64-.832l-4.128-8.784h2.224Zm10.049 5.76-1.184-.848a5.38 5.38 0 0 1 .272-.416 2.58 2.58 0 0 1 .576-.528c.246-.181.56-.336.944-.464.384-.138.848-.208 1.392-.208.523 0 .982.059 1.376.176.406.107.742.262 1.008.464.267.203.464.438.592.704.139.267.208.555.208.864 0 .267-.048.507-.144.72a1.786 1.786 0 0 1-.368.544c-.149.15-.325.278-.528.384a2.686 2.686 0 0 1-.608.208v.048c.224.022.454.07.688.144.235.075.448.187.64.336.192.15.347.342.464.576.128.224.192.491.192.8 0 .395-.09.736-.272 1.024-.17.288-.416.528-.736.72a3.548 3.548 0 0 1-1.12.432 6.637 6.637 0 0 1-1.424.144c-.533 0-.992-.058-1.376-.176a4.6 4.6 0 0 1-.944-.4 4.105 4.105 0 0 1-.608-.448 5.566 5.566 0 0 0-.304-.288l1.024-1.104c.054.043.134.118.24.224.118.096.267.203.448.32.182.107.395.203.64.288.246.086.523.128.832.128.534 0 .95-.09 1.248-.272.31-.192.464-.458.464-.8 0-.33-.165-.581-.496-.752-.33-.17-.768-.256-1.312-.256h-1.152v-1.264h1.072c.47 0 .859-.069 1.168-.208.32-.138.48-.384.48-.736 0-.298-.133-.565-.4-.8-.256-.234-.656-.352-1.2-.352-.341 0-.629.059-.864.176-.224.107-.405.23-.544.368-.16.16-.288.336-.384.528Zm9.651 5.568h-1.92v-7.744h1.92v2.976h3.408v-2.976h1.92v7.744h-1.92v-3.264h-3.408v3.264Zm12.836-4.992c0-.512-.155-.89-.464-1.136-.309-.245-.72-.368-1.232-.368-.405 0-.795.08-1.168.24-.363.16-.672.363-.928.608l-.992-1.104a4.271 4.271 0 0 1 1.44-.88 4.988 4.988 0 0 1 1.824-.336c1.013 0 1.803.24 2.368.72s.875 1.232.928 2.256c.011.15.016.299.016.448.011.15.016.304.016.464v2.448c0 .278.005.56.016.848.011.278.027.539.048.784h-1.76l-.032-.496a8.189 8.189 0 0 1-.016-.528h-.032c-.277.406-.624.71-1.04.912-.416.203-.896.304-1.44.304a3.75 3.75 0 0 1-.944-.128 2.846 2.846 0 0 1-.88-.4 2.466 2.466 0 0 1-.672-.736c-.171-.309-.256-.688-.256-1.136 0-.576.149-1.034.448-1.376.309-.341.709-.602 1.2-.784a6.631 6.631 0 0 1 1.68-.352c.619-.053 1.243-.08 1.872-.08v-.192Zm-.288 1.392c-.363 0-.731.016-1.104.048a4.545 4.545 0 0 0-.992.192 1.766 1.766 0 0 0-.72.4c-.181.171-.272.4-.272.688 0 .214.043.39.128.528.085.139.192.251.32.336.139.086.293.15.464.192.171.032.341.048.512.048.64 0 1.131-.192 1.472-.576.341-.394.512-.88.512-1.456v-.4h-.32Zm3.896-4.144h6.848v1.52h-2.512v6.224h-1.92v-6.224h-2.416v-1.52Zm10.635 0v2.496h1.808c.576 0 1.067.07 1.472.208.405.128.731.31.976.544.256.235.437.512.544.832.117.32.176.662.176 1.024 0 .374-.069.72-.208 1.04-.128.32-.325.598-.592.832a2.8 2.8 0 0 1-.96.56c-.384.139-.832.208-1.344.208h-3.792v-7.744h1.92Zm0 6.352h1.456c.48 0 .869-.085 1.168-.256.299-.181.448-.512.448-.992 0-.234-.043-.432-.128-.592a.906.906 0 0 0-.352-.368 1.351 1.351 0 0 0-.528-.192 2.996 2.996 0 0 0-.64-.064h-1.424v2.464Z" fill="#fff"/><defs><linearGradient id="b" x1="924.929" y1="186.065" x2="924.929" y2="234.065" gradientUnits="userSpaceOnUse"><stop stop-color="#1792C7"/><stop offset="1" stop-color="#00B8F0"/></linearGradient></defs></svg>