<svg width="55" height="56" fill="none" xmlns="http://www.w3.org/2000/svg"><path fill-rule="evenodd" clip-rule="evenodd" d="M6 16.971v28.228a4.936 4.936 0 0 0 4.936 4.935h26.687a4.936 4.936 0 0 0 4.935-4.935V10.154a4.936 4.936 0 0 0-4.935-4.935h-19.87L6 16.97Z" fill="url(#a)"/><rect x="10.596" y="30.119" width="27.367" height="15.514" rx="3" fill="#fff"/><path d="m19.828 35.88 1.019-.806a2.485 2.485 0 0 0-.541-.51 3.792 3.792 0 0 0-1.432-.562 4.89 4.89 0 0 0-.754-.074c-.584 0-1.125.096-1.613.276a3.884 3.884 0 0 0-1.294.785c-.361.34-.647.754-.86 1.242-.212.488-.307 1.029-.307 1.623 0 .594.095 1.125.297 1.613.19.488.467.901.827 1.252.35.35.775.626 1.263.817a4.42 4.42 0 0 0 1.623.286c.637 0 1.2-.106 1.687-.34.478-.233.88-.551 1.22-.976l-1.071-.753a2.102 2.102 0 0 1-.753.637 2.34 2.34 0 0 1-1.072.233 2.54 2.54 0 0 1-1.05-.201 2.17 2.17 0 0 1-.807-.563 2.495 2.495 0 0 1-.51-.88c-.127-.34-.18-.711-.18-1.125 0-.382.053-.743.18-1.082.128-.33.298-.616.531-.87.234-.244.51-.435.828-.584a2.63 2.63 0 0 1 1.06-.212c.298 0 .616.064.935.19.318.128.573.32.774.584Z" fill="url(#b)"/><path d="m25.886 35.69.87-.955a3.031 3.031 0 0 0-1.03-.605 3.739 3.739 0 0 0-1.156-.202c-.34 0-.679.053-1.008.138a2.677 2.677 0 0 0-.88.403c-.255.18-.467.404-.626.68-.16.275-.234.604-.234.986 0 .36.053.658.17.891.106.234.255.435.435.594.18.17.382.298.615.393.223.106.446.191.68.255l.668.222c.212.075.392.16.552.255.148.096.275.212.37.34a.882.882 0 0 1 .139.488.968.968 0 0 1-.128.52c-.084.138-.19.254-.318.34-.127.095-.276.158-.435.2-.17.043-.329.054-.477.054-.297 0-.605-.075-.913-.223a1.875 1.875 0 0 1-.732-.605l-.955.892c.297.36.68.625 1.146.806.467.18.944.265 1.433.265.36 0 .71-.042 1.05-.149.329-.095.615-.244.87-.445.244-.191.445-.446.594-.743.149-.297.223-.658.223-1.06 0-.361-.074-.67-.212-.924a2.12 2.12 0 0 0-.53-.615 3.294 3.294 0 0 0-.712-.393c-.254-.095-.509-.18-.742-.265a9.513 9.513 0 0 1-.584-.191 2.03 2.03 0 0 1-.456-.223.794.794 0 0 1-.287-.307.802.802 0 0 1-.106-.436c0-.18.032-.34.117-.466.085-.128.19-.234.318-.319.128-.085.266-.138.425-.18.148-.043.307-.064.466-.064.255 0 .52.064.775.191.255.128.456.276.605.457Z" fill="url(#c)"/><path d="m27.372 34.12 2.971 7.511H31.5l3.013-7.512H33.07l-2.09 5.783h-.043l-2.069-5.783h-1.496Z" fill="url(#d)"/><path fill-rule="evenodd" clip-rule="evenodd" d="M5.944 16.906 17.748 5.103l.002.01v6.858a4.936 4.936 0 0 1-4.936 4.935h-6.87Z" fill="url(#e)"/><defs><linearGradient id="a" x1="24.279" y1="5.219" x2="24.279" y2="50.134" gradientUnits="userSpaceOnUse"><stop stop-color="#00B8F0"/><stop offset="0" stop-color="#00B8F0"/><stop offset=".74" stop-color="#B2EEFC"/></linearGradient><linearGradient id="b" x1="24.279" y1="33.928" x2="24.279" y2="41.822" gradientUnits="userSpaceOnUse"><stop stop-color="#F86CA2"/><stop offset="1" stop-color="#FA9EC2"/></linearGradient><linearGradient id="c" x1="24.279" y1="33.928" x2="24.279" y2="41.822" gradientUnits="userSpaceOnUse"><stop stop-color="#F86CA2"/><stop offset="1" stop-color="#FA9EC2"/></linearGradient><linearGradient id="d" x1="24.279" y1="33.928" x2="24.279" y2="41.822" gradientUnits="userSpaceOnUse"><stop stop-color="#F86CA2"/><stop offset="1" stop-color="#FA9EC2"/></linearGradient><linearGradient id="e" x1="11.847" y1="16.906" x2="11.847" y2="5.102" gradientUnits="userSpaceOnUse"><stop stop-color="#1792C7"/><stop offset="1" stop-color="#00B8F0"/></linearGradient></defs></svg>