<svg width="131" height="22" fill="none" xmlns="http://www.w3.org/2000/svg"><g clip-path="url(#a)" fill="#333"><path d="M15.587 8.639c0 .44-.074.882-.074 1.323H4.853c.294 1.617 1.396 2.5 2.94 2.5 1.177 0 2.132-.515 2.574-1.324h4.925c-1.029 3.235-3.896 5.294-7.499 5.294C3.308 16.358 0 13.123 0 8.712c0-4.338 3.308-7.573 7.793-7.573 4.559 0 7.794 3.309 7.794 7.5ZM4.926 7.169h5.808c-.441-1.398-1.47-2.207-2.94-2.207-1.471 0-2.5.81-2.868 2.206ZM48.083 8.638c0 .442-.073.883-.073 1.324H37.349c.294 1.617 1.397 2.5 2.94 2.5 1.177 0 2.133-.515 2.574-1.324h4.926c-1.03 3.235-3.897 5.294-7.5 5.294-4.484 0-7.792-3.235-7.792-7.647 0-4.41 3.308-7.572 7.793-7.572 4.632-.074 7.793 3.235 7.793 7.425Zm-10.66-1.47h5.808c-.441-1.397-1.47-2.206-2.941-2.206-1.47 0-2.426.81-2.867 2.206ZM58.89 1.507v4.485h-1.91c-1.765 0-2.5.735-2.5 2.573v7.279h-4.926V1.58h3.308l.735 1.618c1.03-1.177 2.206-1.618 3.97-1.618h1.324v-.073ZM75.8 1.58l-5.954 13.675c-1.912 4.338-3.676 5.956-7.353 5.956h-1.69v-4.264h1.323c1.911 0 2.426-.515 3.088-2.28L59.332 1.58h5.367l2.941 7.867 2.794-7.867H75.8ZM92.343 8.786c0 4.484-3.088 7.646-7.499 7.646-1.323 0-2.5-.368-3.455-.956v5.661h-4.853V1.58h3.382l.588 1.103c1.177-1.029 2.72-1.617 4.412-1.617 4.337.073 7.425 3.235 7.425 7.72Zm-4.926 0c0-1.912-1.323-3.235-3.235-3.235-1.911 0-3.235 1.397-3.235 3.235 0 1.911 1.324 3.235 3.235 3.235 1.838 0 3.235-1.397 3.235-3.235ZM109.842 1.58v14.264h-3.824l-.441-1.03c-1.176.956-2.647 1.47-4.338 1.47-4.337 0-7.499-3.16-7.499-7.645 0-4.412 3.088-7.573 7.499-7.573 1.691 0 3.162.588 4.338 1.544l.515-1.103 3.75.073Zm-4.706 7.206c0-1.838-1.323-3.235-3.235-3.235-1.838 0-3.235 1.397-3.235 3.235 0 1.838 1.324 3.235 3.235 3.235 1.912 0 3.235-1.397 3.235-3.235ZM127.854 1.58l-5.955 13.675c-1.911 4.338-3.676 5.956-7.352 5.956h-1.691v-4.264h1.323c1.912 0 2.427-.515 3.088-2.28L111.385 1.58h5.368l3.014 7.867 2.794-7.867h5.293Z"/></g><path d="M31.726 3.431 29.16 1.173c-.603-.603-1.659-.452-2.111.15l-7.24 8.583-4.224-3.614c-.603-.451-1.66-.451-2.112.15l-2.262 2.711c-.604.602-.453 1.656.15 2.108l7.844 6.625c.302.302.754.452 1.207.302.482-.16 1.095-.86 1.49-1.343L31.727 5.54c.754-.602.603-1.656 0-2.108Z" fill="url(#b)"/><path d="m36.067 3.463-2.564-2.259c-.603-.602-1.66-.451-2.112.15l-7.24 8.584-4.224-3.614c-.603-.452-1.659-.452-2.111.301l-2.263 2.56c-.453.602-.453 1.656.15 2.108l7.845 6.625c.301.301.778.444 1.206.301.429-.142.752-.61 1.211-1.137L36.067 5.571c.754-.602.603-1.506 0-2.108Z" fill="url(#c)"/><defs><linearGradient id="b" x1="21.532" y1=".789" x2="21.532" y2="18.247" gradientUnits="userSpaceOnUse"><stop stop-color="#1792C7"/><stop offset="1" stop-color="#00B8F0"/></linearGradient><linearGradient id="c" x1="25.904" y1=".821" x2="25.904" y2="18.275" gradientUnits="userSpaceOnUse"><stop stop-color="#00B8F0"/><stop offset="0" stop-color="#00B8F0"/><stop offset=".74" stop-color="#B2EEFC"/></linearGradient><clipPath id="a"><path fill="#fff" transform="translate(0 1.14)" d="M0 0h130.06v20.071H0z"/></clipPath></defs></svg>