<svg width="411" height="410" fill="none" xmlns="http://www.w3.org/2000/svg"><ellipse cx="366.092" cy="83.525" rx="21.589" ry="38.335" transform="rotate(-133.688 366.092 83.525)" fill="url(#a)"/><ellipse cx="297.085" cy="115.421" rx="65" ry="115.421" fill="url(#b)"/><mask id="d" style="mask-type:alpha" maskUnits="userSpaceOnUse" x="232" y="0" width="131" height="231"><ellipse cx="297.085" cy="115.421" rx="65" ry="115.421" fill="url(#c)"/></mask><g mask="url(#d)"><path d="M297.5-7.658c-24.5 24.166-64.1 99.4-26.5 207" stroke="url(#e)"/><path d="M298.857-7.658c24.5 24.166 64.1 99.4 26.5 207" stroke="url(#f)"/><path stroke="url(#g)" d="M298-7.658v199.864"/></g><path d="m256.5 16.342 1.057 12.169 11.067-5.17-10.01 7 10.01 7-11.067-5.169-1.057 12.17-1.057-12.17-11.067 5.17 10.01-7-10.01-7 11.067 5.169 1.057-12.17ZM337 97.615l1.057 12.17 11.067-5.17-10.01 7 10.01 7-11.067-5.169L337 125.615l-1.057-12.169-11.067 5.169 10.01-7-10.01-7 11.067 5.17L337 97.615ZM383.37 66.74l.803 9.24 8.403-3.925-7.601 5.314 7.601 5.315-8.403-3.924-.803 9.239-.802-9.24-8.403 3.925 7.6-5.314-7.6-5.315 8.403 3.924.802-9.239ZM278.25 8.069l.585 6.736 6.127-2.861-5.542 3.875 5.542 3.875-6.127-2.862-.585 6.737-.585-6.737-6.127 2.862 5.542-3.875-5.542-3.875 6.127 2.861.585-6.736Z" fill="#3E464F"/><path d="M208.783 263.555c-1.826-6.127 2.763-12.284 9.157-12.284h159.242c6.098 0 10.635 5.635 9.335 11.592l-25.331 116.09a9.556 9.556 0 0 1-9.336 7.518h-99.308a9.554 9.554 0 0 1-9.156-6.825l-34.603-116.091Z" fill="url(#h)"/><path d="M183.488 180.746a9.555 9.555 0 0 1 9.555-9.555h208.084c5.277 0 9.554 4.278 9.554 9.555v75.013c0 5.277-4.277 9.555-9.554 9.555H193.043a9.555 9.555 0 0 1-9.555-9.555v-75.013Z" fill="#B2EEFC"/><path d="M325.842 216.709c-4.185.516-10.617 2.428-12.333 6.878a12.465 12.465 0 0 0 2.567 12.444 3.605 3.605 0 0 0 4.185.948l.907-.46a3.572 3.572 0 0 0-.544-6.613c-.837-1.98 0-3.515 2.623-4.338 2.455-.739 5.496-1.284 7.491.753a14.039 14.039 0 0 1 1.939 16.001c-5.133 9.305-22.446 11.635-30.286 4.855-3.278-2.79-6.71 2.107-4.715 5.148 2.176 3.306 7.91 5.315 11.62 6.25 5.441 1.395 10.463.097 15.681-1.521 10.267-3.167 18.135-11.397 17.619-22.53-.293-8.607-7.156-19.014-16.754-17.815Z" fill="url(#i)"/><path d="m78.039 351.248 8.608 43.902c0 8.008 4.673 14.439 10.281 14.397l17.703-.167c5.58 0 10.1-6.571 10.031-14.565l5.719-44.055-52.342.488Z" fill="url(#j)"/><path d="m199.492 350.132 8.608 43.916c0 7.994 4.673 14.439 10.281 14.383l17.703-.167c5.58 0 10.1-6.571 10.031-14.565l5.719-44.041-52.342.474Z" fill="url(#k)"/><path d="M53.71 126.77s9.059 29.827 7.354 51.95c-21.965 19.221-36.31 44.47-39.05 72.39-2.584.173-5.31.106-8.063-.348 0 0-8.37-7.854-13.951.614l.488 53.11c5.58 8.37 13.95.363 13.95.363 6.543-1.2 12.969-.214 17.682 1.035 21.544 43.765 73.61 74.335 134.156 73.781 79.35-.725 143.174-54.658 142.574-120.462-.544-65.805-65.414-118.593-144.75-117.84-21.011.199-40.933 4.125-58.859 11.011l.099-.046s-8.203-25.948-51.63-25.558Z" fill="url(#l)"/><path d="M73.421 225.359a9.25 9.25 0 0 1 7.966 4.422 9.293 9.293 0 0 0-8.41-13.745 9.286 9.286 0 0 0-7.924 4.886 9.293 9.293 0 0 0 .291 9.306 9.273 9.273 0 0 1 8.078-4.869Z" fill="#3E464F"/><path d="M205.714 170.868a7.51 7.51 0 0 1-3.702 3.985 7.51 7.51 0 0 1-5.422.437 110.913 110.913 0 0 0-61.563.572 7.522 7.522 0 0 1-9.208-4.269c-1.395-3.585.921-7.798 5.218-9.081a124.89 124.89 0 0 1 69.292-.628c4.325 1.2 6.696 5.371 5.385 8.984Z" fill="#B4597D"/><path d="M132.711 168.12a118.912 118.912 0 0 1 66.042-.6 7.168 7.168 0 0 1 5.329 5.873 6.588 6.588 0 0 0 1.632-2.525c1.311-3.613-1.06-7.784-5.385-8.984a124.89 124.89 0 0 0-69.292.628c-4.283 1.283-6.585 5.496-5.218 9.081a6.794 6.794 0 0 0 1.675 2.512 7.198 7.198 0 0 1 1.711-3.775 7.203 7.203 0 0 1 3.506-2.21Z" fill="#E16E9B"/><path d="M89.562 271.856c3.585 0 3.544-5.58 0-5.58-3.543 0-3.53 5.58 0 5.58ZM68.26 256.385c3.6 0 3.543-5.581 0-5.581-3.544 0-3.53 5.581 0 5.581ZM85.475 251.223c3.599 0 3.543-5.58 0-5.58-3.544 0-3.53 5.58 0 5.58ZM59.248 245.615a1.394 1.394 0 1 0 0-2.788 1.394 1.394 0 0 0 0 2.788ZM64.172 265.899v.544a1.393 1.393 0 0 0 1.395 1.395 1.394 1.394 0 0 0 1.395-1.395v-.558a1.397 1.397 0 0 0-2.381-.987 1.397 1.397 0 0 0-.409.987v.014ZM77.453 257.417v.488a1.397 1.397 0 0 0 1.395 1.395 1.397 1.397 0 0 0 1.395-1.395v-.418a1.397 1.397 0 0 0-2.381-.987 1.397 1.397 0 0 0-.409.987v.418a1.397 1.397 0 0 0 1.395 1.395 1.397 1.397 0 0 0 1.395-1.395v-.418a1.397 1.397 0 0 0-2.381-.987 1.397 1.397 0 0 0-.409.987v-.07ZM72.612 245.21c3.6 0 3.544-5.58 0-5.58-3.543 0-3.529 5.58 0 5.58ZM78.918 264.085h-.558a2.79 2.79 0 0 0 0 5.58h.558a2.787 2.787 0 0 0 2.79-2.79 2.792 2.792 0 0 0-2.79-2.79ZM83.703 239.546c3.585 0 3.543-5.58 0-5.58s-3.543 5.58 0 5.58ZM54.407 255.687h.558a1.397 1.397 0 0 0 1.395-1.395 1.393 1.393 0 0 0-1.395-1.395h-.558a1.394 1.394 0 0 0-1.395 1.395 1.397 1.397 0 0 0 1.395 1.395ZM94.473 260.877a1.394 1.394 0 0 0 1.395-1.396 1.394 1.394 0 1 0-1.395 1.396ZM94.863 236.98a1.394 1.394 0 0 0 .987-2.382 1.394 1.394 0 1 0-1.973 1.973c.262.262.616.409.986.409ZM103.234 244.652a1.397 1.397 0 0 0 1.395-1.395 1.393 1.393 0 0 0-1.395-1.395 1.396 1.396 0 0 0 0 2.79ZM54.407 268.493a1.397 1.397 0 0 0 1.395-1.395 1.393 1.393 0 0 0-1.395-1.395 1.394 1.394 0 0 0-1.395 1.395 1.397 1.397 0 0 0 1.395 1.395ZM69.557 276.697a1.394 1.394 0 1 0 0-2.788 1.394 1.394 0 0 0 0 2.788ZM84.875 277.436v-1.116a1.397 1.397 0 0 0-1.395-1.395 1.397 1.397 0 0 0-1.395 1.395v1.116a1.393 1.393 0 0 0 1.395 1.395 1.394 1.394 0 0 0 1.395-1.395Z" fill="#DADADA" style="mix-blend-mode:multiply"/><circle cx="164.355" cy="190.278" r="34.278" fill="url(#m)"/><circle cx="164.355" cy="190.278" r="27.505" stroke="#fff" stroke-width="2"/><path d="M155.805 205.06v-4.431h-3.312v-4.016h3.312v-3.229h-3.312v-5.135h3.312v-12.752h9.441c3.809 0 6.583.772 8.322 2.318 1.767 1.546 2.65 3.671 2.65 6.377a9.795 9.795 0 0 1-1.077 4.513c-.717 1.408-1.918 2.539-3.602 3.395-1.656.856-3.92 1.284-6.79 1.284h-2.692v3.229h6.377v4.016h-6.377v4.431h-6.252Zm6.252-16.811h2.071c1.766 0 3.16-.303 4.182-.911 1.048-.607 1.573-1.587 1.573-2.939 0-2.512-1.656-3.768-4.969-3.768h-2.857v7.618Z" fill="#fff"/><path fill-rule="evenodd" clip-rule="evenodd" d="M202.012 174.853a7.51 7.51 0 0 0 3.702-3.985c.759-2.091.284-4.369-1.089-6.15 34.13 4.729 58.077 15.796 58.077 28.694 0 17.201-42.584 31.144-95.115 31.144-52.53 0-95.114-13.943-95.114-31.144 0-12.437 22.264-23.171 54.454-28.162-1.449 1.832-1.942 4.2-1.108 6.344a7.52 7.52 0 0 0 9.208 4.268 110.913 110.913 0 0 1 61.563-.572 7.51 7.51 0 0 0 5.422-.437Z" fill="url(#n)"/><defs><linearGradient id="a" x1="365.435" y1="77.239" x2="366.092" y2="121.86" gradientUnits="userSpaceOnUse"><stop stop-color="#6FC7A1"/><stop offset="1" stop-color="#DBFBDF"/></linearGradient><linearGradient id="b" x1="297.085" y1="0" x2="297.085" y2="175.342" gradientUnits="userSpaceOnUse"><stop stop-color="#DBFBDF"/><stop offset="1" stop-color="#6FC7A1"/></linearGradient><linearGradient id="c" x1="297.085" y1="0" x2="297.085" y2="175.342" gradientUnits="userSpaceOnUse"><stop stop-color="#DBFBDF"/><stop offset="1" stop-color="#6FC7A1"/></linearGradient><linearGradient id="e" x1="276.504" y1="-7.658" x2="276.504" y2="199.342" gradientUnits="userSpaceOnUse"><stop stop-color="#A4E4C8"/><stop offset="1" stop-color="#4FA77F"/></linearGradient><linearGradient id="f" x1="319.853" y1="-7.658" x2="319.853" y2="199.342" gradientUnits="userSpaceOnUse"><stop stop-color="#A4E4C8"/><stop offset="1" stop-color="#4FA77F"/></linearGradient><linearGradient id="g" x1="297.5" y1="-7.658" x2="297.5" y2="175.342" gradientUnits="userSpaceOnUse"><stop stop-color="#A4E4C8"/><stop offset="1" stop-color="#4FA77F"/></linearGradient><linearGradient id="h" x1="297.56" y1="251.271" x2="297.56" y2="386.471" gradientUnits="userSpaceOnUse"><stop stop-color="#00B8F0"/><stop offset="0" stop-color="#00B8F0"/><stop offset=".74" stop-color="#B2EEFC"/></linearGradient><linearGradient id="i" x1="306.35" y1="259.167" x2="342.62" y2="237.891" gradientUnits="userSpaceOnUse"><stop stop-color="#FA9EC2"/><stop offset="1" stop-color="#FFDBEB"/></linearGradient><linearGradient id="j" x1="104.21" y1="350.76" x2="104.21" y2="409.547" gradientUnits="userSpaceOnUse"><stop stop-color="#FA9EC2"/><stop offset="1" stop-color="#FFDBEB"/></linearGradient><linearGradient id="k" x1="225.663" y1="349.658" x2="225.663" y2="408.431" gradientUnits="userSpaceOnUse"><stop stop-color="#FA9EC2"/><stop offset="1" stop-color="#FFDBEB"/></linearGradient><linearGradient id="l" x1="154.427" y1="126.766" x2="154.427" y2="379.673" gradientUnits="userSpaceOnUse"><stop stop-color="#FA9EC2"/><stop offset="1" stop-color="#FFDBEB"/></linearGradient><linearGradient id="m" x1="164.355" y1="156" x2="164.355" y2="224.556" gradientUnits="userSpaceOnUse"><stop stop-color="#FFD08A"/><stop offset="1" stop-color="#F2AA3D"/></linearGradient><linearGradient id="n" x1="161" y1="139.342" x2="161" y2="380.342" gradientUnits="userSpaceOnUse"><stop stop-color="#FA9EC2"/><stop offset="1" stop-color="#FFDBEB"/></linearGradient></defs></svg>