<svg width="74" height="74" fill="none" xmlns="http://www.w3.org/2000/svg"><path d="M35.938 48.1c.068-.002.137-.002.206-.002 4.406 0 7.978 3.558 7.978 7.948a7.892 7.892 0 0 1-1.363 4.444 7.974 7.974 0 0 1-6.615 3.504c-4.405 0-7.977-3.558-7.977-7.948 0-4.32 3.46-7.836 7.77-7.946Z" fill="url(#a)"/><path d="M36.148 5.624a4.729 4.729 0 0 1 4.635 3.787 4.715 4.715 0 0 1-4.098 5.612 4.73 4.73 0 0 1-5.179-3.755 4.715 4.715 0 0 1 3.706-5.55c.314-.064.627-.094.936-.094Z" fill="url(#b)"/><path d="m58.74 45.324 1.237 1.027a6.443 6.443 0 0 1 2.328 4.954v.065a5.604 5.604 0 0 1-.005.239c-.126 3.412-2.942 6.14-6.398 6.14H16.387c-3.536 0-6.402-2.857-6.402-6.38 0-1.95.886-3.795 2.41-5.02l1.269-1.02a12.414 12.414 0 0 0 4.643-9.676v-6.704c0-8.876 6.48-16.243 14.983-17.662a18.106 18.106 0 0 1 2.99-.248c9.617 0 17.47 7.525 17.95 16.987a18.388 18.388 0 0 1 .024.923v6.828a12.184 12.184 0 0 0 .02.688 12.417 12.417 0 0 0 4.466 8.859Z" fill="url(#c)"/><path d="M63.673 19.027c0-5.967-4.837-10.805-10.805-10.805-5.967 0-10.805 4.838-10.805 10.806 0 5.967 4.838 10.805 10.805 10.805 5.968 0 10.805-4.838 10.805-10.805Z" fill="url(#d)"/><path d="M53.074 23.939c-.43 0-.777-.329-.777-.735v-7.083l-.29.25a.808.808 0 0 1-1.097-.048.707.707 0 0 1 .05-1.037l1.59-1.371a.812.812 0 0 1 .838-.13c.281.118.462.381.462.673v8.746c0 .406-.347.735-.776.735Z" fill="#fff"/><defs><linearGradient id="a" x1="36.145" y1="48.098" x2="36.145" y2="63.995" gradientUnits="userSpaceOnUse"><stop stop-color="#1792C7"/><stop offset="1" stop-color="#00B8F0"/></linearGradient><linearGradient id="b" x1="36.145" y1="5.624" x2="36.145" y2="15.055" gradientUnits="userSpaceOnUse"><stop stop-color="#1792C7"/><stop offset="1" stop-color="#00B8F0"/></linearGradient><linearGradient id="c" x1="36.145" y1="11.039" x2="36.145" y2="57.748" gradientUnits="userSpaceOnUse"><stop stop-color="#00B8F0"/><stop offset="0" stop-color="#00B8F0"/><stop offset=".74" stop-color="#B2EEFC"/></linearGradient><linearGradient id="d" x1="52.868" y1="8.222" x2="52.868" y2="29.833" gradientUnits="userSpaceOnUse"><stop stop-color="#F86CA2"/><stop offset="1" stop-color="#FA9EC2"/></linearGradient></defs></svg>