<svg width="417" height="427" fill="none" xmlns="http://www.w3.org/2000/svg"><path d="M128.209 405.049v-55.611H86.66v-50.413h41.549v-40.538H86.66v-64.446h41.549V33.966h118.415c47.781 0 82.578 9.701 104.392 29.104 22.159 19.403 33.239 46.083 33.239 80.038 0 20.096-4.501 38.979-13.504 56.65-9.002 17.67-24.064 31.876-45.184 42.617-20.775 10.741-49.166 16.112-85.176 16.112h-33.758v40.538h79.982v50.413h-79.982v55.611h-78.424Zm78.424-211.008h25.968c22.159 0 39.645-3.811 52.456-11.434 13.157-7.623 19.735-19.923 19.735-36.9 0-31.53-20.774-47.295-62.323-47.295h-35.836v95.629Z" fill="url(#a)"/><path fill-rule="evenodd" clip-rule="evenodd" d="M339.884 392.252a2 2 0 0 1 2 2v25.006a2 2 0 0 1-2 2h-29.382l-2.695 4.73a.5.5 0 0 1-.867.004l-2.748-4.734h-6.52a2 2 0 0 1-2-2v-25.006a2 2 0 0 1 2-2h42.212Z" fill="url(#b)"/><path transform="matrix(.99945 -.03323 .02915 .99957 259.983 409.776)" stroke="#FEF97A" stroke-width="2" stroke-linecap="round" stroke-linejoin="round" d="M1-1h20.353"/><path transform="matrix(.9974 -.07217 .06336 .998 269.229 416.721)" stroke="#FEF97A" stroke-width="2" stroke-linecap="round" stroke-linejoin="round" d="M1-1h9.243"/><path transform="matrix(.9974 -.07217 .06336 .998 270.569 402.003)" stroke="#FEF97A" stroke-width="2" stroke-linecap="round" stroke-linejoin="round" d="M1-1h9.243"/><path d="M337.007 268.888c-.277-.504-.791-.791-1.406-.791h-7.561c-.903 0-1.84.624-2.23 1.486l-8.019 17.663c-.261.576-.245 1.187.039 1.672.287.489.795.773 1.396.787l5.934.079-4.295 11.389c-.106.284-.328.879.068 1.491.173.268.47.433.775.433h.069c.58 0 .929-.466 1.097-.691l13.88-18.486c.593-.788.348-1.494.259-1.7-.093-.197-.466-.842-1.412-.842h-4.417l5.78-10.801c.303-.57.32-1.187.043-1.689Z" fill="#FEF97A"/><path fill-rule="evenodd" clip-rule="evenodd" d="M43.003 88.48a2 2 0 0 1 2 2v10.093a2 2 0 0 1-2 2h-14.86l-1.26 2a.5.5 0 0 1-.845.003l-1.286-2.003h-2.577a2 2 0 0 1-2-2V90.48a2 2 0 0 1 2-2h20.828Z" fill="url(#c)"/><path transform="rotate(-1.721 3229.846 15.208) skewX(.128)" stroke="#FEF97A" stroke-linecap="round" stroke-linejoin="round" d="M.5-.5h11.008"/><path transform="matrix(.99787 -.0653 .07003 .99755 5.968 100.368)" stroke="#FEF97A" stroke-linecap="round" stroke-linejoin="round" d="M.5-.5h5.038"/><path transform="matrix(.99787 -.06527 .07007 .99754 6.688 93.217)" stroke="#FEF97A" stroke-linecap="round" stroke-linejoin="round" d="M.5-.5h5.038"/><path d="M96.263 1.634c-.277-.456-.79-.716-1.407-.716h-7.56c-.903 0-1.84.565-2.23 1.344l-8.019 15.973c-.262.52-.245 1.073.04 1.512.286.442.793.7 1.395.712l5.934.071-4.295 10.3c-.106.256-.328.795.067 1.348.173.243.47.391.776.391h.07c.579 0 .928-.422 1.096-.625l13.88-16.717c.592-.712.348-1.351.258-1.537-.093-.178-.465-.762-1.411-.762H90.44l5.78-9.767c.303-.515.32-1.073.043-1.527Z" fill="#FEF97A"/><g clip-path="url(#d)"><path d="M51.696 169.139c-.193-.299-.551-.47-.98-.47h-5.27c-.63 0-1.283.371-1.554.883l-5.589 10.497c-.182.342-.171.705.027.993.2.291.554.46.973.468l4.136.047-2.994 6.768c-.074.169-.228.523.047.886.12.16.328.257.54.257h.05c.403 0 .646-.277.763-.41l9.675-10.986c.412-.468.242-.888.18-1.01-.065-.117-.325-.501-.984-.501h-3.078l4.028-6.418c.211-.339.223-.705.03-1.004Z" fill="#FEF97A"/></g><path fill-rule="evenodd" clip-rule="evenodd" d="M384.134 340.918a4 4 0 0 0-4 4v12.901a4 4 0 0 0 4 4h21.006l1.653 2.623a1 1 0 0 0 1.687.007l1.688-2.63h2.79a4 4 0 0 0 4-4v-12.901a4 4 0 0 0-4-4h-28.824Z" fill="url(#e)"/><path transform="rotate(-1.723 11939.075 -11339.692) skewX(.126)" stroke="#FEF97A" stroke-linecap="round" stroke-linejoin="round" d="M.5-.5h23.002"/><path transform="matrix(.99787 -.0653 .07003 .99755 356.056 360.359)" stroke="#FEF97A" stroke-linecap="round" stroke-linejoin="round" d="M.5-.5h11.067"/><path transform="matrix(.99787 -.0653 .07003 .99755 357.495 346.066)" stroke="#FEF97A" stroke-linecap="round" stroke-linejoin="round" d="M.5-.5h11.067"/><defs><linearGradient id="a" x1="235.457" y1="33.966" x2="235.457" y2="405.049" gradientUnits="userSpaceOnUse"><stop stop-color="#00B8F0"/><stop offset="0" stop-color="#00B8F0"/><stop offset=".74" stop-color="#B2EEFC"/></linearGradient><linearGradient id="b" x1="318.778" y1="392.252" x2="318.778" y2="426.241" gradientUnits="userSpaceOnUse"><stop stop-color="#00B8F0"/><stop offset="0" stop-color="#00B8F0"/><stop offset=".74" stop-color="#B2EEFC"/></linearGradient><linearGradient id="c" x1="32.589" y1="88.48" x2="32.589" y2="104.806" gradientUnits="userSpaceOnUse"><stop stop-color="#00B8F0"/><stop offset="0" stop-color="#00B8F0"/><stop offset=".74" stop-color="#B2EEFC"/></linearGradient><linearGradient id="e" x1="398.546" y1="340.918" x2="398.546" y2="364.909" gradientUnits="userSpaceOnUse"><stop stop-color="#6FC7A1"/><stop offset="1" stop-color="#DBFBDF"/></linearGradient><clipPath id="d"><path fill="#fff" transform="translate(33.503 168.669)" d="M0 0h23v20.799H0z"/></clipPath></defs></svg>