<svg width="422" height="361" fill="none" xmlns="http://www.w3.org/2000/svg"><mask id="a" style="mask-type:alpha" maskUnits="userSpaceOnUse" x="0" y="0" width="207" height="240"><path d="M103.443 239.501c-5.2 0-8.666-1.574-9.08-1.725C93.344 237.407 0 200.5 0 87.227V4.453C0 2.458 1.654.838 3.693.838h199.42c2.038 0 3.692 1.967 3.692 3.615v82.774c0 106.79-82.517 145.699-92.816 150.118-.712.305-1.389.617-2.133.833-1.919.557-5.795 1.323-8.413 1.323Z" fill="#fff"/></mask><g mask="url(#a)"><path d="m241.362 40.943 43.995 33.03c10.388 8.844 13.365 22.449 1.065 31.903L120.856 292.48c-6.198 6.066-9.542 9.705-17.105 9.908l-.988-147.438L206.147 44.171c7.258-9.319 24.828-12.072 35.215-3.228Z" fill="url(#b)"/><path d="M-36.372 42.444-79.92 75.947c-10.269 8.956-13.063 22.593-.637 31.913L87.499 292.661c6.28 5.998 9.672 9.6 17.237 9.722l-.989-147.438L-1.116 45.292c-7.382-9.24-24.988-11.803-35.256-2.848Z" fill="url(#c)"/><path d="m240.585-74.999 43.995 33.03c10.388 8.844 13.365 22.45 1.065 31.904L120.079 176.54c-6.198 6.066-9.542 9.704-17.105 9.908l-.988-147.438L205.37-71.771c7.258-9.318 24.828-12.072 35.215-3.228Z" fill="url(#d)"/><path d="m-37.15-73.497-43.548 33.503C-90.966-31.038-93.761-17.4-81.335-8.08L86.72 176.72c6.28 5.998 9.672 9.6 17.237 9.722l-.989-147.438L-1.893-70.649c-7.383-9.24-24.988-11.803-35.256-2.848Z" fill="url(#e)"/><path d="m239.837-186.538 43.995 33.03c10.387 8.844 13.365 22.449 1.065 31.904L119.331 65c-6.198 6.066-9.542 9.704-17.105 9.908l-.988-147.438L204.622-183.31c7.258-9.319 24.828-12.073 35.215-3.229Z" fill="url(#f)"/><path d="m-37.897-185.036-43.549 33.503c-10.268 8.956-13.063 22.593-.637 31.913L85.973 65.18c6.28 6 9.672 9.601 17.237 9.723l-.989-147.438L-2.641-182.188c-7.383-9.24-24.988-11.803-35.256-2.848Z" fill="url(#g)"/></g><path d="M282.618 212.836h-20.631V100.568a47.933 47.933 0 0 0-14.05-33.902 47.983 47.983 0 0 0-67.839 0 47.933 47.933 0 0 0-14.05 33.902v112.268h-20.632V100.568a68.55 68.55 0 0 1 20.093-48.484 68.618 68.618 0 0 1 48.508-20.082 68.618 68.618 0 0 1 48.508 20.082 68.55 68.55 0 0 1 20.093 48.484v112.268Z" fill="url(#h)"/><path opacity=".4" d="M282.618 212.836h-20.631V100.568a47.933 47.933 0 0 0-14.05-33.902 47.983 47.983 0 0 0-67.839 0 47.933 47.933 0 0 0-14.05 33.902v112.268h-20.632V100.568a68.55 68.55 0 0 1 20.093-48.484 68.618 68.618 0 0 1 48.508-20.082 68.618 68.618 0 0 1 48.508 20.082 68.55 68.55 0 0 1 20.093 48.484v112.268Z" fill="url(#i)"/><path d="M296.89 162.876H131.161c-5.3 0-9.597 4.295-9.597 9.593v99.39c0 5.297 4.297 9.592 9.597 9.592H296.89c5.3 0 9.597-4.295 9.597-9.592v-99.39c0-5.298-4.297-9.593-9.597-9.593Z" fill="url(#j)"/><path d="M229.478 206.727a15.449 15.449 0 0 0-8.567-13.842 15.465 15.465 0 0 0-21.314 8.258 15.452 15.452 0 0 0 3.005 15.997 15.466 15.466 0 0 0 7.203 4.446V244.7h8.424v-23.114a15.43 15.43 0 0 0 8.124-5.539 15.412 15.412 0 0 0 3.125-9.32Z" fill="#2D3238" opacity=".5"/><path d="M15.12 297.994a7.118 7.118 0 0 0 7.119-7.116 7.117 7.117 0 0 0-7.12-7.115A7.118 7.118 0 0 0 8 290.878a7.118 7.118 0 0 0 7.12 7.116Z" fill="url(#k)"/><path d="M422 65.27a7.113 7.113 0 0 1-4.406 6.562 7.125 7.125 0 0 1-7.753-1.553 7.113 7.113 0 0 1 1.086-10.944A7.12 7.12 0 0 1 422 65.27Z" fill="url(#l)"/><path d="M65.137 309.238a1.817 1.817 0 1 1-1.817-1.817 1.814 1.814 0 0 1 1.29.527 1.815 1.815 0 0 1 .527 1.29Z" fill="url(#m)"/><path d="M103.807 109.78c0 .36-.107.711-.307 1.009a1.815 1.815 0 1 1-2.52-2.519 1.818 1.818 0 0 1 2.827 1.51Z" fill="url(#n)"/><path d="M386.271 206.743a1.817 1.817 0 1 1-1.817-1.816 1.809 1.809 0 0 1 1.683 1.119c.09.221.136.458.134.697Z" fill="url(#o)"/><path d="M411.379 122.394a1.821 1.821 0 0 1-2.162 1.8 1.82 1.82 0 0 1-1.336-2.474 1.815 1.815 0 0 1 1.681-1.125 1.819 1.819 0 0 1 1.817 1.799Z" fill="url(#p)"/><defs><linearGradient id="b" x1="193.759" y1="36.416" x2="200.846" y2="299.775" gradientUnits="userSpaceOnUse"><stop stop-color="#00B8F0"/><stop offset="0" stop-color="#00B8F0"/><stop offset=".74" stop-color="#B2EEFC"/></linearGradient><linearGradient id="c" x1="11.168" y1="37.403" x2="6.929" y2="300.809" gradientUnits="userSpaceOnUse"><stop stop-color="#00B8F0"/><stop offset="0" stop-color="#00B8F0"/><stop offset=".74" stop-color="#B2EEFC"/></linearGradient><linearGradient id="d" x1="192.982" y1="-79.526" x2="200.069" y2="183.834" gradientUnits="userSpaceOnUse"><stop stop-color="#00B8F0"/><stop offset="0" stop-color="#00B8F0"/><stop offset=".74" stop-color="#B2EEFC"/></linearGradient><linearGradient id="e" x1="10.39" y1="-78.538" x2="6.151" y2="184.868" gradientUnits="userSpaceOnUse"><stop stop-color="#00B8F0"/><stop offset="0" stop-color="#00B8F0"/><stop offset=".74" stop-color="#B2EEFC"/></linearGradient><linearGradient id="f" x1="192.234" y1="-191.065" x2="199.321" y2="72.295" gradientUnits="userSpaceOnUse"><stop stop-color="#00B8F0"/><stop offset="0" stop-color="#00B8F0"/><stop offset=".74" stop-color="#B2EEFC"/></linearGradient><linearGradient id="g" x1="9.642" y1="-190.077" x2="5.403" y2="73.329" gradientUnits="userSpaceOnUse"><stop stop-color="#00B8F0"/><stop offset="0" stop-color="#00B8F0"/><stop offset=".74" stop-color="#B2EEFC"/></linearGradient><linearGradient id="h" x1="214.017" y1="32.002" x2="214.017" y2="212.836" gradientUnits="userSpaceOnUse"><stop stop-color="#6FC7A1"/><stop offset="1" stop-color="#DBFBDF"/></linearGradient><linearGradient id="i" x1="214.017" y1="32.002" x2="214.017" y2="212.836" gradientUnits="userSpaceOnUse"><stop stop-color="#6FC7A1"/><stop offset="1" stop-color="#DBFBDF"/></linearGradient><linearGradient id="j" x1="214.025" y1="162.876" x2="214.025" y2="281.451" gradientUnits="userSpaceOnUse"><stop stop-color="#19C6C8"/><stop offset="1" stop-color="#6FC7A1"/></linearGradient><linearGradient id="k" x1="15.119" y1="283.763" x2="15.119" y2="297.994" gradientUnits="userSpaceOnUse"><stop stop-color="#1792C7"/><stop offset="1" stop-color="#00B8F0"/></linearGradient><linearGradient id="l" x1="414.881" y1="58.137" x2="414.881" y2="72.369" gradientUnits="userSpaceOnUse"><stop stop-color="#1792C7"/><stop offset="1" stop-color="#00B8F0"/></linearGradient><linearGradient id="m" x1="63.32" y1="307.421" x2="63.32" y2="311.054" gradientUnits="userSpaceOnUse"><stop stop-color="#1792C7"/><stop offset="1" stop-color="#00B8F0"/></linearGradient><linearGradient id="n" x1="101.99" y1="107.964" x2="101.99" y2="111.597" gradientUnits="userSpaceOnUse"><stop stop-color="#1792C7"/><stop offset="1" stop-color="#00B8F0"/></linearGradient><linearGradient id="o" x1="384.454" y1="204.927" x2="384.454" y2="208.56" gradientUnits="userSpaceOnUse"><stop stop-color="#1792C7"/><stop offset="1" stop-color="#00B8F0"/></linearGradient><linearGradient id="p" x1="409.562" y1="120.595" x2="409.562" y2="124.227" gradientUnits="userSpaceOnUse"><stop stop-color="#1792C7"/><stop offset="1" stop-color="#00B8F0"/></linearGradient></defs></svg>