<svg width="1098" height="295" viewBox="0 0 1098 295" fill="none" xmlns="http://www.w3.org/2000/svg">
<rect y="0.0654297" width="1098" height="294" fill="#F3F9FF"/>
<mask id="mask0_1503_293" style="mask-type:alpha" maskUnits="userSpaceOnUse" x="0" y="0" width="1098" height="295">
<rect y="0.0654297" width="1098" height="294" fill="#E8F4F7"/>
</mask>
<g mask="url(#mask0_1503_293)">
<path d="M754.522 21.1777V368.584" stroke="#3898FE" stroke-opacity="0.187528" stroke-linecap="square"/>
<path d="M824.522 89.1777V436.584" stroke="#3898FE" stroke-opacity="0.187528" stroke-linecap="square"/>
<path d="M1014.43 88.5654H667.022" stroke="#3898FE" stroke-opacity="0.187528" stroke-linecap="square"/>
<path d="M1014.43 155.565H667.022" stroke="#3898FE" stroke-opacity="0.187528" stroke-linecap="square" stroke-dasharray="1 1 1"/>
<path d="M894.522 21.1777V368.584" stroke="#3898FE" stroke-opacity="0.187528" stroke-linecap="square"/>
<path d="M964.522 21.1777V368.584" stroke="#3898FE" stroke-opacity="0.187528" stroke-linecap="square"/>
</g>
<path d="M100.88 95.9181L102.96 90.3581H113.92L116.12 95.9181H123.72L111.96 67.5981H105.32L93.44 95.9181H100.88ZM104.92 84.8781L108.52 75.1581L112.04 84.8781H104.92ZM138.207 95.9181C140.807 95.9181 142.847 95.4381 144.367 94.4781C145.847 93.5181 146.607 92.1981 146.607 90.5981C146.607 89.7981 146.447 89.0781 146.167 88.4781C145.847 87.9181 145.447 87.4381 144.967 87.0381C144.487 86.6781 143.887 86.3981 143.247 86.1981C142.567 85.9981 141.887 85.8781 141.167 85.7981C141.727 85.6381 142.287 85.4781 142.847 85.2781C143.407 85.0781 143.887 84.7981 144.287 84.4781C144.687 84.1581 145.007 83.7181 145.247 83.2381C145.487 82.7581 145.607 82.1181 145.607 81.3581C145.607 79.7581 144.887 78.4381 143.527 77.4781C142.167 76.5181 140.207 75.9981 137.687 75.9981H126.687V95.9181H138.207ZM133.247 91.4381V87.7581H135.767C136.287 87.7581 136.807 87.7981 137.327 87.7981C137.807 87.8381 138.287 87.9181 138.687 88.0381C139.087 88.1581 139.407 88.3581 139.647 88.5981C139.887 88.8781 140.007 89.2381 140.007 89.6781C140.007 90.1581 139.887 90.4781 139.647 90.7181C139.407 90.9581 139.087 91.1581 138.687 91.2381C138.287 91.3581 137.807 91.4381 137.287 91.4381C136.767 91.4381 136.247 91.4381 135.727 91.4381H133.247ZM135.887 83.9581H133.247V80.4781H135.807C136.687 80.4781 137.447 80.5981 138.127 80.7981C138.767 81.0381 139.127 81.5181 139.127 82.2381C139.127 82.6381 139.007 82.9181 138.847 83.1581C138.687 83.3981 138.447 83.5581 138.127 83.6781C137.807 83.7981 137.487 83.8781 137.087 83.9181C136.687 83.9581 136.287 83.9581 135.887 83.9581ZM149.194 75.9981V81.0781H154.714V95.9181H161.274V81.0781H166.834V75.9981H149.194ZM192.358 85.8781C192.358 84.2781 192.038 82.7981 191.478 81.4781C190.878 80.1981 190.078 79.0781 189.078 78.1581C188.038 77.2781 186.878 76.5581 185.558 76.0781C184.198 75.5981 182.798 75.3581 181.278 75.3581C179.758 75.3581 178.358 75.5981 176.998 76.0781C175.638 76.5581 174.478 77.2781 173.478 78.1581C172.478 79.0781 171.678 80.1981 171.118 81.4781C170.518 82.7981 170.238 84.2781 170.238 85.8781C170.238 87.5181 170.518 88.9981 171.118 90.3181C171.678 91.6381 172.478 92.7581 173.478 93.6781C174.478 94.5981 175.638 95.3181 176.998 95.7981C178.358 96.3181 179.758 96.5581 181.278 96.5581C182.798 96.5581 184.198 96.3181 185.558 95.7981C186.878 95.3181 188.038 94.5981 189.078 93.6781C190.078 92.7581 190.878 91.6381 191.478 90.3181C192.038 88.9981 192.358 87.5181 192.358 85.8781ZM186.038 85.8781C186.038 86.5181 185.918 87.1581 185.718 87.7581C185.518 88.3981 185.238 88.9581 184.838 89.4381C184.438 89.9181 183.918 90.3181 183.358 90.5981C182.758 90.9181 182.078 91.0381 181.318 91.0381C180.518 91.0381 179.838 90.9181 179.278 90.5981C178.678 90.3181 178.198 89.9181 177.798 89.4381C177.398 88.9581 177.078 88.3981 176.878 87.7581C176.678 87.1581 176.598 86.5181 176.598 85.8781C176.598 85.2381 176.678 84.6381 176.878 83.9981C177.078 83.3981 177.358 82.8781 177.758 82.3981C178.158 81.9181 178.638 81.5581 179.238 81.2381C179.798 80.9581 180.478 80.7981 181.278 80.7981C182.038 80.7981 182.718 80.9581 183.318 81.2381C183.878 81.5581 184.398 81.9181 184.798 82.3981C185.198 82.8781 185.478 83.3981 185.718 83.9981C185.918 84.6381 186.038 85.2381 186.038 85.8781ZM203.256 75.9981H197.496V95.9181H204.056V85.1581L209.256 92.1181H210.376L215.536 85.0781V95.9181H222.096V75.9981H216.336L209.856 84.0381L203.256 75.9981ZM239.968 87.2381V87.9181C239.968 89.1981 239.608 90.1981 238.888 90.9181C238.168 91.6381 237.168 91.9981 235.848 91.9981C235.528 91.9981 235.168 91.9981 234.848 91.9181C234.488 91.8381 234.168 91.7181 233.928 91.5581C233.648 91.3981 233.408 91.1981 233.248 90.9181C233.088 90.6781 233.008 90.3581 233.008 89.9581C233.008 89.3981 233.168 88.9181 233.568 88.5581C233.928 88.1981 234.408 87.9181 234.968 87.7181C235.528 87.5581 236.208 87.4381 236.928 87.3581C237.648 87.2781 238.408 87.2381 239.128 87.2381H239.968ZM227.928 78.7181L231.248 82.2781C231.848 81.7181 232.568 81.2381 233.448 80.8381C234.328 80.4381 235.208 80.2381 236.168 80.2381C237.168 80.2381 238.008 80.4781 238.728 80.9581C239.408 81.4381 239.768 82.1581 239.768 83.1181V83.4381C238.328 83.4381 236.848 83.5181 235.328 83.6781C233.808 83.8381 232.408 84.1581 231.168 84.6381C229.928 85.1181 228.928 85.7981 228.128 86.6781C227.328 87.5581 226.968 88.7181 226.968 90.1581C226.968 91.3581 227.168 92.3181 227.648 93.1181C228.088 93.9181 228.648 94.5581 229.368 95.0381C230.088 95.5181 230.848 95.8781 231.728 96.0781C232.568 96.3181 233.408 96.3981 234.208 96.3981C235.408 96.3981 236.488 96.1981 237.528 95.7181C238.568 95.2781 239.328 94.6381 239.848 93.7981H239.968V95.9181H245.968V85.8781C245.968 84.0781 245.768 82.5181 245.448 81.1981C245.128 79.8781 244.608 78.7981 243.888 77.9181C243.168 77.0381 242.208 76.3981 241.048 75.9981C239.888 75.5981 238.488 75.3581 236.808 75.3581C235.168 75.3581 233.568 75.6381 232.008 76.1981C230.448 76.7581 229.088 77.5981 227.928 78.7181ZM250.091 75.9981V81.0781H255.611V95.9181H262.171V81.0781H267.731V75.9981H250.091ZM287.414 84.3981V95.9181H293.974V75.9981H287.414L278.654 87.4381V75.9981H272.094V95.9181H278.654L287.414 84.3981ZM301.393 82.3981C301.633 81.9581 301.953 81.5581 302.353 81.1981C302.673 80.9181 303.113 80.6381 303.673 80.3581C304.193 80.1181 304.833 79.9581 305.633 79.9581C306.913 79.9581 307.873 80.1981 308.553 80.6381C309.193 81.1181 309.553 81.6381 309.553 82.2381C309.553 82.5981 309.433 82.8781 309.233 83.0781C309.033 83.2781 308.753 83.4381 308.393 83.5181C308.033 83.6381 307.593 83.7181 307.113 83.7581C306.633 83.7981 306.113 83.7981 305.553 83.7981H302.273V87.8781H305.553C306.113 87.8781 306.633 87.9181 307.193 87.9581C307.713 88.0381 308.193 88.1181 308.633 88.2781C309.073 88.4381 309.433 88.6381 309.713 88.8781C309.953 89.1181 310.113 89.4381 310.113 89.7981C310.113 90.5181 309.753 90.9981 309.033 91.3181C308.313 91.6381 307.353 91.7581 306.153 91.7581C305.593 91.7581 304.993 91.7181 304.433 91.5581C303.873 91.4381 303.313 91.2781 302.833 91.0781C302.353 90.9181 301.913 90.7181 301.513 90.4781C301.113 90.2381 300.793 90.0381 300.553 89.8381L297.713 93.7581C297.993 93.9981 298.393 94.3181 298.873 94.6381C299.353 94.9581 299.993 95.2781 300.713 95.5981C301.433 95.9181 302.313 96.1581 303.273 96.3981C304.233 96.6381 305.353 96.7181 306.633 96.7181C307.993 96.7181 309.313 96.6381 310.513 96.4381C311.713 96.2381 312.793 95.9181 313.673 95.4381C314.553 94.9981 315.273 94.3981 315.793 93.6381C316.273 92.8781 316.553 91.9581 316.553 90.8381C316.553 90.0381 316.393 89.3581 316.073 88.7581C315.753 88.1581 315.353 87.6381 314.913 87.2381C314.433 86.8381 313.953 86.5181 313.433 86.2781C312.873 86.0381 312.433 85.9181 312.033 85.8381V85.7181C312.433 85.5581 312.833 85.3581 313.233 85.1181C313.633 84.8781 314.033 84.5581 314.393 84.1581C314.753 83.7981 315.033 83.3581 315.273 82.7981C315.513 82.2781 315.633 81.6381 315.633 80.9181C315.633 79.1181 314.833 77.7181 313.233 76.7181C311.633 75.7581 309.433 75.2381 306.593 75.2381C305.193 75.2381 303.993 75.3981 302.993 75.6781C301.953 75.9581 301.113 76.3181 300.393 76.7581C299.673 77.1981 299.113 77.6781 298.673 78.1581C298.233 78.6781 297.913 79.1581 297.673 79.5981L301.393 82.3981ZM336.222 84.3981V95.9181H342.782V75.9981H336.222L327.462 87.4381V75.9981H320.902V95.9181H327.462L336.222 84.3981ZM371.04 85.8781C371.04 84.5181 370.8 83.1981 370.36 81.9181C369.92 80.6381 369.28 79.5181 368.48 78.5581C367.68 77.5981 366.68 76.8381 365.52 76.2781C364.32 75.7181 363.04 75.4381 361.6 75.4381C360.12 75.4381 358.84 75.7581 357.76 76.3581C356.68 76.9581 355.84 77.6381 355.24 78.4381H355.12V75.9981H348.88V105.518H355.44V93.7181H355.52C356.12 94.5981 356.96 95.2781 358.08 95.7581C359.16 96.2381 360.32 96.4781 361.56 96.4781C363.04 96.4781 364.36 96.1981 365.56 95.5981C366.72 95.0381 367.72 94.2381 368.52 93.2781C369.32 92.3181 369.96 91.1581 370.4 89.8781C370.8 88.5981 371.04 87.2781 371.04 85.8781ZM364.68 85.8781C364.68 86.5181 364.56 87.1581 364.36 87.7981C364.16 88.4381 363.88 88.9581 363.48 89.4381C363.08 89.9181 362.6 90.3181 362.04 90.5981C361.44 90.9181 360.76 91.0381 360 91.0381C359.24 91.0381 358.56 90.9181 358 90.5981C357.4 90.3181 356.88 89.9181 356.48 89.4381C356.08 88.9581 355.76 88.4381 355.52 87.7981C355.28 87.1981 355.2 86.5581 355.2 85.9181C355.2 85.2781 355.28 84.6781 355.52 84.0381C355.76 83.4381 356.08 82.8781 356.48 82.3981C356.88 81.9181 357.4 81.5581 358 81.2381C358.56 80.9581 359.24 80.7981 360 80.7981C360.76 80.7981 361.44 80.9581 362.04 81.2381C362.6 81.5581 363.08 81.9181 363.48 82.3981C363.88 82.8781 364.16 83.3981 364.36 83.9981C364.56 84.6381 364.68 85.2381 364.68 85.8781ZM387.395 98.9181L396.315 75.9981H389.355L385.395 88.7981H385.275L380.835 75.9981H373.555L381.875 95.5981L381.235 97.2381C380.915 98.1181 380.515 98.7581 380.075 99.2381C379.595 99.7181 378.875 99.9181 377.875 99.9181C377.555 99.9181 377.195 99.9181 376.795 99.8381C376.395 99.7581 376.075 99.6781 375.755 99.5581L375.035 105.078C375.515 105.238 376.075 105.318 376.715 105.398C377.355 105.478 377.995 105.518 378.635 105.518C379.875 105.518 380.955 105.398 381.875 105.078C382.795 104.798 383.595 104.358 384.275 103.798C384.955 103.238 385.555 102.518 386.035 101.718C386.515 100.918 386.995 99.9581 387.395 98.9181ZM415.157 95.9181V84.3981L406.397 95.9181H399.837V75.9981H406.397V87.4381L415.157 75.9981H421.717V95.9181H415.157ZM409.157 67.4781L404.757 68.2381C405.157 69.9181 405.917 71.1981 407.077 72.0781C408.197 72.9981 409.677 73.4381 411.477 73.4381C413.157 73.4381 414.557 73.0381 415.717 72.1581C416.877 71.3181 417.717 69.9981 418.197 68.2381L413.797 67.4781C413.637 68.1181 413.357 68.6381 412.957 68.9981C412.517 69.3581 412.037 69.5181 411.477 69.5181C410.917 69.5181 410.397 69.3581 409.997 68.9981C409.557 68.6781 409.277 68.1581 409.157 67.4781ZM426.055 75.9981V81.0781H431.575V95.9181H438.135V81.0781H443.695V75.9981H426.055ZM461.779 83.6781H453.339C453.339 83.1981 453.499 82.7181 453.739 82.2381C453.979 81.7581 454.299 81.3581 454.699 80.9981C455.099 80.6781 455.539 80.3981 456.099 80.1981C456.619 79.9981 457.219 79.8781 457.859 79.8781C459.139 79.8781 460.139 80.2781 460.779 80.9981C461.419 81.7581 461.779 82.6381 461.779 83.6781ZM467.819 86.1981C467.819 84.5181 467.539 82.9981 467.059 81.6381C466.579 80.3181 465.899 79.1981 465.019 78.2381C464.139 77.3181 463.059 76.5981 461.859 76.1181C460.619 75.6381 459.259 75.3581 457.819 75.3581C456.299 75.3581 454.859 75.6381 453.579 76.1181C452.259 76.6381 451.139 77.3581 450.179 78.2781C449.219 79.1981 448.459 80.3181 447.899 81.6381C447.339 82.9581 447.059 84.4381 447.059 86.0381C447.059 87.7181 447.339 89.2381 447.899 90.5181C448.459 91.8381 449.259 92.9581 450.259 93.8381C451.259 94.7181 452.419 95.3981 453.779 95.8781C455.099 96.3581 456.499 96.5581 458.019 96.5581C460.019 96.5581 461.819 96.1981 463.339 95.4781C464.859 94.7581 466.099 93.6781 467.059 92.3181L462.499 89.4381C462.019 90.0781 461.459 90.5581 460.739 90.9581C460.019 91.3581 459.139 91.5181 458.099 91.5181C457.499 91.5181 456.939 91.4381 456.379 91.2381C455.819 91.0781 455.339 90.7981 454.899 90.4781C454.459 90.1581 454.099 89.7581 453.819 89.2781C453.539 88.8381 453.379 88.3181 453.339 87.7581H467.779C467.779 87.5181 467.819 87.2781 467.819 86.9981V86.1981ZM111.36 132.238C111.36 133.678 110.92 134.838 110.08 135.758C109.24 136.718 108.12 137.158 106.76 137.158C105.36 137.158 104.24 136.718 103.4 135.838C102.52 134.958 102.12 133.718 102.12 132.198C102.12 130.558 102.56 129.318 103.44 128.518C104.32 127.718 105.48 127.318 106.84 127.318C108.2 127.318 109.28 127.798 110.12 128.718C110.92 129.678 111.36 130.838 111.36 132.238ZM107.56 121.998C106.84 121.998 106.08 122.078 105.24 122.198C104.36 122.318 103.6 122.598 102.96 123.038C103.2 121.518 103.92 120.398 105.12 119.678C106.32 118.958 107.92 118.558 109.92 118.558H116.48V113.638H110C107.6 113.638 105.48 113.958 103.72 114.518C101.96 115.118 100.48 116.078 99.32 117.358C98.12 118.678 97.24 120.358 96.68 122.438C96.08 124.518 95.8 127.078 95.8 130.038C95.8 131.478 95.92 132.758 96.16 133.878C96.48 135.318 96.96 136.598 97.6 137.678C98.24 138.798 99.04 139.678 99.92 140.398C100.8 141.118 101.84 141.678 102.96 142.038C104.08 142.398 105.24 142.558 106.48 142.558C108.08 142.558 109.56 142.318 110.92 141.838C112.28 141.358 113.44 140.638 114.4 139.718C115.36 138.838 116.12 137.718 116.68 136.438C117.24 135.158 117.52 133.718 117.52 132.118C117.52 130.558 117.24 129.158 116.72 127.878C116.2 126.638 115.48 125.598 114.6 124.718C113.72 123.838 112.64 123.198 111.44 122.718C110.24 122.238 108.92 121.998 107.56 121.998ZM137.983 130.398V141.918H144.543V121.998H137.983L129.223 133.438V121.998H122.663V141.918H129.223L137.983 130.398ZM151.961 128.398C152.201 127.958 152.521 127.558 152.921 127.198C153.241 126.918 153.681 126.638 154.241 126.358C154.761 126.118 155.401 125.958 156.201 125.958C157.481 125.958 158.441 126.198 159.121 126.638C159.761 127.118 160.121 127.638 160.121 128.238C160.121 128.598 160.001 128.878 159.801 129.078C159.601 129.278 159.321 129.438 158.961 129.518C158.601 129.638 158.161 129.718 157.681 129.758C157.201 129.798 156.681 129.798 156.121 129.798H152.841V133.878H156.121C156.681 133.878 157.201 133.918 157.761 133.958C158.281 134.038 158.761 134.118 159.201 134.278C159.641 134.438 160.001 134.638 160.281 134.878C160.521 135.118 160.681 135.438 160.681 135.798C160.681 136.518 160.321 136.998 159.601 137.318C158.881 137.638 157.921 137.758 156.721 137.758C156.161 137.758 155.561 137.718 155.001 137.558C154.441 137.438 153.881 137.278 153.401 137.078C152.921 136.918 152.481 136.718 152.081 136.478C151.681 136.238 151.361 136.038 151.121 135.838L148.281 139.758C148.561 139.998 148.961 140.318 149.441 140.638C149.921 140.958 150.561 141.278 151.281 141.598C152.001 141.918 152.881 142.158 153.841 142.398C154.801 142.638 155.921 142.718 157.201 142.718C158.561 142.718 159.881 142.638 161.081 142.438C162.281 142.238 163.361 141.918 164.241 141.438C165.121 140.998 165.841 140.398 166.361 139.638C166.841 138.878 167.121 137.958 167.121 136.838C167.121 136.038 166.961 135.358 166.641 134.758C166.321 134.158 165.921 133.638 165.481 133.238C165.001 132.838 164.521 132.518 164.001 132.278C163.441 132.038 163.001 131.918 162.601 131.838V131.718C163.001 131.558 163.401 131.358 163.801 131.118C164.201 130.878 164.601 130.558 164.961 130.158C165.321 129.798 165.601 129.358 165.841 128.798C166.081 128.278 166.201 127.638 166.201 126.918C166.201 125.118 165.401 123.718 163.801 122.718C162.201 121.758 160.001 121.238 157.161 121.238C155.761 121.238 154.561 121.398 153.561 121.678C152.521 121.958 151.681 122.318 150.961 122.758C150.241 123.198 149.681 123.678 149.241 124.158C148.801 124.678 148.481 125.158 148.241 125.598L151.961 128.398ZM178.031 141.918V134.398H184.711V141.918H191.271V121.998H184.711V129.358H178.031V121.998H171.471V141.918H178.031ZM211.099 129.678H202.659C202.659 129.198 202.819 128.718 203.059 128.238C203.299 127.758 203.619 127.358 204.019 126.998C204.419 126.678 204.859 126.398 205.419 126.198C205.939 125.998 206.539 125.878 207.179 125.878C208.459 125.878 209.459 126.278 210.099 126.998C210.739 127.758 211.099 128.638 211.099 129.678ZM217.139 132.198C217.139 130.518 216.859 128.998 216.379 127.638C215.899 126.318 215.219 125.198 214.339 124.238C213.459 123.318 212.379 122.598 211.179 122.118C209.939 121.638 208.579 121.358 207.139 121.358C205.619 121.358 204.179 121.638 202.899 122.118C201.579 122.638 200.459 123.358 199.499 124.278C198.539 125.198 197.779 126.318 197.219 127.638C196.659 128.958 196.379 130.438 196.379 132.038C196.379 133.718 196.659 135.238 197.219 136.518C197.779 137.838 198.579 138.958 199.579 139.838C200.579 140.718 201.739 141.398 203.099 141.878C204.419 142.358 205.819 142.558 207.339 142.558C209.339 142.558 211.139 142.198 212.659 141.478C214.179 140.758 215.419 139.678 216.379 138.318L211.819 135.438C211.339 136.078 210.779 136.558 210.059 136.958C209.339 137.358 208.459 137.518 207.419 137.518C206.819 137.518 206.259 137.438 205.699 137.238C205.139 137.078 204.659 136.798 204.219 136.478C203.779 136.158 203.419 135.758 203.139 135.278C202.859 134.838 202.699 134.318 202.659 133.758H217.099C217.099 133.518 217.139 133.278 217.139 132.998V132.198ZM235.913 128.438L239.713 124.038C239.313 123.638 238.833 123.278 238.273 122.958C237.713 122.638 237.113 122.358 236.473 122.118C235.833 121.878 235.153 121.718 234.433 121.558C233.713 121.438 233.033 121.358 232.313 121.358C230.753 121.358 229.313 121.638 227.953 122.118C226.593 122.598 225.393 123.318 224.393 124.238C223.393 125.158 222.593 126.278 222.033 127.558C221.473 128.878 221.193 130.358 221.193 131.958C221.193 133.638 221.473 135.118 222.033 136.398C222.593 137.718 223.393 138.838 224.393 139.758C225.393 140.678 226.593 141.358 227.953 141.838C229.313 142.318 230.753 142.558 232.353 142.558C233.793 142.558 235.193 142.358 236.513 141.878C237.793 141.438 238.873 140.798 239.713 139.998L236.073 135.558C235.673 136.038 235.113 136.438 234.473 136.678C233.833 136.918 233.153 137.038 232.513 137.038C231.793 137.038 231.113 136.918 230.553 136.638C229.993 136.398 229.473 136.038 229.073 135.558C228.673 135.078 228.353 134.558 228.153 133.918C227.913 133.318 227.833 132.678 227.833 131.958C227.833 131.278 227.913 130.638 228.153 129.998C228.393 129.398 228.713 128.878 229.113 128.398C229.513 127.918 229.993 127.558 230.553 127.278C231.113 126.998 231.713 126.838 232.433 126.838C233.073 126.838 233.753 126.998 234.393 127.278C235.033 127.598 235.513 127.958 235.913 128.438ZM242.176 134.038H252.336V128.838H242.176V134.038ZM263.889 141.918V127.078H270.249V141.918H276.809V121.998H257.329V141.918H263.889ZM305.084 131.878C305.084 130.518 304.844 129.198 304.404 127.918C303.964 126.638 303.324 125.518 302.524 124.558C301.724 123.598 300.724 122.838 299.564 122.278C298.364 121.718 297.084 121.438 295.644 121.438C294.164 121.438 292.884 121.758 291.804 122.358C290.724 122.958 289.884 123.638 289.284 124.438H289.164V121.998H282.924V151.518H289.484V139.718H289.564C290.164 140.598 291.004 141.278 292.124 141.758C293.204 142.238 294.364 142.478 295.604 142.478C297.084 142.478 298.404 142.198 299.604 141.598C300.764 141.038 301.764 140.238 302.564 139.278C303.364 138.318 304.004 137.158 304.444 135.878C304.844 134.598 305.084 133.278 305.084 131.878ZM298.724 131.878C298.724 132.518 298.604 133.158 298.404 133.798C298.204 134.438 297.924 134.958 297.524 135.438C297.124 135.918 296.644 136.318 296.084 136.598C295.484 136.918 294.804 137.038 294.044 137.038C293.284 137.038 292.604 136.918 292.044 136.598C291.444 136.318 290.924 135.918 290.524 135.438C290.124 134.958 289.804 134.438 289.564 133.798C289.324 133.198 289.244 132.558 289.244 131.918C289.244 131.278 289.324 130.678 289.564 130.038C289.804 129.438 290.124 128.878 290.524 128.398C290.924 127.918 291.444 127.558 292.044 127.238C292.604 126.958 293.284 126.798 294.044 126.798C294.804 126.798 295.484 126.958 296.084 127.238C296.644 127.558 297.124 127.918 297.524 128.398C297.924 128.878 298.204 129.398 298.404 129.998C298.604 130.638 298.724 131.238 298.724 131.878ZM331.359 131.878C331.359 130.278 331.039 128.798 330.479 127.478C329.879 126.198 329.079 125.078 328.079 124.158C327.039 123.278 325.879 122.558 324.559 122.078C323.199 121.598 321.799 121.358 320.279 121.358C318.759 121.358 317.359 121.598 315.999 122.078C314.639 122.558 313.479 123.278 312.479 124.158C311.479 125.078 310.679 126.198 310.119 127.478C309.519 128.798 309.239 130.278 309.239 131.878C309.239 133.518 309.519 134.998 310.119 136.318C310.679 137.638 311.479 138.758 312.479 139.678C313.479 140.598 314.639 141.318 315.999 141.798C317.359 142.318 318.759 142.558 320.279 142.558C321.799 142.558 323.199 142.318 324.559 141.798C325.879 141.318 327.039 140.598 328.079 139.678C329.079 138.758 329.879 137.638 330.479 136.318C331.039 134.998 331.359 133.518 331.359 131.878ZM325.039 131.878C325.039 132.518 324.919 133.158 324.719 133.758C324.519 134.398 324.239 134.958 323.839 135.438C323.439 135.918 322.919 136.318 322.359 136.598C321.759 136.918 321.079 137.038 320.319 137.038C319.519 137.038 318.839 136.918 318.279 136.598C317.679 136.318 317.199 135.918 316.799 135.438C316.399 134.958 316.079 134.398 315.879 133.758C315.679 133.158 315.599 132.518 315.599 131.878C315.599 131.238 315.679 130.638 315.879 129.998C316.079 129.398 316.359 128.878 316.759 128.398C317.159 127.918 317.639 127.558 318.239 127.238C318.799 126.958 319.479 126.798 320.279 126.798C321.039 126.798 321.719 126.958 322.319 127.238C322.879 127.558 323.399 127.918 323.799 128.398C324.199 128.878 324.479 129.398 324.719 129.998C324.919 130.638 325.039 131.238 325.039 131.878ZM336.498 121.998V141.918H353.818V147.478H359.178V136.838H356.058V121.998H349.498V136.838H343.058V121.998H336.498ZM376.633 129.678H368.193C368.193 129.198 368.353 128.718 368.593 128.238C368.833 127.758 369.153 127.358 369.553 126.998C369.953 126.678 370.393 126.398 370.953 126.198C371.473 125.998 372.073 125.878 372.713 125.878C373.993 125.878 374.993 126.278 375.633 126.998C376.273 127.758 376.633 128.638 376.633 129.678ZM382.673 132.198C382.673 130.518 382.393 128.998 381.913 127.638C381.433 126.318 380.753 125.198 379.873 124.238C378.993 123.318 377.913 122.598 376.713 122.118C375.473 121.638 374.113 121.358 372.673 121.358C371.153 121.358 369.713 121.638 368.433 122.118C367.113 122.638 365.993 123.358 365.033 124.278C364.073 125.198 363.313 126.318 362.753 127.638C362.193 128.958 361.913 130.438 361.913 132.038C361.913 133.718 362.193 135.238 362.753 136.518C363.313 137.838 364.113 138.958 365.113 139.838C366.113 140.718 367.273 141.398 368.633 141.878C369.953 142.358 371.353 142.558 372.873 142.558C374.873 142.558 376.673 142.198 378.193 141.478C379.713 140.758 380.953 139.678 381.913 138.318L377.353 135.438C376.873 136.078 376.313 136.558 375.593 136.958C374.873 137.358 373.993 137.518 372.953 137.518C372.353 137.518 371.793 137.438 371.233 137.238C370.673 137.078 370.193 136.798 369.753 136.478C369.313 136.158 368.953 135.758 368.673 135.278C368.393 134.838 368.233 134.318 368.193 133.758H382.633C382.633 133.518 382.673 133.278 382.673 132.998V132.198ZM401.447 128.438L405.247 124.038C404.847 123.638 404.367 123.278 403.807 122.958C403.247 122.638 402.647 122.358 402.007 122.118C401.367 121.878 400.687 121.718 399.967 121.558C399.247 121.438 398.567 121.358 397.847 121.358C396.287 121.358 394.847 121.638 393.487 122.118C392.127 122.598 390.927 123.318 389.927 124.238C388.927 125.158 388.127 126.278 387.567 127.558C387.007 128.878 386.727 130.358 386.727 131.958C386.727 133.638 387.007 135.118 387.567 136.398C388.127 137.718 388.927 138.838 389.927 139.758C390.927 140.678 392.127 141.358 393.487 141.838C394.847 142.318 396.287 142.558 397.887 142.558C399.327 142.558 400.727 142.358 402.047 141.878C403.327 141.438 404.407 140.798 405.247 139.998L401.607 135.558C401.207 136.038 400.647 136.438 400.007 136.678C399.367 136.918 398.687 137.038 398.047 137.038C397.327 137.038 396.647 136.918 396.087 136.638C395.527 136.398 395.007 136.038 394.607 135.558C394.207 135.078 393.887 134.558 393.687 133.918C393.447 133.318 393.367 132.678 393.367 131.958C393.367 131.278 393.447 130.638 393.687 129.998C393.927 129.398 394.247 128.878 394.647 128.398C395.047 127.918 395.527 127.558 396.087 127.278C396.647 126.998 397.247 126.838 397.967 126.838C398.607 126.838 399.287 126.998 399.927 127.278C400.567 127.598 401.047 127.958 401.447 128.438ZM422.55 128.438L426.35 124.038C425.95 123.638 425.47 123.278 424.91 122.958C424.35 122.638 423.75 122.358 423.11 122.118C422.47 121.878 421.79 121.718 421.07 121.558C420.35 121.438 419.67 121.358 418.95 121.358C417.39 121.358 415.95 121.638 414.59 122.118C413.23 122.598 412.03 123.318 411.03 124.238C410.03 125.158 409.23 126.278 408.67 127.558C408.11 128.878 407.83 130.358 407.83 131.958C407.83 133.638 408.11 135.118 408.67 136.398C409.23 137.718 410.03 138.838 411.03 139.758C412.03 140.678 413.23 141.358 414.59 141.838C415.95 142.318 417.39 142.558 418.99 142.558C420.43 142.558 421.83 142.358 423.15 141.878C424.43 141.438 425.51 140.798 426.35 139.998L422.71 135.558C422.31 136.038 421.75 136.438 421.11 136.678C420.47 136.918 419.79 137.038 419.15 137.038C418.43 137.038 417.75 136.918 417.19 136.638C416.63 136.398 416.11 136.038 415.71 135.558C415.31 135.078 414.99 134.558 414.79 133.918C414.55 133.318 414.47 132.678 414.47 131.958C414.47 131.278 414.55 130.638 414.79 129.998C415.03 129.398 415.35 128.878 415.75 128.398C416.15 127.918 416.63 127.558 417.19 127.278C417.75 126.998 418.35 126.838 419.07 126.838C419.71 126.838 420.39 126.998 421.03 127.278C421.67 127.598 422.15 127.958 422.55 128.438ZM436.494 121.998H429.934V141.918H441.094C442.374 141.918 443.534 141.758 444.534 141.398C445.534 141.038 446.374 140.558 447.054 139.918C447.694 139.278 448.214 138.558 448.574 137.678C448.894 136.838 449.094 135.918 449.094 134.918C449.094 133.958 448.934 133.078 448.654 132.238C448.334 131.398 447.894 130.678 447.254 130.038C446.614 129.398 445.774 128.918 444.734 128.558C443.694 128.238 442.414 128.038 440.934 128.038H436.494V121.998ZM436.494 137.318V132.638H439.614C440.494 132.638 441.254 132.798 441.854 133.118C442.454 133.438 442.774 134.078 442.774 134.958C442.774 135.878 442.454 136.518 441.894 136.838C441.334 137.158 440.574 137.318 439.694 137.318H436.494ZM457.374 121.998H450.814V141.918H457.374V121.998Z" fill="#2D3238"/>
<path d="M574.872 77.1741H565.692V89.9181H566.988V78.3621H573.576V89.9181H574.872V77.1741ZM587.001 85.7061C587.001 85.0761 586.875 84.4821 586.659 83.9421C586.443 83.4021 586.137 82.9341 585.741 82.5381C585.345 82.1421 584.859 81.8361 584.319 81.6201C583.761 81.4041 583.149 81.2781 582.501 81.2781C581.853 81.2781 581.241 81.4041 580.701 81.6201C580.143 81.8361 579.675 82.1421 579.279 82.5381C578.883 82.9341 578.559 83.4021 578.343 83.9421C578.127 84.4821 578.019 85.0761 578.019 85.7061C578.019 86.3541 578.127 86.9301 578.343 87.4701C578.559 88.0101 578.883 88.4781 579.279 88.8741C579.675 89.2701 580.143 89.5941 580.701 89.8101C581.241 90.0261 581.853 90.1341 582.501 90.1341C583.149 90.1341 583.761 90.0261 584.319 89.8101C584.859 89.5941 585.345 89.2701 585.741 88.8741C586.137 88.4781 586.443 88.0101 586.659 87.4701C586.875 86.9301 587.001 86.3541 587.001 85.7061ZM585.705 85.7061C585.705 86.1741 585.615 86.6241 585.471 87.0381C585.327 87.4521 585.111 87.8121 584.841 88.1181C584.553 88.4241 584.229 88.6581 583.833 88.8381C583.437 89.0181 582.987 89.0901 582.501 89.0901C581.997 89.0901 581.565 89.0181 581.169 88.8381C580.773 88.6581 580.449 88.4241 580.179 88.1181C579.891 87.8121 579.675 87.4521 579.531 87.0381C579.387 86.6241 579.315 86.1741 579.315 85.7061C579.315 85.2381 579.387 84.8061 579.531 84.3921C579.675 83.9781 579.891 83.6181 580.179 83.3121C580.449 83.0061 580.773 82.7541 581.169 82.5741C581.565 82.3941 581.997 82.3041 582.501 82.3041C582.987 82.3041 583.437 82.3941 583.833 82.5741C584.229 82.7541 584.553 83.0061 584.841 83.3121C585.111 83.6181 585.327 83.9781 585.471 84.3921C585.615 84.8061 585.705 85.2381 585.705 85.7061ZM589.664 92.4201V89.9181H597.062V92.4201H598.25V88.8561H596.846L593.984 81.4941H592.904L589.808 88.8561H588.458V92.4201H589.664ZM591.05 88.8561L593.408 82.9701L595.622 88.8561H591.05ZM601.465 84.9501V81.4941H600.241V89.9181H601.465V85.9941C602.113 86.0121 602.707 86.0841 603.229 86.2101C603.733 86.3361 604.183 86.5521 604.579 86.8581C604.975 87.1641 605.299 87.5601 605.551 88.0641C605.803 88.5681 606.019 89.1801 606.199 89.9181H607.567C607.243 88.6581 606.793 87.6681 606.253 86.9121C605.695 86.1561 604.921 85.6341 603.931 85.3101L607.207 81.4941H605.839L602.815 85.0581C602.383 84.9861 601.933 84.9501 601.465 84.9501ZM616.253 89.9181H617.495L614.039 81.4941H612.959L609.269 89.9181H610.547L613.463 82.9701L616.253 89.9181ZM631.817 85.7061C631.817 85.0761 631.691 84.4821 631.475 83.9421C631.259 83.4021 630.953 82.9341 630.557 82.5381C630.161 82.1421 629.675 81.8361 629.135 81.6201C628.577 81.4041 627.965 81.2781 627.317 81.2781C626.741 81.2781 626.201 81.3681 625.697 81.5481C625.193 81.7281 624.743 81.9801 624.365 82.3041C623.969 82.6281 623.663 83.0061 623.411 83.4381C623.159 83.8881 622.979 84.3741 622.907 84.8961H621.071V81.4941H619.847V89.9181H621.071V85.9221H622.835C622.853 86.5341 622.979 87.1101 623.213 87.6141C623.429 88.1181 623.753 88.5681 624.149 88.9461C624.545 89.3241 625.013 89.6121 625.553 89.8281C626.093 90.0441 626.669 90.1341 627.317 90.1341C627.965 90.1341 628.577 90.0261 629.135 89.8101C629.675 89.5941 630.161 89.2701 630.557 88.8741C630.953 88.4781 631.259 88.0101 631.475 87.4701C631.691 86.9301 631.817 86.3541 631.817 85.7061ZM630.521 85.7061C630.521 86.1741 630.431 86.6241 630.287 87.0381C630.143 87.4521 629.927 87.8121 629.657 88.1181C629.369 88.4241 629.045 88.6581 628.649 88.8381C628.253 89.0181 627.803 89.0901 627.317 89.0901C626.813 89.0901 626.381 89.0181 625.985 88.8381C625.589 88.6581 625.265 88.4241 624.995 88.1181C624.707 87.8121 624.491 87.4521 624.347 87.0381C624.203 86.6241 624.131 86.1741 624.131 85.7061C624.131 85.2381 624.203 84.8061 624.347 84.3921C624.491 83.9781 624.707 83.6181 624.995 83.3121C625.265 83.0061 625.589 82.7541 625.985 82.5741C626.381 82.3941 626.813 82.3041 627.317 82.3041C627.803 82.3041 628.253 82.3941 628.649 82.5741C629.045 82.7541 629.369 83.0061 629.657 83.3121C629.927 83.6181 630.143 83.9781 630.287 84.3921C630.431 84.8061 630.521 85.2381 630.521 85.7061ZM634.162 81.4941V83.3841C634.162 83.9421 634.198 84.4281 634.306 84.8601C634.396 85.2921 634.576 85.6341 634.864 85.9221C635.134 86.2101 635.512 86.4261 636.016 86.5701C636.502 86.7141 637.132 86.7861 637.924 86.7861H639.778V89.9181H641.002V81.4941H639.778V85.7601H637.942C637.33 85.7601 636.844 85.7061 636.502 85.5981C636.142 85.4901 635.89 85.3281 635.728 85.0761C635.566 84.8241 635.476 84.5181 635.44 84.1221C635.404 83.7441 635.386 83.2761 635.386 82.7181V81.4941H634.162ZM649.916 84.4821V84.7521C649.142 84.7521 648.404 84.7881 647.684 84.8421C646.964 84.8961 646.334 85.0221 645.794 85.2021C645.236 85.3821 644.786 85.6701 644.462 86.0481C644.138 86.4261 643.976 86.9301 643.976 87.5781C643.976 88.0461 644.066 88.4421 644.246 88.7661C644.426 89.0901 644.66 89.3601 644.948 89.5581C645.236 89.7741 645.542 89.9181 645.884 90.0081C646.226 90.0981 646.568 90.1341 646.892 90.1341C647.576 90.1341 648.152 90.0261 648.638 89.7741C649.124 89.5221 649.556 89.1261 649.952 88.5501H649.988C649.988 88.7841 649.988 89.0181 650.024 89.2521C650.042 89.5041 650.078 89.7201 650.114 89.9181H651.212C651.158 89.6841 651.122 89.3961 651.104 89.0361C651.068 88.6941 651.068 88.3521 651.068 88.0281V84.3381C651.068 83.8341 650.978 83.3841 650.816 82.9881C650.636 82.6101 650.402 82.2861 650.114 82.0341C649.808 81.7821 649.466 81.6021 649.07 81.4761C648.674 81.3501 648.242 81.2781 647.792 81.2781C647.072 81.2781 646.424 81.4041 645.848 81.6201C645.272 81.8541 644.822 82.1421 644.48 82.4841L645.164 83.2941C645.452 83.0061 645.83 82.7541 646.262 82.5741C646.694 82.3941 647.162 82.3041 647.666 82.3041C648.386 82.3041 648.944 82.4841 649.34 82.8441C649.718 83.2041 649.916 83.7621 649.916 84.4821ZM649.556 85.7061H649.916V86.3361C649.916 86.7141 649.844 87.0741 649.736 87.3981C649.61 87.7401 649.43 88.0461 649.214 88.2981C648.98 88.5501 648.692 88.7661 648.368 88.9101C648.026 89.0541 647.648 89.1261 647.216 89.1261C646.964 89.1261 646.73 89.1081 646.496 89.0541C646.262 89.0001 646.046 88.9101 645.866 88.7841C645.668 88.6581 645.506 88.4961 645.398 88.2801C645.29 88.0821 645.236 87.8301 645.236 87.5241C645.236 87.1281 645.362 86.8221 645.632 86.5701C645.884 86.3361 646.226 86.1561 646.64 86.0301C647.054 85.9041 647.522 85.8141 648.026 85.7781C648.53 85.7421 649.052 85.7061 649.556 85.7061ZM661.019 89.9181V83.0601L655.853 89.9181H654.593V81.4941H655.853V88.1001L661.019 81.4941H662.279V89.9181H661.019ZM656.645 77.2641L655.763 77.6601C655.853 77.9481 655.979 78.2181 656.123 78.4701C656.267 78.7401 656.465 78.9741 656.681 79.1721C656.897 79.3701 657.167 79.5321 657.473 79.6401C657.761 79.7661 658.121 79.8201 658.517 79.8201C658.913 79.8201 659.273 79.7661 659.597 79.6221C659.903 79.4781 660.173 79.3161 660.389 79.1001C660.605 78.8841 660.785 78.6501 660.929 78.3981C661.073 78.1461 661.181 77.9121 661.271 77.6601L660.389 77.2641C660.209 77.7321 659.993 78.1101 659.723 78.3981C659.435 78.7041 659.039 78.8481 658.517 78.8481C658.013 78.8481 657.617 78.7221 657.329 78.4341C657.041 78.1461 656.807 77.7681 656.645 77.2641ZM664.443 81.4941V82.5201H667.431V89.9181H668.655V82.5201H671.841V81.4941H664.443ZM680.504 85.0581H674.762C674.78 84.6981 674.87 84.3561 675.032 84.0321C675.176 83.7081 675.392 83.4021 675.662 83.1501C675.914 82.8981 676.22 82.6821 676.58 82.5381C676.922 82.3941 677.3 82.3041 677.714 82.3041C678.578 82.3041 679.262 82.5741 679.73 83.0961C680.198 83.6181 680.468 84.2661 680.504 85.0581ZM681.746 85.4541C681.746 84.8781 681.656 84.3381 681.476 83.8341C681.296 83.3301 681.044 82.8981 680.72 82.5201C680.378 82.1421 679.964 81.8361 679.46 81.6201C678.956 81.4041 678.362 81.2781 677.714 81.2781C677.102 81.2781 676.544 81.4041 676.04 81.6201C675.518 81.8361 675.068 82.1421 674.69 82.5381C674.294 82.9341 674.006 83.4021 673.79 83.9421C673.574 84.4821 673.466 85.0761 673.466 85.7061C673.466 86.3541 673.574 86.9301 673.79 87.4701C674.006 88.0101 674.312 88.4781 674.708 88.8741C675.086 89.2701 675.536 89.5941 676.076 89.8101C676.616 90.0261 677.192 90.1341 677.822 90.1341C678.506 90.1341 679.154 90.0081 679.766 89.7201C680.378 89.4501 680.936 89.0001 681.44 88.3521L680.522 87.6321C680.27 88.0281 679.928 88.3701 679.46 88.6581C678.992 88.9461 678.452 89.0901 677.822 89.0901C677.39 89.0901 676.976 89.0181 676.616 88.8561C676.238 88.6941 675.914 88.4781 675.644 88.1901C675.356 87.9201 675.14 87.5961 674.996 87.2181C674.834 86.8581 674.744 86.4621 674.744 86.0301H681.728C681.728 85.9221 681.746 85.8321 681.746 85.7241V85.4541ZM690.917 89.9181V82.5201H695.579V89.9181H696.803V81.4941H689.693V89.9181H690.917ZM701.645 94.2381V88.4961H701.699C702.041 89.0361 702.509 89.4321 703.085 89.7201C703.661 90.0081 704.255 90.1341 704.867 90.1341C705.515 90.1341 706.109 90.0261 706.649 89.7921C707.189 89.5761 707.639 89.2521 708.017 88.8561C708.395 88.4601 708.683 87.9921 708.899 87.4521C709.115 86.9121 709.223 86.3361 709.223 85.7061C709.223 85.0941 709.115 84.5001 708.899 83.9601C708.683 83.4201 708.395 82.9521 708.017 82.5561C707.639 82.1601 707.189 81.8541 706.649 81.6201C706.109 81.4041 705.515 81.2781 704.867 81.2781C704.255 81.2781 703.661 81.4221 703.085 81.7101C702.509 81.9981 702.041 82.4121 701.699 82.9521H701.645V81.4941H700.421V94.2381H701.645ZM707.927 85.7061C707.927 86.1741 707.855 86.6241 707.711 87.0381C707.567 87.4521 707.351 87.8121 707.081 88.1181C706.811 88.4241 706.487 88.6581 706.091 88.8381C705.695 89.0181 705.245 89.0901 704.741 89.0901C704.273 89.0901 703.841 89.0181 703.445 88.8381C703.049 88.6581 702.707 88.4241 702.419 88.1181C702.131 87.8301 701.897 87.4701 701.735 87.0561C701.573 86.6421 701.501 86.1921 701.501 85.7061C701.501 85.2381 701.573 84.7881 701.735 84.3741C701.897 83.9601 702.131 83.6001 702.419 83.2941C702.707 82.9881 703.049 82.7541 703.445 82.5741C703.841 82.3941 704.273 82.3041 704.741 82.3041C705.245 82.3041 705.695 82.3941 706.091 82.5741C706.487 82.7541 706.811 83.0061 707.081 83.3121C707.351 83.6181 707.567 83.9781 707.711 84.3921C707.855 84.8061 707.927 85.2381 707.927 85.7061ZM718.644 83.0601V89.9181H719.904V81.4941H718.644L713.478 88.1001V81.4941H712.218V89.9181H713.478L718.644 83.0601ZM727.288 89.9181C728.386 89.9181 729.214 89.7201 729.79 89.3061C730.348 88.9101 730.636 88.3521 730.636 87.6681C730.636 87.3261 730.564 87.0381 730.456 86.7861C730.33 86.5341 730.168 86.3361 729.952 86.1741C729.736 86.0121 729.502 85.8861 729.232 85.7961C728.944 85.7241 728.656 85.6701 728.35 85.6341C728.602 85.5621 728.836 85.4901 729.07 85.4001C729.286 85.3281 729.484 85.2201 729.664 85.0761C729.844 84.9321 729.97 84.7701 730.078 84.5541C730.168 84.3381 730.222 84.0861 730.222 83.7621C730.222 83.0781 729.952 82.5381 729.448 82.1241C728.926 81.7101 728.134 81.4941 727.072 81.4941H723.436V89.9181H727.288ZM724.66 88.9281V86.1021H726.946C727.666 86.1021 728.224 86.1921 728.656 86.3721C729.088 86.5521 729.304 86.9301 729.304 87.5061C729.304 87.8661 729.214 88.1361 729.07 88.3161C728.908 88.5141 728.692 88.6581 728.422 88.7481C728.134 88.8381 727.81 88.8921 727.45 88.9101C727.072 88.9281 726.658 88.9281 726.226 88.9281H724.66ZM727 85.2201H724.66V82.4841H726.19C726.586 82.4841 726.964 82.5021 727.306 82.5201C727.63 82.5561 727.918 82.6101 728.17 82.7001C728.404 82.7901 728.584 82.9161 728.728 83.0961C728.854 83.2761 728.926 83.5281 728.926 83.8341C728.926 84.3921 728.746 84.7701 728.404 84.9501C728.062 85.1301 727.594 85.2201 727 85.2201ZM734.842 81.4941H733.618V89.9181H736.642C737.182 89.9181 737.668 89.8461 738.082 89.7021C738.496 89.5581 738.838 89.3601 739.126 89.1081C739.396 88.8561 739.594 88.5681 739.738 88.2261C739.882 87.9021 739.954 87.5421 739.954 87.1461C739.954 86.7681 739.882 86.4081 739.774 86.0661C739.648 85.7421 739.45 85.4541 739.198 85.2021C738.928 84.9501 738.586 84.7701 738.154 84.6261C737.722 84.4821 737.182 84.4101 736.57 84.4101H734.842V81.4941ZM734.842 88.9281V85.3821H736.3C736.624 85.3821 736.948 85.4181 737.236 85.4721C737.524 85.5261 737.758 85.6161 737.974 85.7421C738.19 85.8861 738.352 86.0661 738.478 86.2821C738.586 86.5161 738.658 86.8041 738.658 87.1461C738.658 87.5061 738.586 87.7941 738.478 88.0101C738.37 88.2441 738.208 88.4241 738.01 88.5681C737.812 88.7121 737.578 88.8021 737.29 88.8561C737.002 88.9101 736.678 88.9281 736.354 88.9281H734.842ZM742.276 81.4941H741.052V89.9181H742.276V81.4941ZM745.173 81.4941V83.3841C745.173 83.9421 745.209 84.4281 745.317 84.8601C745.407 85.2921 745.587 85.6341 745.875 85.9221C746.145 86.2101 746.523 86.4261 747.027 86.5701C747.513 86.7141 748.143 86.7861 748.935 86.7861H750.789V89.9181H752.013V81.4941H750.789V85.7601H748.953C748.341 85.7601 747.855 85.7061 747.513 85.5981C747.153 85.4901 746.901 85.3281 746.739 85.0761C746.577 84.8241 746.487 84.5181 746.451 84.1221C746.415 83.7441 746.397 83.2761 746.397 82.7181V81.4941H745.173ZM756.769 89.9181V85.9221H761.575V89.9181H762.799V81.4941H761.575V84.8961H756.769V81.4941H755.545V89.9181H756.769ZM767.565 81.4941H766.341V89.9181H769.365C769.905 89.9181 770.391 89.8461 770.805 89.7021C771.219 89.5581 771.561 89.3601 771.849 89.1081C772.119 88.8561 772.317 88.5681 772.461 88.2261C772.605 87.9021 772.677 87.5421 772.677 87.1461C772.677 86.7681 772.605 86.4081 772.497 86.0661C772.371 85.7421 772.173 85.4541 771.921 85.2021C771.651 84.9501 771.309 84.7701 770.877 84.6261C770.445 84.4821 769.905 84.4101 769.293 84.4101H767.565V81.4941ZM767.565 88.9281V85.3821H769.023C769.347 85.3821 769.671 85.4181 769.959 85.4721C770.247 85.5261 770.481 85.6161 770.697 85.7421C770.913 85.8861 771.075 86.0661 771.201 86.2821C771.309 86.5161 771.381 86.8041 771.381 87.1461C771.381 87.5061 771.309 87.7941 771.201 88.0101C771.093 88.2441 770.931 88.4241 770.733 88.5681C770.535 88.7121 770.301 88.8021 770.013 88.8561C769.725 88.9101 769.401 88.9281 769.077 88.9281H767.565ZM774.999 81.4941H773.775V89.9181H774.999V81.4941ZM785.042 85.0581H779.3C779.318 84.6981 779.408 84.3561 779.57 84.0321C779.714 83.7081 779.93 83.4021 780.2 83.1501C780.452 82.8981 780.758 82.6821 781.118 82.5381C781.46 82.3941 781.838 82.3041 782.252 82.3041C783.116 82.3041 783.8 82.5741 784.268 83.0961C784.736 83.6181 785.006 84.2661 785.042 85.0581ZM786.284 85.4541C786.284 84.8781 786.194 84.3381 786.014 83.8341C785.834 83.3301 785.582 82.8981 785.258 82.5201C784.916 82.1421 784.502 81.8361 783.998 81.6201C783.494 81.4041 782.9 81.2781 782.252 81.2781C781.64 81.2781 781.082 81.4041 780.578 81.6201C780.056 81.8361 779.606 82.1421 779.228 82.5381C778.832 82.9341 778.544 83.4021 778.328 83.9421C778.112 84.4821 778.004 85.0761 778.004 85.7061C778.004 86.3541 778.112 86.9301 778.328 87.4701C778.544 88.0101 778.85 88.4781 779.246 88.8741C779.624 89.2701 780.074 89.5941 780.614 89.8101C781.154 90.0261 781.73 90.1341 782.36 90.1341C783.044 90.1341 783.692 90.0081 784.304 89.7201C784.916 89.4501 785.474 89.0001 785.978 88.3521L785.06 87.6321C784.808 88.0281 784.466 88.3701 783.998 88.6581C783.53 88.9461 782.99 89.0901 782.36 89.0901C781.928 89.0901 781.514 89.0181 781.154 88.8561C780.776 88.6941 780.452 88.4781 780.182 88.1901C779.894 87.9201 779.678 87.5961 779.534 87.2181C779.372 86.8581 779.282 86.4621 779.282 86.0301H786.266C786.266 85.9221 786.284 85.8321 786.284 85.7241V85.4541ZM795.455 89.9181V82.5201H800.117V89.9181H801.341V81.4941H794.231V89.9181H795.455ZM806.183 94.2381V88.4961H806.237C806.579 89.0361 807.047 89.4321 807.623 89.7201C808.199 90.0081 808.793 90.1341 809.405 90.1341C810.053 90.1341 810.647 90.0261 811.187 89.7921C811.727 89.5761 812.177 89.2521 812.555 88.8561C812.933 88.4601 813.221 87.9921 813.437 87.4521C813.653 86.9121 813.761 86.3361 813.761 85.7061C813.761 85.0941 813.653 84.5001 813.437 83.9601C813.221 83.4201 812.933 82.9521 812.555 82.5561C812.177 82.1601 811.727 81.8541 811.187 81.6201C810.647 81.4041 810.053 81.2781 809.405 81.2781C808.793 81.2781 808.199 81.4221 807.623 81.7101C807.047 81.9981 806.579 82.4121 806.237 82.9521H806.183V81.4941H804.959V94.2381H806.183ZM812.465 85.7061C812.465 86.1741 812.393 86.6241 812.249 87.0381C812.105 87.4521 811.889 87.8121 811.619 88.1181C811.349 88.4241 811.025 88.6581 810.629 88.8381C810.233 89.0181 809.783 89.0901 809.279 89.0901C808.811 89.0901 808.379 89.0181 807.983 88.8381C807.587 88.6581 807.245 88.4241 806.957 88.1181C806.669 87.8301 806.435 87.4701 806.273 87.0561C806.111 86.6421 806.039 86.1921 806.039 85.7061C806.039 85.2381 806.111 84.7881 806.273 84.3741C806.435 83.9601 806.669 83.6001 806.957 83.2941C807.245 82.9881 807.587 82.7541 807.983 82.5741C808.379 82.3941 808.811 82.3041 809.279 82.3041C809.783 82.3041 810.233 82.3941 810.629 82.5741C811.025 82.7541 811.349 83.0061 811.619 83.3121C811.889 83.6181 812.105 83.9781 812.249 84.3921C812.393 84.8061 812.465 85.2381 812.465 85.7061ZM823.182 83.0601V89.9181H824.442V81.4941H823.182L818.016 88.1001V81.4941H816.756V89.9181H818.016L823.182 83.0601ZM833.771 89.9181H835.013L831.557 81.4941H830.477L826.787 89.9181H828.065L830.981 82.9701L833.771 89.9181ZM845.807 85.7061C845.807 85.0761 845.681 84.4821 845.465 83.9421C845.249 83.4021 844.943 82.9341 844.547 82.5381C844.151 82.1421 843.665 81.8361 843.125 81.6201C842.567 81.4041 841.955 81.2781 841.307 81.2781C840.659 81.2781 840.047 81.4041 839.507 81.6201C838.949 81.8361 838.481 82.1421 838.085 82.5381C837.689 82.9341 837.365 83.4021 837.149 83.9421C836.933 84.4821 836.825 85.0761 836.825 85.7061C836.825 86.3541 836.933 86.9301 837.149 87.4701C837.365 88.0101 837.689 88.4781 838.085 88.8741C838.481 89.2701 838.949 89.5941 839.507 89.8101C840.047 90.0261 840.659 90.1341 841.307 90.1341C841.955 90.1341 842.567 90.0261 843.125 89.8101C843.665 89.5941 844.151 89.2701 844.547 88.8741C844.943 88.4781 845.249 88.0101 845.465 87.4701C845.681 86.9301 845.807 86.3541 845.807 85.7061ZM844.511 85.7061C844.511 86.1741 844.421 86.6241 844.277 87.0381C844.133 87.4521 843.917 87.8121 843.647 88.1181C843.359 88.4241 843.035 88.6581 842.639 88.8381C842.243 89.0181 841.793 89.0901 841.307 89.0901C840.803 89.0901 840.371 89.0181 839.975 88.8381C839.579 88.6581 839.255 88.4241 838.985 88.1181C838.697 87.8121 838.481 87.4521 838.337 87.0381C838.193 86.6241 838.121 86.1741 838.121 85.7061C838.121 85.2381 838.193 84.8061 838.337 84.3921C838.481 83.9781 838.697 83.6181 838.985 83.3121C839.255 83.0061 839.579 82.7541 839.975 82.5741C840.371 82.3941 840.803 82.3041 841.307 82.3041C841.793 82.3041 842.243 82.3941 842.639 82.5741C843.035 82.7541 843.359 83.0061 843.647 83.3121C843.917 83.6181 844.133 83.9781 844.277 84.3921C844.421 84.8061 844.511 85.2381 844.511 85.7061ZM853.996 85.9941V89.9181H855.22V85.9941C855.796 86.0121 856.336 86.0841 856.804 86.2101C857.272 86.3541 857.704 86.5701 858.082 86.8581C858.442 87.1641 858.766 87.5601 859.036 88.0641C859.288 88.5681 859.504 89.1801 859.684 89.9181H861.052C860.728 88.6221 860.278 87.6141 859.738 86.8761C859.18 86.1381 858.442 85.6161 857.506 85.2921L860.602 81.4941H859.234L856.408 85.0401C856.21 85.0221 856.012 85.0041 855.814 84.9861C855.616 84.9681 855.418 84.9501 855.22 84.9501V81.4941H853.996V84.9501C853.78 84.9501 853.564 84.9681 853.366 84.9861C853.168 85.0041 852.988 85.0221 852.808 85.0401L849.982 81.4941H848.614L851.692 85.2921C850.756 85.6161 850 86.1381 849.46 86.8581C848.902 87.5961 848.47 88.6221 848.164 89.9181H849.532C849.676 89.1801 849.892 88.5681 850.162 88.0641C850.414 87.5601 850.738 87.1641 851.116 86.8581C851.476 86.5701 851.908 86.3541 852.394 86.2101C852.862 86.0841 853.402 86.0121 853.996 85.9941ZM870.448 85.0581H864.706C864.724 84.6981 864.814 84.3561 864.976 84.0321C865.12 83.7081 865.336 83.4021 865.606 83.1501C865.858 82.8981 866.164 82.6821 866.524 82.5381C866.866 82.3941 867.244 82.3041 867.658 82.3041C868.522 82.3041 869.206 82.5741 869.674 83.0961C870.142 83.6181 870.412 84.2661 870.448 85.0581ZM871.69 85.4541C871.69 84.8781 871.6 84.3381 871.42 83.8341C871.24 83.3301 870.988 82.8981 870.664 82.5201C870.322 82.1421 869.908 81.8361 869.404 81.6201C868.9 81.4041 868.306 81.2781 867.658 81.2781C867.046 81.2781 866.488 81.4041 865.984 81.6201C865.462 81.8361 865.012 82.1421 864.634 82.5381C864.238 82.9341 863.95 83.4021 863.734 83.9421C863.518 84.4821 863.41 85.0761 863.41 85.7061C863.41 86.3541 863.518 86.9301 863.734 87.4701C863.95 88.0101 864.256 88.4781 864.652 88.8741C865.03 89.2701 865.48 89.5941 866.02 89.8101C866.56 90.0261 867.136 90.1341 867.766 90.1341C868.45 90.1341 869.098 90.0081 869.71 89.7201C870.322 89.4501 870.88 89.0001 871.384 88.3521L870.466 87.6321C870.214 88.0281 869.872 88.3701 869.404 88.6581C868.936 88.9461 868.396 89.0901 867.766 89.0901C867.334 89.0901 866.92 89.0181 866.56 88.8561C866.182 88.6941 865.858 88.4781 865.588 88.1901C865.3 87.9201 865.084 87.5961 864.94 87.2181C864.778 86.8581 864.688 86.4621 864.688 86.0301H871.672C871.672 85.9221 871.69 85.8321 871.69 85.7241V85.4541ZM875.918 89.9181V85.9221H880.724V89.9181H881.948V81.4941H880.724V84.8961H875.918V81.4941H874.694V89.9181H875.918ZM891.917 83.0601V89.9181H893.177V81.4941H891.917L886.751 88.1001V81.4941H885.491V89.9181H886.751L891.917 83.0601ZM900.633 86.3001H902.091V89.9181H903.315V81.4941H900.129C898.977 81.4941 898.113 81.7101 897.519 82.1241C896.925 82.5561 896.637 83.1501 896.637 83.9061C896.637 84.5181 896.835 84.9861 897.231 85.2921C897.627 85.5981 898.131 85.7781 898.743 85.8321V85.8861C898.347 86.0301 898.005 86.2281 897.717 86.4801C897.429 86.7321 897.177 87.0381 896.961 87.3981C896.745 87.7581 896.583 88.1361 896.475 88.5681C896.349 89.0001 896.277 89.4501 896.241 89.9181H897.609C897.699 88.8021 897.987 87.9201 898.491 87.2721C898.977 86.6241 899.697 86.3001 900.633 86.3001ZM897.933 83.9061C897.933 83.6001 897.987 83.3481 898.113 83.1681C898.239 82.9881 898.401 82.8621 898.617 82.7721C898.833 82.6821 899.085 82.6281 899.373 82.5921C899.661 82.5741 899.967 82.5561 900.291 82.5561H902.091V85.2381H900.309C900.003 85.2381 899.715 85.2381 899.427 85.2021C899.139 85.1661 898.869 85.1121 898.653 85.0221C898.437 84.9321 898.257 84.7881 898.131 84.6081C897.987 84.4281 897.933 84.1941 897.933 83.9061ZM907.143 92.4381L908.601 88.2081H907.323L906.117 92.4381H907.143ZM917.596 84.9501V81.4941H916.372V89.9181H917.596V85.9941C918.244 86.0121 918.838 86.0841 919.36 86.2101C919.864 86.3361 920.314 86.5521 920.71 86.8581C921.106 87.1641 921.43 87.5601 921.682 88.0641C921.934 88.5681 922.15 89.1801 922.33 89.9181H923.698C923.374 88.6581 922.924 87.6681 922.384 86.9121C921.826 86.1561 921.052 85.6341 920.062 85.3101L923.338 81.4941H921.97L918.946 85.0581C918.514 84.9861 918.064 84.9501 917.596 84.9501ZM935.031 85.7061C935.031 85.0761 934.905 84.4821 934.689 83.9421C934.473 83.4021 934.167 82.9341 933.771 82.5381C933.375 82.1421 932.889 81.8361 932.349 81.6201C931.791 81.4041 931.179 81.2781 930.531 81.2781C929.883 81.2781 929.271 81.4041 928.731 81.6201C928.173 81.8361 927.705 82.1421 927.309 82.5381C926.913 82.9341 926.589 83.4021 926.373 83.9421C926.157 84.4821 926.049 85.0761 926.049 85.7061C926.049 86.3541 926.157 86.9301 926.373 87.4701C926.589 88.0101 926.913 88.4781 927.309 88.8741C927.705 89.2701 928.173 89.5941 928.731 89.8101C929.271 90.0261 929.883 90.1341 930.531 90.1341C931.179 90.1341 931.791 90.0261 932.349 89.8101C932.889 89.5941 933.375 89.2701 933.771 88.8741C934.167 88.4781 934.473 88.0101 934.689 87.4701C934.905 86.9301 935.031 86.3541 935.031 85.7061ZM933.735 85.7061C933.735 86.1741 933.645 86.6241 933.501 87.0381C933.357 87.4521 933.141 87.8121 932.871 88.1181C932.583 88.4241 932.259 88.6581 931.863 88.8381C931.467 89.0181 931.017 89.0901 930.531 89.0901C930.027 89.0901 929.595 89.0181 929.199 88.8381C928.803 88.6581 928.479 88.4241 928.209 88.1181C927.921 87.8121 927.705 87.4521 927.561 87.0381C927.417 86.6241 927.345 86.1741 927.345 85.7061C927.345 85.2381 927.417 84.8061 927.561 84.3921C927.705 83.9781 927.921 83.6181 928.209 83.3121C928.479 83.0061 928.803 82.7541 929.199 82.5741C929.595 82.3941 930.027 82.3041 930.531 82.3041C931.017 82.3041 931.467 82.3941 931.863 82.5741C932.259 82.7541 932.583 83.0061 932.871 83.3121C933.141 83.6181 933.357 83.9781 933.501 84.3921C933.645 84.8061 933.735 85.2381 933.735 85.7061ZM936.668 81.4941V82.5201H939.656V89.9181H940.88V82.5201H944.066V81.4941H936.668ZM954.673 85.7061C954.673 85.0761 954.547 84.4821 954.331 83.9421C954.115 83.4021 953.809 82.9341 953.413 82.5381C953.017 82.1421 952.531 81.8361 951.991 81.6201C951.433 81.4041 950.821 81.2781 950.173 81.2781C949.525 81.2781 948.913 81.4041 948.373 81.6201C947.815 81.8361 947.347 82.1421 946.951 82.5381C946.555 82.9341 946.231 83.4021 946.015 83.9421C945.799 84.4821 945.691 85.0761 945.691 85.7061C945.691 86.3541 945.799 86.9301 946.015 87.4701C946.231 88.0101 946.555 88.4781 946.951 88.8741C947.347 89.2701 947.815 89.5941 948.373 89.8101C948.913 90.0261 949.525 90.1341 950.173 90.1341C950.821 90.1341 951.433 90.0261 951.991 89.8101C952.531 89.5941 953.017 89.2701 953.413 88.8741C953.809 88.4781 954.115 88.0101 954.331 87.4701C954.547 86.9301 954.673 86.3541 954.673 85.7061ZM953.377 85.7061C953.377 86.1741 953.287 86.6241 953.143 87.0381C952.999 87.4521 952.783 87.8121 952.513 88.1181C952.225 88.4241 951.901 88.6581 951.505 88.8381C951.109 89.0181 950.659 89.0901 950.173 89.0901C949.669 89.0901 949.237 89.0181 948.841 88.8381C948.445 88.6581 948.121 88.4241 947.851 88.1181C947.563 87.8121 947.347 87.4521 947.203 87.0381C947.059 86.6241 946.987 86.1741 946.987 85.7061C946.987 85.2381 947.059 84.8061 947.203 84.3921C947.347 83.9781 947.563 83.6181 947.851 83.3121C948.121 83.0061 948.445 82.7541 948.841 82.5741C949.237 82.3941 949.669 82.3041 950.173 82.3041C950.659 82.3041 951.109 82.3941 951.505 82.5741C951.901 82.7541 952.225 83.0061 952.513 83.3121C952.783 83.6181 952.999 83.9781 953.143 84.3921C953.287 84.8061 953.377 85.2381 953.377 85.7061ZM958.974 94.2381V88.4961H959.028C959.37 89.0361 959.838 89.4321 960.414 89.7201C960.99 90.0081 961.584 90.1341 962.196 90.1341C962.844 90.1341 963.438 90.0261 963.978 89.7921C964.518 89.5761 964.968 89.2521 965.346 88.8561C965.724 88.4601 966.012 87.9921 966.228 87.4521C966.444 86.9121 966.552 86.3361 966.552 85.7061C966.552 85.0941 966.444 84.5001 966.228 83.9601C966.012 83.4201 965.724 82.9521 965.346 82.5561C964.968 82.1601 964.518 81.8541 963.978 81.6201C963.438 81.4041 962.844 81.2781 962.196 81.2781C961.584 81.2781 960.99 81.4221 960.414 81.7101C959.838 81.9981 959.37 82.4121 959.028 82.9521H958.974V81.4941H957.75V94.2381H958.974ZM965.256 85.7061C965.256 86.1741 965.184 86.6241 965.04 87.0381C964.896 87.4521 964.68 87.8121 964.41 88.1181C964.14 88.4241 963.816 88.6581 963.42 88.8381C963.024 89.0181 962.574 89.0901 962.07 89.0901C961.602 89.0901 961.17 89.0181 960.774 88.8381C960.378 88.6581 960.036 88.4241 959.748 88.1181C959.46 87.8301 959.226 87.4701 959.064 87.0561C958.902 86.6421 958.83 86.1921 958.83 85.7061C958.83 85.2381 958.902 84.7881 959.064 84.3741C959.226 83.9601 959.46 83.6001 959.748 83.2941C960.036 82.9881 960.378 82.7541 960.774 82.5741C961.17 82.3941 961.602 82.3041 962.07 82.3041C962.574 82.3041 963.024 82.3941 963.42 82.5741C963.816 82.7541 964.14 83.0061 964.41 83.3121C964.68 83.6181 964.896 83.9781 965.04 84.3921C965.184 84.8061 965.256 85.2381 965.256 85.7061ZM970.771 81.4941H969.547V89.9181H972.571C973.111 89.9181 973.597 89.8461 974.011 89.7021C974.425 89.5581 974.767 89.3601 975.055 89.1081C975.325 88.8561 975.523 88.5681 975.667 88.2261C975.811 87.9021 975.883 87.5421 975.883 87.1461C975.883 86.7681 975.811 86.4081 975.703 86.0661C975.577 85.7421 975.379 85.4541 975.127 85.2021C974.857 84.9501 974.515 84.7701 974.083 84.6261C973.651 84.4821 973.111 84.4101 972.499 84.4101H970.771V81.4941ZM970.771 88.9281V85.3821H972.229C972.553 85.3821 972.877 85.4181 973.165 85.4721C973.453 85.5261 973.687 85.6161 973.903 85.7421C974.119 85.8861 974.281 86.0661 974.407 86.2821C974.515 86.5161 974.587 86.8041 974.587 87.1461C974.587 87.5061 974.515 87.7941 974.407 88.0101C974.299 88.2441 974.137 88.4241 973.939 88.5681C973.741 88.7121 973.507 88.8021 973.219 88.8561C972.931 88.9101 972.607 88.9281 972.283 88.9281H970.771ZM978.205 81.4941H976.981V89.9181H978.205V81.4941ZM988.248 85.0581H982.506C982.524 84.6981 982.614 84.3561 982.776 84.0321C982.92 83.7081 983.136 83.4021 983.406 83.1501C983.658 82.8981 983.964 82.6821 984.324 82.5381C984.666 82.3941 985.044 82.3041 985.458 82.3041C986.322 82.3041 987.006 82.5741 987.474 83.0961C987.942 83.6181 988.212 84.2661 988.248 85.0581ZM989.49 85.4541C989.49 84.8781 989.4 84.3381 989.22 83.8341C989.04 83.3301 988.788 82.8981 988.464 82.5201C988.122 82.1421 987.708 81.8361 987.204 81.6201C986.7 81.4041 986.106 81.2781 985.458 81.2781C984.846 81.2781 984.288 81.4041 983.784 81.6201C983.262 81.8361 982.812 82.1421 982.434 82.5381C982.038 82.9341 981.75 83.4021 981.534 83.9421C981.318 84.4821 981.21 85.0761 981.21 85.7061C981.21 86.3541 981.318 86.9301 981.534 87.4701C981.75 88.0101 982.056 88.4781 982.452 88.8741C982.83 89.2701 983.28 89.5941 983.82 89.8101C984.36 90.0261 984.936 90.1341 985.566 90.1341C986.25 90.1341 986.898 90.0081 987.51 89.7201C988.122 89.4501 988.68 89.0001 989.184 88.3521L988.266 87.6321C988.014 88.0281 987.672 88.3701 987.204 88.6581C986.736 88.9461 986.196 89.0901 985.566 89.0901C985.134 89.0901 984.72 89.0181 984.36 88.8561C983.982 88.6941 983.658 88.4781 983.388 88.1901C983.1 87.9201 982.884 87.5961 982.74 87.2181C982.578 86.8581 982.488 86.4621 982.488 86.0301H989.472C989.472 85.9221 989.49 85.8321 989.49 85.7241V85.4541ZM569.4 117.918C570.498 117.918 571.326 117.72 571.902 117.306C572.46 116.91 572.748 116.352 572.748 115.668C572.748 115.326 572.676 115.038 572.568 114.786C572.442 114.534 572.28 114.336 572.064 114.174C571.848 114.012 571.614 113.886 571.344 113.796C571.056 113.724 570.768 113.67 570.462 113.634C570.714 113.562 570.948 113.49 571.182 113.4C571.398 113.328 571.596 113.22 571.776 113.076C571.956 112.932 572.082 112.77 572.19 112.554C572.28 112.338 572.334 112.086 572.334 111.762C572.334 111.078 572.064 110.538 571.56 110.124C571.038 109.71 570.246 109.494 569.184 109.494H565.548V117.918H569.4ZM566.772 116.928V114.102H569.058C569.778 114.102 570.336 114.192 570.768 114.372C571.2 114.552 571.416 114.93 571.416 115.506C571.416 115.866 571.326 116.136 571.182 116.316C571.02 116.514 570.804 116.658 570.534 116.748C570.246 116.838 569.922 116.892 569.562 116.91C569.184 116.928 568.77 116.928 568.338 116.928H566.772ZM569.112 113.22H566.772V110.484H568.302C568.698 110.484 569.076 110.502 569.418 110.52C569.742 110.556 570.03 110.61 570.282 110.7C570.516 110.79 570.696 110.916 570.84 111.096C570.966 111.276 571.038 111.528 571.038 111.834C571.038 112.392 570.858 112.77 570.516 112.95C570.174 113.13 569.706 113.22 569.112 113.22ZM576.953 109.494H575.729V117.918H578.753C579.293 117.918 579.779 117.846 580.193 117.702C580.607 117.558 580.949 117.36 581.237 117.108C581.507 116.856 581.705 116.568 581.849 116.226C581.993 115.902 582.065 115.542 582.065 115.146C582.065 114.768 581.993 114.408 581.885 114.066C581.759 113.742 581.561 113.454 581.309 113.202C581.039 112.95 580.697 112.77 580.265 112.626C579.833 112.482 579.293 112.41 578.681 112.41H576.953V109.494ZM576.953 116.928V113.382H578.411C578.735 113.382 579.059 113.418 579.347 113.472C579.635 113.526 579.869 113.616 580.085 113.742C580.301 113.886 580.463 114.066 580.589 114.282C580.697 114.516 580.769 114.804 580.769 115.146C580.769 115.506 580.697 115.794 580.589 116.01C580.481 116.244 580.319 116.424 580.121 116.568C579.923 116.712 579.689 116.802 579.401 116.856C579.113 116.91 578.789 116.928 578.465 116.928H576.953ZM584.387 109.494H583.163V117.918H584.387V109.494ZM599.301 111.06V117.918H600.561V109.494H599.301L594.135 116.1V109.494H592.875V117.918H594.135L599.301 111.06ZM610.232 111.42L611.186 110.736C610.826 110.268 610.34 109.908 609.764 109.656C609.188 109.404 608.612 109.278 608.054 109.278C607.37 109.278 606.74 109.404 606.2 109.62C605.642 109.836 605.174 110.142 604.778 110.538C604.382 110.934 604.094 111.402 603.878 111.942C603.662 112.482 603.554 113.076 603.554 113.706C603.554 114.354 603.662 114.93 603.878 115.47C604.094 116.01 604.382 116.478 604.778 116.874C605.174 117.27 605.642 117.594 606.2 117.81C606.74 118.026 607.37 118.134 608.054 118.134C608.774 118.134 609.404 118.008 609.926 117.738C610.448 117.486 610.898 117.126 611.258 116.676L610.34 115.992C610.088 116.316 609.782 116.586 609.422 116.784C609.044 117 608.594 117.09 608.054 117.09C607.55 117.09 607.118 117.018 606.722 116.838C606.326 116.658 605.984 116.424 605.714 116.118C605.426 115.812 605.21 115.452 605.066 115.038C604.922 114.642 604.85 114.192 604.85 113.706C604.85 113.238 604.922 112.788 605.066 112.374C605.21 111.96 605.426 111.6 605.714 111.294C606.002 110.988 606.344 110.754 606.74 110.574C607.136 110.394 607.568 110.304 608.072 110.304C608.522 110.304 608.936 110.412 609.332 110.628C609.728 110.844 610.016 111.096 610.232 111.42ZM614.761 117.918V110.52H619.423V117.918H620.647V109.494H613.537V117.918H614.761ZM632.635 113.706C632.635 113.076 632.509 112.482 632.293 111.942C632.077 111.402 631.771 110.934 631.375 110.538C630.979 110.142 630.493 109.836 629.953 109.62C629.395 109.404 628.783 109.278 628.135 109.278C627.487 109.278 626.875 109.404 626.335 109.62C625.777 109.836 625.309 110.142 624.913 110.538C624.517 110.934 624.193 111.402 623.977 111.942C623.761 112.482 623.653 113.076 623.653 113.706C623.653 114.354 623.761 114.93 623.977 115.47C624.193 116.01 624.517 116.478 624.913 116.874C625.309 117.27 625.777 117.594 626.335 117.81C626.875 118.026 627.487 118.134 628.135 118.134C628.783 118.134 629.395 118.026 629.953 117.81C630.493 117.594 630.979 117.27 631.375 116.874C631.771 116.478 632.077 116.01 632.293 115.47C632.509 114.93 632.635 114.354 632.635 113.706ZM631.339 113.706C631.339 114.174 631.249 114.624 631.105 115.038C630.961 115.452 630.745 115.812 630.475 116.118C630.187 116.424 629.863 116.658 629.467 116.838C629.071 117.018 628.621 117.09 628.135 117.09C627.631 117.09 627.199 117.018 626.803 116.838C626.407 116.658 626.083 116.424 625.813 116.118C625.525 115.812 625.309 115.452 625.165 115.038C625.021 114.624 624.949 114.174 624.949 113.706C624.949 113.238 625.021 112.806 625.165 112.392C625.309 111.978 625.525 111.618 625.813 111.312C626.083 111.006 626.407 110.754 626.803 110.574C627.199 110.394 627.631 110.304 628.135 110.304C628.621 110.304 629.071 110.394 629.467 110.574C629.863 110.754 630.187 111.006 630.475 111.312C630.745 111.618 630.961 111.978 631.105 112.392C631.249 112.806 631.339 113.238 631.339 113.706ZM641.436 117.918H642.678L639.222 109.494H638.142L634.452 117.918H635.73L638.646 110.97L641.436 117.918ZM646.254 109.494H645.03V117.918H648.414C648.954 117.918 649.44 117.846 649.854 117.702C650.268 117.558 650.61 117.36 650.898 117.108C651.186 116.856 651.402 116.568 651.546 116.226C651.69 115.902 651.762 115.542 651.762 115.146C651.762 114.768 651.69 114.408 651.582 114.066C651.456 113.742 651.258 113.454 650.988 113.202C650.718 112.95 650.358 112.77 649.926 112.626C649.494 112.482 648.954 112.41 648.342 112.41H646.254V109.494ZM646.254 116.928V113.382H648.072C648.396 113.382 648.72 113.418 649.008 113.472C649.296 113.526 649.566 113.616 649.782 113.742C649.998 113.886 650.16 114.066 650.286 114.282C650.394 114.516 650.466 114.804 650.466 115.146C650.466 115.506 650.394 115.794 650.286 116.01C650.178 116.244 650.016 116.424 649.8 116.568C649.584 116.712 649.35 116.802 649.062 116.856C648.774 116.91 648.45 116.928 648.126 116.928H646.254ZM654.973 111.438C655.045 111.204 655.189 110.988 655.387 110.79C655.531 110.628 655.747 110.484 656.035 110.34C656.305 110.196 656.665 110.124 657.097 110.124C657.421 110.124 657.691 110.178 657.943 110.268C658.177 110.358 658.375 110.466 658.519 110.61C658.663 110.754 658.789 110.934 658.861 111.114C658.933 111.312 658.969 111.51 658.969 111.708C658.969 112.212 658.771 112.59 658.411 112.842C658.033 113.094 657.583 113.202 657.043 113.202H656.143V114.138H657.223C657.943 114.138 658.465 114.282 658.771 114.57C659.077 114.858 659.239 115.182 659.239 115.578C659.239 116.064 659.041 116.442 658.681 116.73C658.303 117.018 657.799 117.162 657.151 117.162C656.683 117.162 656.287 117.108 655.981 116.964C655.675 116.838 655.441 116.694 655.279 116.514C655.063 116.334 654.901 116.1 654.811 115.848L653.821 116.46C653.947 116.784 654.163 117.072 654.451 117.306C654.685 117.522 655.009 117.702 655.423 117.882C655.837 118.062 656.377 118.134 657.025 118.134C658.069 118.134 658.915 117.9 659.527 117.414C660.139 116.946 660.445 116.316 660.445 115.56C660.445 115.236 660.373 114.948 660.247 114.696C660.103 114.462 659.923 114.264 659.707 114.102C659.491 113.958 659.221 113.832 658.933 113.76C658.627 113.688 658.321 113.652 657.997 113.652V113.598C658.285 113.598 658.573 113.526 658.843 113.418C659.095 113.31 659.329 113.166 659.527 112.986C659.707 112.806 659.869 112.608 659.977 112.356C660.085 112.122 660.139 111.87 660.139 111.582C660.139 111.33 660.067 111.06 659.959 110.772C659.851 110.484 659.671 110.232 659.437 109.998C659.185 109.764 658.879 109.566 658.501 109.422C658.105 109.278 657.655 109.206 657.115 109.206C656.503 109.206 655.999 109.296 655.603 109.476C655.207 109.656 654.883 109.836 654.649 110.034C654.361 110.286 654.163 110.556 654.019 110.862L654.973 111.438ZM666.394 116.604L663.532 109.494H662.164L665.764 117.9L665.08 119.664C664.9 120.15 664.684 120.528 664.45 120.78C664.198 121.032 663.874 121.158 663.46 121.158C663.136 121.158 662.848 121.122 662.56 121.014L662.434 122.13C662.794 122.202 663.154 122.238 663.532 122.238C664.252 122.238 664.81 122.058 665.206 121.662C665.602 121.266 665.926 120.744 666.178 120.096L670.372 109.494H669.04L666.43 116.604H666.394ZM679.154 113.058H673.412C673.43 112.698 673.52 112.356 673.682 112.032C673.826 111.708 674.042 111.402 674.312 111.15C674.564 110.898 674.87 110.682 675.23 110.538C675.572 110.394 675.95 110.304 676.364 110.304C677.228 110.304 677.912 110.574 678.38 111.096C678.848 111.618 679.118 112.266 679.154 113.058ZM680.396 113.454C680.396 112.878 680.306 112.338 680.126 111.834C679.946 111.33 679.694 110.898 679.37 110.52C679.028 110.142 678.614 109.836 678.11 109.62C677.606 109.404 677.012 109.278 676.364 109.278C675.752 109.278 675.194 109.404 674.69 109.62C674.168 109.836 673.718 110.142 673.34 110.538C672.944 110.934 672.656 111.402 672.44 111.942C672.224 112.482 672.116 113.076 672.116 113.706C672.116 114.354 672.224 114.93 672.44 115.47C672.656 116.01 672.962 116.478 673.358 116.874C673.736 117.27 674.186 117.594 674.726 117.81C675.266 118.026 675.842 118.134 676.472 118.134C677.156 118.134 677.804 118.008 678.416 117.72C679.028 117.45 679.586 117 680.09 116.352L679.172 115.632C678.92 116.028 678.578 116.37 678.11 116.658C677.642 116.946 677.102 117.09 676.472 117.09C676.04 117.09 675.626 117.018 675.266 116.856C674.888 116.694 674.564 116.478 674.294 116.19C674.006 115.92 673.79 115.596 673.646 115.218C673.484 114.858 673.394 114.462 673.394 114.03H680.378C680.378 113.922 680.396 113.832 680.396 113.724V113.454ZM682.032 109.494V110.52H685.02V117.918H686.244V110.52H689.43V109.494H682.032ZM698.093 113.058H692.351C692.369 112.698 692.459 112.356 692.621 112.032C692.765 111.708 692.981 111.402 693.251 111.15C693.503 110.898 693.809 110.682 694.169 110.538C694.511 110.394 694.889 110.304 695.303 110.304C696.167 110.304 696.851 110.574 697.319 111.096C697.787 111.618 698.057 112.266 698.093 113.058ZM699.335 113.454C699.335 112.878 699.245 112.338 699.065 111.834C698.885 111.33 698.633 110.898 698.309 110.52C697.967 110.142 697.553 109.836 697.049 109.62C696.545 109.404 695.951 109.278 695.303 109.278C694.691 109.278 694.133 109.404 693.629 109.62C693.107 109.836 692.657 110.142 692.279 110.538C691.883 110.934 691.595 111.402 691.379 111.942C691.163 112.482 691.055 113.076 691.055 113.706C691.055 114.354 691.163 114.93 691.379 115.47C691.595 116.01 691.901 116.478 692.297 116.874C692.675 117.27 693.125 117.594 693.665 117.81C694.205 118.026 694.781 118.134 695.411 118.134C696.095 118.134 696.743 118.008 697.355 117.72C697.967 117.45 698.525 117 699.029 116.352L698.111 115.632C697.859 116.028 697.517 116.37 697.049 116.658C696.581 116.946 696.041 117.09 695.411 117.09C694.979 117.09 694.565 117.018 694.205 116.856C693.827 116.694 693.503 116.478 693.233 116.19C692.945 115.92 692.729 115.596 692.585 115.218C692.423 114.858 692.333 114.462 692.333 114.03H699.317C699.317 113.922 699.335 113.832 699.335 113.724V113.454ZM711.134 117.918C712.232 117.918 713.06 117.72 713.636 117.306C714.194 116.91 714.482 116.352 714.482 115.668C714.482 115.326 714.41 115.038 714.302 114.786C714.176 114.534 714.014 114.336 713.798 114.174C713.582 114.012 713.348 113.886 713.078 113.796C712.79 113.724 712.502 113.67 712.196 113.634C712.448 113.562 712.682 113.49 712.916 113.4C713.132 113.328 713.33 113.22 713.51 113.076C713.69 112.932 713.816 112.77 713.924 112.554C714.014 112.338 714.068 112.086 714.068 111.762C714.068 111.078 713.798 110.538 713.294 110.124C712.772 109.71 711.98 109.494 710.918 109.494H707.282V117.918H711.134ZM708.506 116.928V114.102H710.792C711.512 114.102 712.07 114.192 712.502 114.372C712.934 114.552 713.15 114.93 713.15 115.506C713.15 115.866 713.06 116.136 712.916 116.316C712.754 116.514 712.538 116.658 712.268 116.748C711.98 116.838 711.656 116.892 711.296 116.91C710.918 116.928 710.504 116.928 710.072 116.928H708.506ZM710.846 113.22H708.506V110.484H710.036C710.432 110.484 710.81 110.502 711.152 110.52C711.476 110.556 711.764 110.61 712.016 110.7C712.25 110.79 712.43 110.916 712.574 111.096C712.7 111.276 712.772 111.528 712.772 111.834C712.772 112.392 712.592 112.77 712.25 112.95C711.908 113.13 711.44 113.22 710.846 113.22ZM723.702 122.238V116.496H723.756C724.098 117.036 724.566 117.432 725.142 117.72C725.718 118.008 726.312 118.134 726.924 118.134C727.572 118.134 728.166 118.026 728.706 117.792C729.246 117.576 729.696 117.252 730.074 116.856C730.452 116.46 730.74 115.992 730.956 115.452C731.172 114.912 731.28 114.336 731.28 113.706C731.28 113.094 731.172 112.5 730.956 111.96C730.74 111.42 730.452 110.952 730.074 110.556C729.696 110.16 729.246 109.854 728.706 109.62C728.166 109.404 727.572 109.278 726.924 109.278C726.312 109.278 725.718 109.422 725.142 109.71C724.566 109.998 724.098 110.412 723.756 110.952H723.702V109.494H722.478V122.238H723.702ZM729.984 113.706C729.984 114.174 729.912 114.624 729.768 115.038C729.624 115.452 729.408 115.812 729.138 116.118C728.868 116.424 728.544 116.658 728.148 116.838C727.752 117.018 727.302 117.09 726.798 117.09C726.33 117.09 725.898 117.018 725.502 116.838C725.106 116.658 724.764 116.424 724.476 116.118C724.188 115.83 723.954 115.47 723.792 115.056C723.63 114.642 723.558 114.192 723.558 113.706C723.558 113.238 723.63 112.788 723.792 112.374C723.954 111.96 724.188 111.6 724.476 111.294C724.764 110.988 725.106 110.754 725.502 110.574C725.898 110.394 726.33 110.304 726.798 110.304C727.302 110.304 727.752 110.394 728.148 110.574C728.544 110.754 728.868 111.006 729.138 111.312C729.408 111.618 729.624 111.978 729.768 112.392C729.912 112.806 729.984 113.238 729.984 113.706ZM739.657 112.482V112.752C738.883 112.752 738.145 112.788 737.425 112.842C736.705 112.896 736.075 113.022 735.535 113.202C734.977 113.382 734.527 113.67 734.203 114.048C733.879 114.426 733.717 114.93 733.717 115.578C733.717 116.046 733.807 116.442 733.987 116.766C734.167 117.09 734.401 117.36 734.689 117.558C734.977 117.774 735.283 117.918 735.625 118.008C735.967 118.098 736.309 118.134 736.633 118.134C737.317 118.134 737.893 118.026 738.379 117.774C738.865 117.522 739.297 117.126 739.693 116.55H739.729C739.729 116.784 739.729 117.018 739.765 117.252C739.783 117.504 739.819 117.72 739.855 117.918H740.953C740.899 117.684 740.863 117.396 740.845 117.036C740.809 116.694 740.809 116.352 740.809 116.028V112.338C740.809 111.834 740.719 111.384 740.557 110.988C740.377 110.61 740.143 110.286 739.855 110.034C739.549 109.782 739.207 109.602 738.811 109.476C738.415 109.35 737.983 109.278 737.533 109.278C736.813 109.278 736.165 109.404 735.589 109.62C735.013 109.854 734.563 110.142 734.221 110.484L734.905 111.294C735.193 111.006 735.571 110.754 736.003 110.574C736.435 110.394 736.903 110.304 737.407 110.304C738.127 110.304 738.685 110.484 739.081 110.844C739.459 111.204 739.657 111.762 739.657 112.482ZM739.297 113.706H739.657V114.336C739.657 114.714 739.585 115.074 739.477 115.398C739.351 115.74 739.171 116.046 738.955 116.298C738.721 116.55 738.433 116.766 738.109 116.91C737.767 117.054 737.389 117.126 736.957 117.126C736.705 117.126 736.471 117.108 736.237 117.054C736.003 117 735.787 116.91 735.607 116.784C735.409 116.658 735.247 116.496 735.139 116.28C735.031 116.082 734.977 115.83 734.977 115.524C734.977 115.128 735.103 114.822 735.373 114.57C735.625 114.336 735.967 114.156 736.381 114.03C736.795 113.904 737.263 113.814 737.767 113.778C738.271 113.742 738.793 113.706 739.297 113.706ZM751.264 113.886C751.264 114.318 751.192 114.732 751.066 115.128C750.94 115.524 750.76 115.866 750.508 116.154C750.256 116.442 749.932 116.676 749.572 116.838C749.212 117.018 748.798 117.09 748.33 117.09C747.862 117.09 747.43 117.018 747.052 116.838C746.656 116.676 746.332 116.442 746.062 116.154C745.792 115.866 745.576 115.506 745.432 115.092C745.288 114.678 745.216 114.21 745.216 113.706C745.216 113.202 745.288 112.77 745.468 112.392C745.63 112.014 745.864 111.69 746.152 111.438C746.44 111.186 746.764 111.006 747.142 110.88C747.502 110.754 747.898 110.682 748.312 110.682C748.744 110.682 749.158 110.772 749.518 110.916C749.878 111.078 750.184 111.294 750.436 111.582C750.688 111.87 750.904 112.212 751.048 112.608C751.192 113.004 751.264 113.418 751.264 113.886ZM748.384 109.638C747.664 109.638 747.034 109.8 746.458 110.088C745.882 110.394 745.432 110.79 745.126 111.294C745.216 110.538 745.36 109.854 745.54 109.224C745.72 108.612 746.008 108.072 746.368 107.622C746.728 107.19 747.178 106.848 747.754 106.596C748.33 106.362 749.05 106.236 749.932 106.236H752.398V105.192H749.968C748.078 105.192 746.674 105.732 745.738 106.776C744.802 107.838 744.244 109.422 744.064 111.546C744.028 111.87 744.01 112.176 743.992 112.5C743.974 112.824 743.974 113.166 743.974 113.508C743.974 114.228 744.064 114.858 744.28 115.434C744.478 116.01 744.766 116.496 745.144 116.892C745.504 117.288 745.954 117.594 746.494 117.81C747.034 118.026 747.628 118.134 748.312 118.134C748.888 118.134 749.428 118.044 749.95 117.846C750.454 117.648 750.904 117.36 751.3 117C751.678 116.64 751.984 116.19 752.218 115.65C752.434 115.128 752.56 114.534 752.56 113.886C752.56 113.256 752.452 112.68 752.254 112.158C752.038 111.636 751.75 111.186 751.39 110.808C751.03 110.448 750.58 110.16 750.076 109.944C749.554 109.746 748.996 109.638 748.384 109.638ZM763.994 113.706C763.994 113.076 763.868 112.482 763.652 111.942C763.436 111.402 763.13 110.934 762.734 110.538C762.338 110.142 761.852 109.836 761.312 109.62C760.754 109.404 760.142 109.278 759.494 109.278C758.846 109.278 758.234 109.404 757.694 109.62C757.136 109.836 756.668 110.142 756.272 110.538C755.876 110.934 755.552 111.402 755.336 111.942C755.12 112.482 755.012 113.076 755.012 113.706C755.012 114.354 755.12 114.93 755.336 115.47C755.552 116.01 755.876 116.478 756.272 116.874C756.668 117.27 757.136 117.594 757.694 117.81C758.234 118.026 758.846 118.134 759.494 118.134C760.142 118.134 760.754 118.026 761.312 117.81C761.852 117.594 762.338 117.27 762.734 116.874C763.13 116.478 763.436 116.01 763.652 115.47C763.868 114.93 763.994 114.354 763.994 113.706ZM762.698 113.706C762.698 114.174 762.608 114.624 762.464 115.038C762.32 115.452 762.104 115.812 761.834 116.118C761.546 116.424 761.222 116.658 760.826 116.838C760.43 117.018 759.98 117.09 759.494 117.09C758.99 117.09 758.558 117.018 758.162 116.838C757.766 116.658 757.442 116.424 757.172 116.118C756.884 115.812 756.668 115.452 756.524 115.038C756.38 114.624 756.308 114.174 756.308 113.706C756.308 113.238 756.38 112.806 756.524 112.392C756.668 111.978 756.884 111.618 757.172 111.312C757.442 111.006 757.766 110.754 758.162 110.574C758.558 110.394 758.99 110.304 759.494 110.304C759.98 110.304 760.43 110.394 760.826 110.574C761.222 110.754 761.546 111.006 761.834 111.312C762.104 111.618 762.32 111.978 762.464 112.392C762.608 112.806 762.698 113.238 762.698 113.706ZM765.631 109.494V110.52H768.619V117.918H769.843V110.52H773.029V109.494H765.631ZM781.692 113.058H775.95C775.968 112.698 776.058 112.356 776.22 112.032C776.364 111.708 776.58 111.402 776.85 111.15C777.102 110.898 777.408 110.682 777.768 110.538C778.11 110.394 778.488 110.304 778.902 110.304C779.766 110.304 780.45 110.574 780.918 111.096C781.386 111.618 781.656 112.266 781.692 113.058ZM782.934 113.454C782.934 112.878 782.844 112.338 782.664 111.834C782.484 111.33 782.232 110.898 781.908 110.52C781.566 110.142 781.152 109.836 780.648 109.62C780.144 109.404 779.55 109.278 778.902 109.278C778.29 109.278 777.732 109.404 777.228 109.62C776.706 109.836 776.256 110.142 775.878 110.538C775.482 110.934 775.194 111.402 774.978 111.942C774.762 112.482 774.654 113.076 774.654 113.706C774.654 114.354 774.762 114.93 774.978 115.47C775.194 116.01 775.5 116.478 775.896 116.874C776.274 117.27 776.724 117.594 777.264 117.81C777.804 118.026 778.38 118.134 779.01 118.134C779.694 118.134 780.342 118.008 780.954 117.72C781.566 117.45 782.124 117 782.628 116.352L781.71 115.632C781.458 116.028 781.116 116.37 780.648 116.658C780.18 116.946 779.64 117.09 779.01 117.09C778.578 117.09 778.164 117.018 777.804 116.856C777.426 116.694 777.102 116.478 776.832 116.19C776.544 115.92 776.328 115.596 776.184 115.218C776.022 114.858 775.932 114.462 775.932 114.03H782.916C782.916 113.922 782.934 113.832 782.934 113.724V113.454ZM787.702 117.054C787.702 116.802 787.612 116.586 787.432 116.388C787.252 116.19 787.018 116.082 786.73 116.082C786.442 116.082 786.208 116.19 786.028 116.388C785.848 116.586 785.758 116.802 785.758 117.054C785.758 117.306 785.848 117.54 786.028 117.738C786.208 117.936 786.442 118.026 786.73 118.026C787.018 118.026 787.252 117.936 787.432 117.738C787.612 117.54 787.702 117.306 787.702 117.054Z" fill="#2D3238"/>
<path d="M565.429 210.065C565.429 196.811 576.174 186.065 589.429 186.065H981.429C994.683 186.065 1005.43 196.811 1005.43 210.065C1005.43 223.32 994.683 234.065 981.429 234.065H589.429C576.174 234.065 565.429 223.32 565.429 210.065Z" fill="white"/>
<path d="M565.929 210.065C565.929 197.087 576.45 186.565 589.429 186.565H981.429C994.407 186.565 1004.93 197.087 1004.93 210.065C1004.93 223.044 994.407 233.565 981.429 233.565H589.429C576.45 233.565 565.929 223.044 565.929 210.065Z" stroke="#3898FE" stroke-opacity="0.4"/>
<path opacity="0.6" d="M586.933 203.737H590.309C590.735 203.737 591.167 203.785 591.605 203.881C592.042 203.967 592.431 204.121 592.773 204.345C593.125 204.559 593.407 204.852 593.621 205.225C593.845 205.599 593.957 206.068 593.957 206.633C593.957 207.231 593.775 207.753 593.413 208.201C593.05 208.639 592.565 208.927 591.957 209.065V209.097C592.693 209.183 593.301 209.471 593.781 209.961C594.271 210.441 594.517 211.097 594.517 211.929C594.517 212.399 594.415 212.831 594.213 213.225C594.021 213.609 593.743 213.94 593.381 214.217C593.018 214.484 592.575 214.692 592.053 214.841C591.53 214.991 590.943 215.065 590.293 215.065H586.933V203.737ZM588.085 208.697H590.405C590.682 208.697 590.959 208.665 591.237 208.601C591.525 208.537 591.786 208.431 592.021 208.281C592.255 208.121 592.442 207.913 592.581 207.657C592.73 207.401 592.805 207.087 592.805 206.713C592.805 206.351 592.73 206.047 592.581 205.801C592.442 205.545 592.25 205.337 592.005 205.177C591.759 205.017 591.471 204.905 591.141 204.841C590.81 204.767 590.458 204.729 590.085 204.729H588.085V208.697ZM588.085 214.073H590.229C590.645 214.073 591.039 214.036 591.413 213.961C591.797 213.876 592.127 213.748 592.405 213.577C592.693 213.396 592.922 213.167 593.093 212.889C593.263 212.601 593.349 212.26 593.349 211.865C593.349 211.119 593.093 210.564 592.581 210.201C592.079 209.828 591.365 209.641 590.437 209.641H588.085V214.073ZM601.361 215.065H597.937V207.577H601.169C602.118 207.577 602.822 207.764 603.281 208.137C603.739 208.5 603.969 208.985 603.969 209.593C603.969 209.871 603.926 210.105 603.841 210.297C603.755 210.479 603.633 210.633 603.473 210.761C603.323 210.879 603.147 210.975 602.945 211.049C602.742 211.124 602.529 211.193 602.305 211.257C602.582 211.279 602.843 211.327 603.089 211.401C603.334 211.476 603.547 211.588 603.729 211.737C603.921 211.876 604.07 212.057 604.177 212.281C604.283 212.495 604.337 212.756 604.337 213.065C604.337 213.673 604.086 214.159 603.585 214.521C603.083 214.884 602.342 215.065 601.361 215.065ZM599.025 214.185H600.417C600.811 214.185 601.174 214.18 601.505 214.169C601.835 214.148 602.123 214.1 602.369 214.025C602.614 213.94 602.806 213.812 602.945 213.641C603.083 213.471 603.153 213.231 603.153 212.921C603.153 212.409 602.961 212.073 602.577 211.913C602.203 211.753 601.697 211.673 601.057 211.673H599.025V214.185ZM601.105 210.889C601.638 210.889 602.054 210.809 602.353 210.649C602.662 210.479 602.817 210.148 602.817 209.657C602.817 209.38 602.758 209.161 602.641 209.001C602.523 208.841 602.358 208.724 602.145 208.649C601.931 208.564 601.675 208.511 601.377 208.489C601.078 208.468 600.747 208.457 600.385 208.457H599.025V210.889H601.105ZM613.329 210.745C613.297 210.041 613.067 209.46 612.641 209.001C612.225 208.532 611.627 208.297 610.849 208.297C610.486 208.297 610.15 208.367 609.841 208.505C609.531 208.633 609.259 208.815 609.025 209.049C608.79 209.273 608.603 209.535 608.465 209.833C608.326 210.121 608.246 210.425 608.225 210.745H613.329ZM614.433 211.097C614.433 211.172 614.433 211.252 614.433 211.337C614.433 211.423 614.427 211.513 614.417 211.609H608.209C608.219 211.983 608.294 212.335 608.433 212.665C608.571 212.996 608.763 213.284 609.009 213.529C609.254 213.775 609.542 213.972 609.873 214.121C610.203 214.26 610.561 214.329 610.945 214.329C611.51 214.329 611.995 214.201 612.401 213.945C612.817 213.679 613.131 213.375 613.345 213.033L614.161 213.673C613.713 214.239 613.217 214.644 612.673 214.889C612.139 215.135 611.563 215.257 610.945 215.257C610.39 215.257 609.873 215.161 609.393 214.969C608.923 214.767 608.518 214.489 608.177 214.137C607.835 213.785 607.563 213.369 607.361 212.889C607.169 212.409 607.073 211.887 607.073 211.321C607.073 210.756 607.169 210.233 607.361 209.753C607.553 209.273 607.819 208.857 608.161 208.505C608.502 208.153 608.902 207.881 609.361 207.689C609.819 207.487 610.315 207.385 610.849 207.385C611.435 207.385 611.953 207.487 612.401 207.689C612.849 207.881 613.222 208.148 613.521 208.489C613.819 208.82 614.043 209.209 614.193 209.657C614.353 210.105 614.433 210.585 614.433 211.097ZM617.365 217.289H616.293V214.121H617.493L620.245 207.577H621.205L623.749 214.121H624.997V217.289H623.941V215.065H617.365V217.289ZM618.597 214.121H622.661L620.693 208.889L618.597 214.121ZM633.044 208.969L628.452 215.065H627.332V207.577H628.452V213.449L633.044 207.577H634.164V215.065H633.044V208.969ZM636.654 207.577H643.23V208.489H640.398V215.065H639.31V208.489H636.654V207.577ZM651.497 210.745C651.465 210.041 651.236 209.46 650.809 209.001C650.393 208.532 649.796 208.297 649.017 208.297C648.654 208.297 648.318 208.367 648.009 208.505C647.7 208.633 647.428 208.815 647.193 209.049C646.958 209.273 646.772 209.535 646.633 209.833C646.494 210.121 646.414 210.425 646.393 210.745H651.497ZM652.601 211.097C652.601 211.172 652.601 211.252 652.601 211.337C652.601 211.423 652.596 211.513 652.585 211.609H646.377C646.388 211.983 646.462 212.335 646.601 212.665C646.74 212.996 646.932 213.284 647.177 213.529C647.422 213.775 647.71 213.972 648.041 214.121C648.372 214.26 648.729 214.329 649.113 214.329C649.678 214.329 650.164 214.201 650.569 213.945C650.985 213.679 651.3 213.375 651.513 213.033L652.329 213.673C651.881 214.239 651.385 214.644 650.841 214.889C650.308 215.135 649.732 215.257 649.113 215.257C648.558 215.257 648.041 215.161 647.561 214.969C647.092 214.767 646.686 214.489 646.345 214.137C646.004 213.785 645.732 213.369 645.529 212.889C645.337 212.409 645.241 211.887 645.241 211.321C645.241 210.756 645.337 210.233 645.529 209.753C645.721 209.273 645.988 208.857 646.329 208.505C646.67 208.153 647.07 207.881 647.529 207.689C647.988 207.487 648.484 207.385 649.017 207.385C649.604 207.385 650.121 207.487 650.569 207.689C651.017 207.881 651.39 208.148 651.689 208.489C651.988 208.82 652.212 209.209 652.361 209.657C652.521 210.105 652.601 210.585 652.601 211.097ZM666.573 210.745C666.541 210.041 666.312 209.46 665.885 209.001C665.469 208.532 664.872 208.297 664.093 208.297C663.73 208.297 663.394 208.367 663.085 208.505C662.776 208.633 662.504 208.815 662.269 209.049C662.034 209.273 661.848 209.535 661.709 209.833C661.57 210.121 661.49 210.425 661.469 210.745H666.573ZM667.677 211.097C667.677 211.172 667.677 211.252 667.677 211.337C667.677 211.423 667.672 211.513 667.661 211.609H661.453C661.464 211.983 661.538 212.335 661.677 212.665C661.816 212.996 662.008 213.284 662.253 213.529C662.498 213.775 662.786 213.972 663.117 214.121C663.448 214.26 663.805 214.329 664.189 214.329C664.754 214.329 665.24 214.201 665.645 213.945C666.061 213.679 666.376 213.375 666.589 213.033L667.405 213.673C666.957 214.239 666.461 214.644 665.917 214.889C665.384 215.135 664.808 215.257 664.189 215.257C663.634 215.257 663.117 215.161 662.637 214.969C662.168 214.767 661.762 214.489 661.421 214.137C661.08 213.785 660.808 213.369 660.605 212.889C660.413 212.409 660.317 211.887 660.317 211.321C660.317 210.756 660.413 210.233 660.605 209.753C660.797 209.273 661.064 208.857 661.405 208.505C661.746 208.153 662.146 207.881 662.605 207.689C663.064 207.487 663.56 207.385 664.093 207.385C664.68 207.385 665.197 207.487 665.645 207.689C666.093 207.881 666.466 208.148 666.765 208.489C667.064 208.82 667.288 209.209 667.437 209.657C667.597 210.105 667.677 210.585 667.677 211.097ZM672.049 208.857C672.263 208.42 672.588 208.068 673.025 207.801C673.473 207.524 673.969 207.385 674.513 207.385C674.716 207.385 674.924 207.407 675.137 207.449C675.361 207.492 675.575 207.577 675.777 207.705C675.991 207.823 676.183 207.983 676.353 208.185C676.535 208.388 676.689 208.649 676.817 208.969C677.073 208.457 677.42 208.068 677.857 207.801C678.305 207.524 678.833 207.385 679.441 207.385C680.391 207.385 681.1 207.668 681.569 208.233C682.049 208.799 682.289 209.545 682.289 210.473V215.065H681.201V210.921C681.201 210.132 681.052 209.497 680.753 209.017C680.465 208.537 679.969 208.297 679.265 208.297C678.871 208.297 678.535 208.377 678.257 208.537C677.991 208.697 677.772 208.911 677.601 209.177C677.441 209.433 677.324 209.727 677.249 210.057C677.175 210.388 677.137 210.729 677.137 211.081V215.065H676.049V210.697C676.049 210.335 676.023 210.004 675.969 209.705C675.916 209.407 675.82 209.156 675.681 208.953C675.553 208.74 675.372 208.58 675.137 208.473C674.903 208.356 674.604 208.297 674.241 208.297C673.985 208.297 673.724 208.356 673.457 208.473C673.201 208.591 672.967 208.772 672.753 209.017C672.551 209.252 672.385 209.556 672.257 209.929C672.129 210.292 672.065 210.724 672.065 211.225V215.065H670.977V209.225C670.977 209.023 670.972 208.761 670.961 208.441C670.951 208.121 670.935 207.833 670.913 207.577H671.953C671.975 207.78 671.991 208.004 672.001 208.249C672.012 208.495 672.017 208.697 672.017 208.857H672.049ZM690.782 210.233C690.782 209.583 690.612 209.097 690.27 208.777C689.929 208.457 689.433 208.297 688.782 208.297C688.334 208.297 687.918 208.377 687.534 208.537C687.15 208.697 686.825 208.911 686.558 209.177L685.95 208.457C686.26 208.148 686.665 207.892 687.166 207.689C687.678 207.487 688.254 207.385 688.894 207.385C689.3 207.385 689.678 207.444 690.03 207.561C690.382 207.668 690.692 207.833 690.958 208.057C691.225 208.281 691.433 208.564 691.582 208.905C691.732 209.247 691.806 209.647 691.806 210.105V213.385C691.806 213.673 691.817 213.972 691.838 214.281C691.86 214.591 691.892 214.852 691.934 215.065H690.958C690.926 214.884 690.9 214.687 690.878 214.473C690.857 214.26 690.846 214.052 690.846 213.849H690.814C690.473 214.351 690.084 214.713 689.646 214.937C689.22 215.151 688.702 215.257 688.094 215.257C687.806 215.257 687.508 215.215 687.198 215.129C686.9 215.055 686.622 214.927 686.366 214.745C686.121 214.564 685.913 214.329 685.742 214.041C685.582 213.753 685.502 213.401 685.502 212.985C685.502 212.409 685.646 211.956 685.934 211.625C686.233 211.284 686.628 211.033 687.118 210.873C687.609 210.703 688.169 210.596 688.798 210.553C689.438 210.5 690.1 210.473 690.782 210.473V210.233ZM690.462 211.321C690.014 211.321 689.561 211.343 689.102 211.385C688.654 211.417 688.244 211.492 687.87 211.609C687.508 211.716 687.209 211.876 686.974 212.089C686.74 212.303 686.622 212.585 686.622 212.937C686.622 213.204 686.67 213.428 686.766 213.609C686.873 213.791 687.012 213.94 687.182 214.057C687.353 214.164 687.54 214.244 687.742 214.297C687.956 214.34 688.169 214.361 688.382 214.361C688.766 214.361 689.108 214.297 689.406 214.169C689.705 214.031 689.956 213.849 690.158 213.625C690.361 213.391 690.516 213.124 690.622 212.825C690.729 212.527 690.782 212.212 690.782 211.881V211.321H690.462ZM696.673 215.065H695.585V207.577H696.673V215.065ZM696.897 204.697C696.897 204.921 696.817 205.108 696.657 205.257C696.497 205.396 696.321 205.465 696.129 205.465C695.937 205.465 695.761 205.396 695.601 205.257C695.441 205.108 695.361 204.921 695.361 204.697C695.361 204.473 695.441 204.292 695.601 204.153C695.761 204.004 695.937 203.929 696.129 203.929C696.321 203.929 696.497 204.004 696.657 204.153C696.817 204.292 696.897 204.473 696.897 204.697ZM701.649 215.065H700.561V202.969H701.649V215.065Z" fill="#1792C7"/>
<path d="M844.429 210.065C844.429 196.811 855.174 186.065 868.429 186.065H981.429C994.683 186.065 1005.43 196.811 1005.43 210.065C1005.43 223.32 994.683 234.065 981.429 234.065H868.429C855.174 234.065 844.429 223.32 844.429 210.065Z" fill="url(#paint0_linear_1503_293)"/>
<path d="M899.963 203.737L902.923 210.201L905.787 203.737H907.979L903.899 212.601C903.718 212.996 903.52 213.359 903.307 213.689C903.094 214.02 902.843 214.308 902.555 214.553C902.267 214.788 901.936 214.975 901.563 215.113C901.2 215.252 900.779 215.321 900.299 215.321C899.958 215.321 899.664 215.295 899.419 215.241C899.184 215.199 898.982 215.14 898.811 215.065C898.651 214.991 898.512 214.911 898.395 214.825C898.278 214.74 898.176 214.66 898.091 214.585L899.259 213.113C899.376 213.22 899.531 213.332 899.723 213.449C899.926 213.567 900.166 213.625 900.443 213.625C900.742 213.625 901.003 213.535 901.227 213.353C901.451 213.161 901.664 212.884 901.867 212.521L897.739 203.737H899.963ZM910.012 209.497L908.828 208.649C908.882 208.553 908.972 208.415 909.1 208.233C909.239 208.052 909.431 207.876 909.676 207.705C909.922 207.524 910.236 207.369 910.62 207.241C911.004 207.103 911.468 207.033 912.012 207.033C912.535 207.033 912.994 207.092 913.388 207.209C913.794 207.316 914.13 207.471 914.396 207.673C914.663 207.876 914.86 208.111 914.988 208.377C915.127 208.644 915.196 208.932 915.196 209.241C915.196 209.508 915.148 209.748 915.052 209.961C914.956 210.175 914.834 210.356 914.684 210.505C914.535 210.655 914.359 210.783 914.156 210.889C913.954 210.985 913.751 211.055 913.548 211.097V211.145C913.772 211.167 914.002 211.215 914.236 211.289C914.471 211.364 914.684 211.476 914.876 211.625C915.068 211.775 915.223 211.967 915.34 212.201C915.468 212.425 915.532 212.692 915.532 213.001C915.532 213.396 915.442 213.737 915.26 214.025C915.09 214.313 914.844 214.553 914.524 214.745C914.215 214.937 913.842 215.081 913.404 215.177C912.967 215.273 912.492 215.321 911.98 215.321C911.447 215.321 910.988 215.263 910.604 215.145C910.231 215.028 909.916 214.895 909.66 214.745C909.404 214.585 909.202 214.436 909.052 214.297C908.914 214.159 908.812 214.063 908.748 214.009L909.772 212.905C909.826 212.948 909.906 213.023 910.012 213.129C910.13 213.225 910.279 213.332 910.46 213.449C910.642 213.556 910.855 213.652 911.1 213.737C911.346 213.823 911.623 213.865 911.932 213.865C912.466 213.865 912.882 213.775 913.18 213.593C913.49 213.401 913.644 213.135 913.644 212.793C913.644 212.463 913.479 212.212 913.148 212.041C912.818 211.871 912.38 211.785 911.836 211.785H910.684V210.521H911.756C912.226 210.521 912.615 210.452 912.924 210.313C913.244 210.175 913.404 209.929 913.404 209.577C913.404 209.279 913.271 209.012 913.004 208.777C912.748 208.543 912.348 208.425 911.804 208.425C911.463 208.425 911.175 208.484 910.94 208.601C910.716 208.708 910.535 208.831 910.396 208.969C910.236 209.129 910.108 209.305 910.012 209.497ZM919.663 215.065H917.743V207.321H919.663V210.297H923.071V207.321H924.991V215.065H923.071V211.801H919.663V215.065ZM932.499 210.073C932.499 209.561 932.344 209.183 932.035 208.937C931.726 208.692 931.315 208.569 930.803 208.569C930.398 208.569 930.008 208.649 929.635 208.809C929.272 208.969 928.963 209.172 928.707 209.417L927.715 208.313C928.11 207.94 928.59 207.647 929.155 207.433C929.731 207.209 930.339 207.097 930.979 207.097C931.992 207.097 932.782 207.337 933.347 207.817C933.912 208.297 934.222 209.049 934.275 210.073C934.286 210.223 934.291 210.372 934.291 210.521C934.302 210.671 934.307 210.825 934.307 210.985V213.433C934.307 213.711 934.312 213.993 934.323 214.281C934.334 214.559 934.35 214.82 934.371 215.065H932.611C932.6 214.905 932.59 214.74 932.579 214.569C932.568 214.399 932.563 214.223 932.563 214.041H932.531C932.254 214.447 931.907 214.751 931.491 214.953C931.075 215.156 930.595 215.257 930.051 215.257C929.752 215.257 929.438 215.215 929.107 215.129C928.787 215.044 928.494 214.911 928.227 214.729C927.96 214.537 927.736 214.292 927.555 213.993C927.384 213.684 927.299 213.305 927.299 212.857C927.299 212.281 927.448 211.823 927.747 211.481C928.056 211.14 928.456 210.879 928.947 210.697C929.448 210.516 930.008 210.399 930.627 210.345C931.246 210.292 931.87 210.265 932.499 210.265V210.073ZM932.211 211.465C931.848 211.465 931.48 211.481 931.107 211.513C930.744 211.545 930.414 211.609 930.115 211.705C929.827 211.791 929.587 211.924 929.395 212.105C929.214 212.276 929.123 212.505 929.123 212.793C929.123 213.007 929.166 213.183 929.251 213.321C929.336 213.46 929.443 213.572 929.571 213.657C929.71 213.743 929.864 213.807 930.035 213.849C930.206 213.881 930.376 213.897 930.547 213.897C931.187 213.897 931.678 213.705 932.019 213.321C932.36 212.927 932.531 212.441 932.531 211.865V211.465H932.211ZM936.107 207.321H942.955V208.841H940.443V215.065H938.523V208.841H936.107V207.321ZM946.742 207.321V209.817H948.55C949.126 209.817 949.617 209.887 950.022 210.025C950.427 210.153 950.753 210.335 950.998 210.569C951.254 210.804 951.435 211.081 951.542 211.401C951.659 211.721 951.718 212.063 951.718 212.425C951.718 212.799 951.649 213.145 951.51 213.465C951.382 213.785 951.185 214.063 950.918 214.297C950.662 214.532 950.342 214.719 949.958 214.857C949.574 214.996 949.126 215.065 948.614 215.065H944.822V207.321H946.742ZM946.742 213.673H948.198C948.678 213.673 949.067 213.588 949.366 213.417C949.665 213.236 949.814 212.905 949.814 212.425C949.814 212.191 949.771 211.993 949.686 211.833C949.601 211.673 949.483 211.551 949.334 211.465C949.185 211.369 949.009 211.305 948.806 211.273C948.614 211.231 948.401 211.209 948.166 211.209H946.742V213.673Z" fill="white"/>
<defs>
<linearGradient id="paint0_linear_1503_293" x1="924.929" y1="186.065" x2="924.929" y2="234.065" gradientUnits="userSpaceOnUse">
<stop stop-color="#1792C7"/>
<stop offset="1" stop-color="#00B8F0"/>
</linearGradient>
</defs>
</svg>
