<svg width="411" height="410" viewBox="0 0 411 410" fill="none" xmlns="http://www.w3.org/2000/svg">
<ellipse cx="366.092" cy="83.5249" rx="21.5888" ry="38.3354" transform="rotate(-133.688 366.092 83.5249)" fill="url(#paint0_linear_2_68)"/>
<ellipse cx="297.085" cy="115.421" rx="65" ry="115.421" fill="url(#paint1_linear_2_68)"/>
<mask id="mask0_2_68" style="mask-type:alpha" maskUnits="userSpaceOnUse" x="232" y="0" width="131" height="231">
<ellipse cx="297.085" cy="115.421" rx="65" ry="115.421" fill="url(#paint2_linear_2_68)"/>
</mask>
<g mask="url(#mask0_2_68)">
<path d="M297.5 -7.65845C273 16.5082 233.4 91.7416 271 199.342" stroke="url(#paint3_linear_2_68)"/>
<path d="M298.857 -7.65845C323.357 16.5082 362.957 91.7416 325.357 199.342" stroke="url(#paint4_linear_2_68)"/>
<line x1="298" y1="-7.65845" x2="298" y2="192.206" stroke="url(#paint5_linear_2_68)"/>
</g>
<path d="M256.5 16.3416L257.557 28.5108L268.624 23.3416L258.614 30.3416L268.624 37.3416L257.557 32.1723L256.5 44.3416L255.443 32.1723L244.376 37.3416L254.386 30.3416L244.376 23.3416L255.443 28.5108L256.5 16.3416Z" fill="#3E464F"/>
<path d="M337 97.6155L338.057 109.785L349.124 104.615L339.114 111.615L349.124 118.615L338.057 113.446L337 125.615L335.943 113.446L324.876 118.615L334.886 111.615L324.876 104.615L335.943 109.785L337 97.6155Z" fill="#3E464F"/>
<path d="M383.37 66.74L384.173 75.9795L392.576 72.0547L384.975 77.3695L392.576 82.6843L384.173 78.7595L383.37 87.999L382.568 78.7595L374.165 82.6843L381.765 77.3695L374.165 72.0547L382.568 75.9795L383.37 66.74Z" fill="#3E464F"/>
<path d="M278.25 8.0686L278.835 14.8051L284.962 11.9436L279.42 15.8186L284.962 19.6936L278.835 16.8321L278.25 23.5686L277.665 16.8321L271.538 19.6936L277.08 15.8186L271.538 11.9436L277.665 14.8051L278.25 8.0686Z" fill="#3E464F"/>
<path d="M208.783 263.555C206.957 257.428 211.546 251.271 217.94 251.271H377.182C383.28 251.271 387.817 256.906 386.517 262.863L361.186 378.953C360.228 383.342 356.342 386.471 351.85 386.471H252.542C248.317 386.471 244.593 383.696 243.386 379.646L208.783 263.555Z" fill="url(#paint6_linear_2_68)"/>
<path d="M183.488 180.746C183.488 175.469 187.766 171.191 193.043 171.191H401.127C406.404 171.191 410.681 175.469 410.681 180.746V255.759C410.681 261.036 406.404 265.314 401.127 265.314H193.043C187.766 265.314 183.488 261.036 183.488 255.759V180.746Z" fill="#B2EEFC"/>
<path d="M325.842 216.709C321.657 217.225 315.225 219.137 313.509 223.587C312.781 225.701 312.636 227.971 313.087 230.161C313.539 232.35 314.571 234.378 316.076 236.031C316.58 236.617 317.258 237.026 318.012 237.197C318.766 237.368 319.554 237.292 320.261 236.979L321.168 236.519C321.808 236.201 322.338 235.698 322.689 235.076C323.04 234.454 323.196 233.74 323.137 233.028C323.079 232.316 322.808 231.638 322.36 231.082C321.912 230.525 321.307 230.116 320.624 229.906C319.787 227.926 320.624 226.391 323.247 225.568C325.702 224.829 328.743 224.284 330.738 226.321C332.666 228.466 333.887 231.153 334.234 234.016C334.581 236.879 334.037 239.779 332.677 242.322C327.544 251.627 310.231 253.957 302.391 247.177C299.113 244.387 295.681 249.284 297.676 252.325C299.852 255.631 305.586 257.64 309.296 258.575C314.737 259.97 319.759 258.672 324.977 257.054C335.244 253.887 343.112 245.657 342.596 234.524C342.303 225.917 335.44 215.51 325.842 216.709Z" fill="url(#paint7_linear_2_68)"/>
<path d="M78.039 351.248L86.6465 395.15C86.6465 403.158 91.3199 409.589 96.928 409.547L114.631 409.38C120.211 409.38 124.731 402.809 124.662 394.815L130.381 350.76L78.039 351.248Z" fill="url(#paint8_linear_2_68)"/>
<path d="M199.492 350.132L208.1 394.048C208.1 402.042 212.773 408.487 218.381 408.431L236.084 408.264C241.664 408.264 246.184 401.693 246.115 393.699L251.834 349.658L199.492 350.132Z" fill="url(#paint9_linear_2_68)"/>
<path d="M53.7095 126.77C53.7095 126.77 62.769 156.597 61.0638 178.72C39.0987 197.941 24.7534 223.19 22.014 251.11C19.43 251.283 16.7035 251.216 13.9505 250.762C13.9505 250.762 5.5802 242.908 0 251.376L0.488267 304.486C6.06846 312.856 14.4388 304.849 14.4388 304.849C20.9811 303.649 27.4065 304.635 32.1198 305.884C53.6636 349.649 105.73 380.219 166.276 379.665C245.626 378.94 309.45 325.007 308.85 259.203C308.306 193.398 243.436 140.61 164.1 141.363C143.089 141.562 123.167 145.488 105.241 152.374L105.34 152.328C105.34 152.328 97.1374 126.38 53.7095 126.77Z" fill="url(#paint10_linear_2_68)"/>
<path d="M73.4215 225.359C75.0181 225.346 76.5908 225.746 77.9867 226.521C79.3826 227.296 80.5541 228.419 81.3873 229.781C82.1715 228.347 82.5635 226.731 82.5238 225.097C82.484 223.463 82.0138 221.868 81.1607 220.474C80.3076 219.08 79.1017 217.935 77.6649 217.156C76.228 216.377 74.611 215.99 72.9771 216.036C71.3431 216.081 69.7501 216.557 68.3588 217.415C66.9675 218.273 65.8272 219.483 65.0529 220.922C64.2786 222.362 63.8979 223.98 63.949 225.614C64.0002 227.248 64.4814 228.839 65.3442 230.228C66.1323 228.768 67.2974 227.546 68.718 226.69C70.1386 225.834 71.7629 225.374 73.4215 225.359V225.359Z" fill="#3E464F"/>
<path d="M205.714 170.868C205.021 172.612 203.701 174.034 202.012 174.853C200.323 175.671 198.389 175.827 196.59 175.29C176.426 169.667 155.083 169.866 135.027 175.862C133.236 176.429 131.298 176.306 129.594 175.515C127.89 174.725 126.544 173.326 125.819 171.593V171.593C124.424 168.008 126.74 163.795 131.037 162.512C153.613 155.771 177.635 155.553 200.329 161.884C204.654 163.084 207.025 167.255 205.714 170.868V170.868Z" fill="#B4597D"/>
<path d="M132.711 168.12C154.227 161.688 177.124 161.48 198.753 167.52C200.12 167.866 201.355 168.608 202.303 169.653C203.251 170.697 203.87 171.998 204.082 173.393C204.813 172.689 205.372 171.824 205.714 170.868C207.025 167.255 204.654 163.084 200.329 161.884C177.635 155.553 153.613 155.771 131.037 162.512C126.754 163.795 124.452 168.008 125.819 171.593C126.182 172.545 126.754 173.404 127.494 174.105C127.682 172.706 128.277 171.393 129.205 170.33C130.132 169.266 131.351 168.497 132.711 168.12V168.12Z" fill="#E16E9B"/>
<g style="mix-blend-mode:multiply">
<g style="mix-blend-mode:multiply">
<path d="M89.5621 271.856C93.1473 271.856 93.1055 266.276 89.5621 266.276C86.0186 266.276 86.0326 271.856 89.5621 271.856Z" fill="#DADADA"/>
</g>
</g>
<g style="mix-blend-mode:multiply">
<g style="mix-blend-mode:multiply">
<path d="M68.2599 256.385C71.8592 256.385 71.8034 250.804 68.2599 250.804C64.7165 250.804 64.7305 256.385 68.2599 256.385Z" fill="#DADADA"/>
</g>
</g>
<g style="mix-blend-mode:multiply">
<g style="mix-blend-mode:multiply">
<path d="M85.4748 251.223C89.074 251.223 89.0182 245.643 85.4748 245.643C81.9314 245.643 81.9453 251.223 85.4748 251.223Z" fill="#DADADA"/>
</g>
</g>
<g style="mix-blend-mode:multiply">
<g style="mix-blend-mode:multiply">
<path d="M59.2477 245.615C59.6177 245.615 59.9725 245.468 60.2342 245.206C60.4958 244.945 60.6428 244.59 60.6428 244.22C60.6428 243.85 60.4958 243.495 60.2342 243.233C59.9725 242.972 59.6177 242.825 59.2477 242.825C58.8777 242.825 58.5229 242.972 58.2613 243.233C57.9996 243.495 57.8527 243.85 57.8527 244.22C57.8527 244.59 57.9996 244.945 58.2613 245.206C58.5229 245.468 58.8777 245.615 59.2477 245.615Z" fill="#DADADA"/>
</g>
</g>
<g style="mix-blend-mode:multiply">
<g style="mix-blend-mode:multiply">
<path d="M64.1722 265.899V266.443C64.1722 266.813 64.3192 267.168 64.5808 267.429C64.8425 267.691 65.1973 267.838 65.5673 267.838C65.9373 267.838 66.2921 267.691 66.5537 267.429C66.8154 267.168 66.9623 266.813 66.9623 266.443V265.885C66.9623 265.515 66.8154 265.16 66.5537 264.898C66.2921 264.637 65.9373 264.49 65.5673 264.49C65.1973 264.49 64.8425 264.637 64.5808 264.898C64.3192 265.16 64.1722 265.515 64.1722 265.885V265.899Z" fill="#DADADA"/>
</g>
</g>
<g style="mix-blend-mode:multiply">
<g style="mix-blend-mode:multiply">
<path d="M77.4532 257.417V257.905C77.4532 258.275 77.6002 258.63 77.8618 258.892C78.1235 259.153 78.4783 259.3 78.8483 259.3C79.2183 259.3 79.5731 259.153 79.8347 258.892C80.0964 258.63 80.2433 258.275 80.2433 257.905V257.487C80.2433 257.117 80.0964 256.762 79.8347 256.5C79.5731 256.239 79.2183 256.092 78.8483 256.092C78.4783 256.092 78.1235 256.239 77.8618 256.5C77.6002 256.762 77.4532 257.117 77.4532 257.487V257.905C77.4532 258.275 77.6002 258.63 77.8618 258.892C78.1235 259.153 78.4783 259.3 78.8483 259.3C79.2183 259.3 79.5731 259.153 79.8347 258.892C80.0964 258.63 80.2433 258.275 80.2433 257.905V257.487C80.2433 257.117 80.0964 256.762 79.8347 256.5C79.5731 256.239 79.2183 256.092 78.8483 256.092C78.4783 256.092 78.1235 256.239 77.8618 256.5C77.6002 256.762 77.4532 257.117 77.4532 257.487V257.417Z" fill="#DADADA"/>
</g>
</g>
<g style="mix-blend-mode:multiply">
<g style="mix-blend-mode:multiply">
<path d="M72.6125 245.21C76.2117 245.21 76.1559 239.63 72.6125 239.63C69.0691 239.63 69.083 245.21 72.6125 245.21Z" fill="#DADADA"/>
</g>
</g>
<g style="mix-blend-mode:multiply">
<g style="mix-blend-mode:multiply">
<path d="M78.9181 264.085H78.36C77.6201 264.085 76.9104 264.379 76.3872 264.902C75.8639 265.426 75.5699 266.135 75.5699 266.875C75.5699 267.615 75.8639 268.325 76.3872 268.848C76.9104 269.372 77.6201 269.665 78.36 269.665H78.9181C79.658 269.665 80.3677 269.372 80.891 268.848C81.4142 268.325 81.7082 267.615 81.7082 266.875C81.7082 266.135 81.4142 265.426 80.891 264.902C80.3677 264.379 79.658 264.085 78.9181 264.085Z" fill="#DADADA"/>
</g>
</g>
<g style="mix-blend-mode:multiply">
<g style="mix-blend-mode:multiply">
<path d="M83.703 239.546C87.2883 239.546 87.2464 233.966 83.703 233.966C80.1596 233.966 80.1596 239.546 83.703 239.546Z" fill="#DADADA"/>
</g>
</g>
<g style="mix-blend-mode:multiply">
<g style="mix-blend-mode:multiply">
<path d="M54.407 255.687H54.965C55.335 255.687 55.6899 255.54 55.9515 255.279C56.2131 255.017 56.3601 254.662 56.3601 254.292C56.3601 253.922 56.2131 253.567 55.9515 253.306C55.6899 253.044 55.335 252.897 54.965 252.897H54.407C54.037 252.897 53.6822 253.044 53.4206 253.306C53.1589 253.567 53.012 253.922 53.012 254.292C53.012 254.662 53.1589 255.017 53.4206 255.279C53.6822 255.54 54.037 255.687 54.407 255.687Z" fill="#DADADA"/>
</g>
</g>
<g style="mix-blend-mode:multiply">
<g style="mix-blend-mode:multiply">
<path d="M94.4727 260.877C94.8427 260.877 95.1975 260.73 95.4591 260.468C95.7208 260.206 95.8677 259.851 95.8677 259.481C95.8677 259.111 95.7208 258.757 95.4591 258.495C95.1975 258.233 94.8427 258.086 94.4727 258.086C94.1027 258.086 93.7479 258.233 93.4862 258.495C93.2246 258.757 93.0776 259.111 93.0776 259.481C93.0776 259.851 93.2246 260.206 93.4862 260.468C93.7479 260.73 94.1027 260.877 94.4727 260.877Z" fill="#DADADA"/>
</g>
</g>
<g style="mix-blend-mode:multiply">
<g style="mix-blend-mode:multiply">
<path d="M94.8634 236.98C95.2334 236.98 95.5883 236.833 95.8499 236.571C96.1115 236.309 96.2585 235.954 96.2585 235.585C96.2585 235.215 96.1115 234.86 95.8499 234.598C95.5883 234.336 95.2334 234.189 94.8634 234.189C94.4934 234.189 94.1386 234.336 93.877 234.598C93.6154 234.86 93.4684 235.215 93.4684 235.585C93.4684 235.954 93.6154 236.309 93.877 236.571C94.1386 236.833 94.4934 236.98 94.8634 236.98Z" fill="#DADADA"/>
</g>
</g>
<g style="mix-blend-mode:multiply">
<g style="mix-blend-mode:multiply">
<path d="M103.234 244.652C103.604 244.652 103.958 244.505 104.22 244.244C104.482 243.982 104.629 243.627 104.629 243.257C104.629 242.887 104.482 242.533 104.22 242.271C103.958 242.009 103.604 241.862 103.234 241.862C102.864 241.862 102.509 242.009 102.247 242.271C101.986 242.533 101.839 242.887 101.839 243.257C101.839 243.627 101.986 243.982 102.247 244.244C102.509 244.505 102.864 244.652 103.234 244.652Z" fill="#DADADA"/>
</g>
</g>
<g style="mix-blend-mode:multiply">
<g style="mix-blend-mode:multiply">
<path d="M54.407 268.493C54.777 268.493 55.1318 268.346 55.3935 268.085C55.6551 267.823 55.8021 267.468 55.8021 267.098C55.8021 266.728 55.6551 266.373 55.3935 266.112C55.1318 265.85 54.777 265.703 54.407 265.703C54.037 265.703 53.6822 265.85 53.4206 266.112C53.1589 266.373 53.012 266.728 53.012 267.098C53.012 267.468 53.1589 267.823 53.4206 268.085C53.6822 268.346 54.037 268.493 54.407 268.493Z" fill="#DADADA"/>
</g>
</g>
<g style="mix-blend-mode:multiply">
<g style="mix-blend-mode:multiply">
<path d="M69.5572 276.697C69.9271 276.697 70.282 276.55 70.5436 276.288C70.8052 276.026 70.9522 275.672 70.9522 275.302C70.9522 274.932 70.8052 274.577 70.5436 274.315C70.282 274.054 69.9271 273.907 69.5572 273.907C69.1872 273.907 68.8323 274.054 68.5707 274.315C68.3091 274.577 68.1621 274.932 68.1621 275.302C68.1621 275.672 68.3091 276.026 68.5707 276.288C68.8323 276.55 69.1872 276.697 69.5572 276.697Z" fill="#DADADA"/>
</g>
</g>
<g style="mix-blend-mode:multiply">
<g style="mix-blend-mode:multiply">
<path d="M84.8748 277.436V276.32C84.8748 275.95 84.7278 275.595 84.4662 275.333C84.2046 275.072 83.8498 274.925 83.4798 274.925C83.1098 274.925 82.7549 275.072 82.4933 275.333C82.2317 275.595 82.0847 275.95 82.0847 276.32C82.0847 276.697 82.0847 277.059 82.0847 277.436C82.0847 277.806 82.2317 278.161 82.4933 278.422C82.7549 278.684 83.1098 278.831 83.4798 278.831C83.8498 278.831 84.2046 278.684 84.4662 278.422C84.7278 278.161 84.8748 277.806 84.8748 277.436Z" fill="#DADADA"/>
</g>
</g>
<circle cx="164.355" cy="190.278" r="34.2781" fill="url(#paint11_linear_2_68)"/>
<circle cx="164.355" cy="190.278" r="27.5047" stroke="white" stroke-width="2"/>
<path d="M155.805 205.06V200.629H152.493V196.613H155.805V193.384H152.493V188.249H155.805V175.497H165.246C169.055 175.497 171.829 176.269 173.568 177.815C175.335 179.361 176.218 181.486 176.218 184.192C176.218 185.793 175.859 187.297 175.141 188.705C174.424 190.113 173.223 191.244 171.539 192.1C169.883 192.956 167.619 193.384 164.749 193.384H162.057V196.613H168.434V200.629H162.057V205.06H155.805ZM162.057 188.249H164.128C165.894 188.249 167.288 187.946 168.31 187.338C169.358 186.731 169.883 185.751 169.883 184.399C169.883 181.887 168.227 180.631 164.914 180.631H162.057V188.249Z" fill="white"/>
<path fill-rule="evenodd" clip-rule="evenodd" d="M202.012 174.853C203.701 174.034 205.021 172.612 205.714 170.868C206.473 168.777 205.998 166.499 204.625 164.718C238.755 169.447 262.702 180.514 262.702 193.412C262.702 210.613 220.118 224.556 167.587 224.556C115.057 224.556 72.4728 210.613 72.4728 193.412C72.4728 180.975 94.737 170.241 126.927 165.25C125.478 167.082 124.985 169.45 125.819 171.594C126.544 173.326 127.89 174.726 129.594 175.516C131.298 176.306 133.236 176.429 135.027 175.862C155.083 169.866 176.426 169.667 196.59 175.29C198.389 175.827 200.323 175.671 202.012 174.853Z" fill="url(#paint12_linear_2_68)"/>
<defs>
<linearGradient id="paint0_linear_2_68" x1="365.435" y1="77.2391" x2="366.092" y2="121.86" gradientUnits="userSpaceOnUse">
<stop stop-color="#6FC7A1"/>
<stop offset="1" stop-color="#DBFBDF"/>
</linearGradient>
<linearGradient id="paint1_linear_2_68" x1="297.085" y1="0" x2="297.085" y2="175.342" gradientUnits="userSpaceOnUse">
<stop stop-color="#DBFBDF"/>
<stop offset="1" stop-color="#6FC7A1"/>
</linearGradient>
<linearGradient id="paint2_linear_2_68" x1="297.085" y1="0" x2="297.085" y2="175.342" gradientUnits="userSpaceOnUse">
<stop stop-color="#DBFBDF"/>
<stop offset="1" stop-color="#6FC7A1"/>
</linearGradient>
<linearGradient id="paint3_linear_2_68" x1="276.504" y1="-7.65845" x2="276.504" y2="199.342" gradientUnits="userSpaceOnUse">
<stop stop-color="#A4E4C8"/>
<stop offset="1" stop-color="#4FA77F"/>
</linearGradient>
<linearGradient id="paint4_linear_2_68" x1="319.853" y1="-7.65845" x2="319.853" y2="199.342" gradientUnits="userSpaceOnUse">
<stop stop-color="#A4E4C8"/>
<stop offset="1" stop-color="#4FA77F"/>
</linearGradient>
<linearGradient id="paint5_linear_2_68" x1="297.5" y1="-7.65845" x2="297.5" y2="175.342" gradientUnits="userSpaceOnUse">
<stop stop-color="#A4E4C8"/>
<stop offset="1" stop-color="#4FA77F"/>
</linearGradient>
<linearGradient id="paint6_linear_2_68" x1="297.56" y1="251.271" x2="297.56" y2="386.471" gradientUnits="userSpaceOnUse">
<stop stop-color="#00B8F0"/>
<stop offset="0.0001" stop-color="#00B8F0"/>
<stop offset="0.739583" stop-color="#B2EEFC"/>
</linearGradient>
<linearGradient id="paint7_linear_2_68" x1="306.35" y1="259.167" x2="342.62" y2="237.891" gradientUnits="userSpaceOnUse">
<stop stop-color="#FA9EC2"/>
<stop offset="1" stop-color="#FFDBEB"/>
</linearGradient>
<linearGradient id="paint8_linear_2_68" x1="104.21" y1="350.76" x2="104.21" y2="409.547" gradientUnits="userSpaceOnUse">
<stop stop-color="#FA9EC2"/>
<stop offset="1" stop-color="#FFDBEB"/>
</linearGradient>
<linearGradient id="paint9_linear_2_68" x1="225.663" y1="349.658" x2="225.663" y2="408.431" gradientUnits="userSpaceOnUse">
<stop stop-color="#FA9EC2"/>
<stop offset="1" stop-color="#FFDBEB"/>
</linearGradient>
<linearGradient id="paint10_linear_2_68" x1="154.427" y1="126.766" x2="154.427" y2="379.673" gradientUnits="userSpaceOnUse">
<stop stop-color="#FA9EC2"/>
<stop offset="1" stop-color="#FFDBEB"/>
</linearGradient>
<linearGradient id="paint11_linear_2_68" x1="164.355" y1="156" x2="164.355" y2="224.556" gradientUnits="userSpaceOnUse">
<stop stop-color="#FFD08A"/>
<stop offset="1" stop-color="#F2AA3D"/>
</linearGradient>
<linearGradient id="paint12_linear_2_68" x1="161" y1="139.342" x2="161" y2="380.342" gradientUnits="userSpaceOnUse">
<stop stop-color="#FA9EC2"/>
<stop offset="1" stop-color="#FFDBEB"/>
</linearGradient>
</defs>
</svg>
