<svg width="417" height="427" viewBox="0 0 417 427" fill="none" xmlns="http://www.w3.org/2000/svg">
<path d="M128.209 405.049V349.438H86.6602V299.025H128.209V258.487H86.6602V194.041H128.209V33.9658H246.624C294.405 33.9658 329.202 43.6673 351.016 63.0704C373.175 82.4734 384.255 109.153 384.255 143.108C384.255 163.204 379.754 182.087 370.751 199.758C361.749 217.428 346.687 231.634 325.567 242.375C304.792 253.116 276.401 258.487 240.391 258.487H206.633V299.025H286.615V349.438H206.633V405.049H128.209ZM206.633 194.041H232.601C254.76 194.041 272.246 190.23 285.057 182.607C298.214 174.984 304.792 162.684 304.792 145.707C304.792 114.177 284.018 98.4117 242.469 98.4117H206.633V194.041Z" fill="url(#paint0_linear_1503_314)"/>
<path fill-rule="evenodd" clip-rule="evenodd" d="M339.884 392.252C340.989 392.252 341.884 393.147 341.884 394.252V419.258C341.884 420.362 340.989 421.258 339.884 421.258H310.502L307.807 425.988C307.616 426.323 307.133 426.326 306.94 425.992L304.192 421.258H297.672C296.567 421.258 295.672 420.362 295.672 419.258V394.252C295.672 393.147 296.567 392.252 297.672 392.252H339.884Z" fill="url(#paint1_linear_1503_314)"/>
<line x1="1" y1="-1" x2="21.3528" y2="-1" transform="matrix(0.999448 -0.0332252 0.0291549 0.999575 259.983 409.776)" stroke="#FEF97A" stroke-width="2" stroke-linecap="round" stroke-linejoin="round"/>
<line x1="1" y1="-1" x2="10.2426" y2="-1" transform="matrix(0.997392 -0.0721745 0.0633621 0.997991 269.229 416.721)" stroke="#FEF97A" stroke-width="2" stroke-linecap="round" stroke-linejoin="round"/>
<line x1="1" y1="-1" x2="10.2426" y2="-1" transform="matrix(0.997392 -0.0721745 0.0633621 0.997991 270.569 402.003)" stroke="#FEF97A" stroke-width="2" stroke-linecap="round" stroke-linejoin="round"/>
<path d="M337.007 268.888C336.73 268.384 336.216 268.097 335.601 268.097H328.04C327.137 268.097 326.2 268.721 325.81 269.583L317.791 287.246C317.53 287.822 317.546 288.433 317.83 288.918C318.117 289.407 318.625 289.691 319.226 289.705L325.16 289.784L320.865 301.173C320.759 301.457 320.537 302.052 320.933 302.664C321.106 302.932 321.403 303.097 321.708 303.097H321.777C322.357 303.097 322.706 302.631 322.874 302.406L336.754 283.92C337.347 283.132 337.102 282.426 337.013 282.22C336.92 282.023 336.547 281.378 335.601 281.378H331.184L336.964 270.577C337.267 270.007 337.284 269.39 337.007 268.888Z" fill="#FEF97A"/>
<path fill-rule="evenodd" clip-rule="evenodd" d="M43.0031 88.4795C44.1076 88.4795 45.0031 89.3749 45.0031 90.4795V100.573C45.0031 101.677 44.1076 102.573 43.0031 102.573H28.1427L26.8822 104.573C26.687 104.883 26.2361 104.885 26.0383 104.576L24.7522 102.573H22.1748C21.0702 102.573 20.1748 101.677 20.1748 100.573V90.4795C20.1748 89.3749 21.0702 88.4795 22.1748 88.4795H43.0031Z" fill="url(#paint2_linear_1503_314)"/>
<line x1="0.5" y1="-0.5" x2="11.5084" y2="-0.5" transform="matrix(0.999549 -0.0300286 0.0322586 0.99948 1 96.9946)" stroke="#FEF97A" stroke-linecap="round" stroke-linejoin="round"/>
<line x1="0.5" y1="-0.5" x2="5.53819" y2="-0.5" transform="matrix(0.997865 -0.0653065 0.0700276 0.997545 5.96777 100.368)" stroke="#FEF97A" stroke-linecap="round" stroke-linejoin="round"/>
<line x1="0.5" y1="-0.5" x2="5.53819" y2="-0.5" transform="matrix(0.997868 -0.0652661 0.0700709 0.997542 6.68774 93.2173)" stroke="#FEF97A" stroke-linecap="round" stroke-linejoin="round"/>
<path d="M96.263 1.63394C95.9857 1.17815 95.4721 0.917969 94.8563 0.917969H87.2956C86.393 0.917969 85.4553 1.48288 85.0656 2.26207L77.0472 18.2348C76.7853 18.7558 76.8015 19.3084 77.0862 19.7467C77.3729 20.1889 77.8804 20.4465 78.4822 20.4588L84.4161 20.5304L80.1205 30.8292C80.0148 31.0862 79.7926 31.6245 80.1884 32.1779C80.3614 32.4206 80.6583 32.5691 80.9638 32.5691H81.0331C81.6127 32.5691 81.962 32.1475 82.1296 31.9442L96.0099 15.2271C96.6022 14.515 96.3579 13.8759 96.2684 13.69C96.1755 13.5118 95.8026 12.9282 94.8569 12.9282H90.4401L96.2198 3.16071C96.5228 2.64551 96.5396 2.08775 96.263 1.63394Z" fill="#FEF97A"/>
<g clip-path="url(#clip0_1503_314)">
<path d="M51.6959 169.139C51.5026 168.84 51.1446 168.669 50.7154 168.669H45.4458C44.8168 168.669 44.1632 169.04 43.8916 169.552L38.303 180.049C38.1205 180.391 38.1318 180.754 38.3302 181.042C38.5301 181.333 38.8838 181.502 39.3032 181.51L43.439 181.557L40.445 188.325C40.3714 188.494 40.2165 188.848 40.4924 189.211C40.6129 189.371 40.8198 189.468 41.0328 189.468H41.0811C41.485 189.468 41.7285 189.191 41.8453 189.058L51.5195 178.072C51.9323 177.604 51.762 177.184 51.6996 177.062C51.6349 176.945 51.375 176.561 50.7158 176.561H47.6375L51.6658 170.143C51.877 169.804 51.8887 169.438 51.6959 169.139Z" fill="#FEF97A"/>
</g>
<path fill-rule="evenodd" clip-rule="evenodd" d="M384.134 340.918C381.925 340.918 380.134 342.709 380.134 344.918V357.819C380.134 360.028 381.925 361.819 384.134 361.819H405.14L406.793 364.442C407.183 365.062 408.085 365.065 408.48 364.449L410.168 361.819H412.958C415.167 361.819 416.958 360.028 416.958 357.819V344.918C416.958 342.709 415.167 340.918 412.958 340.918H384.134Z" fill="url(#paint3_linear_1503_314)"/>
<line x1="0.5" y1="-0.5" x2="23.5016" y2="-0.5" transform="matrix(0.999548 -0.0300476 0.0322383 0.99948 346.127 353.615)" stroke="#FEF97A" stroke-linecap="round" stroke-linejoin="round"/>
<line x1="0.5" y1="-0.5" x2="11.5674" y2="-0.5" transform="matrix(0.997865 -0.0653071 0.070027 0.997545 356.056 360.359)" stroke="#FEF97A" stroke-linecap="round" stroke-linejoin="round"/>
<line x1="0.5" y1="-0.5" x2="11.5674" y2="-0.5" transform="matrix(0.997865 -0.0653071 0.070027 0.997545 357.495 346.066)" stroke="#FEF97A" stroke-linecap="round" stroke-linejoin="round"/>
<defs>
<linearGradient id="paint0_linear_1503_314" x1="235.457" y1="33.9658" x2="235.457" y2="405.049" gradientUnits="userSpaceOnUse">
<stop stop-color="#00B8F0"/>
<stop offset="0.0001" stop-color="#00B8F0"/>
<stop offset="0.739583" stop-color="#B2EEFC"/>
</linearGradient>
<linearGradient id="paint1_linear_1503_314" x1="318.778" y1="392.252" x2="318.778" y2="426.241" gradientUnits="userSpaceOnUse">
<stop stop-color="#00B8F0"/>
<stop offset="0.0001" stop-color="#00B8F0"/>
<stop offset="0.739583" stop-color="#B2EEFC"/>
</linearGradient>
<linearGradient id="paint2_linear_1503_314" x1="32.5889" y1="88.4795" x2="32.5889" y2="104.806" gradientUnits="userSpaceOnUse">
<stop stop-color="#00B8F0"/>
<stop offset="0.0001" stop-color="#00B8F0"/>
<stop offset="0.739583" stop-color="#B2EEFC"/>
</linearGradient>
<linearGradient id="paint3_linear_1503_314" x1="398.546" y1="340.918" x2="398.546" y2="364.909" gradientUnits="userSpaceOnUse">
<stop stop-color="#6FC7A1"/>
<stop offset="1" stop-color="#DBFBDF"/>
</linearGradient>
<clipPath id="clip0_1503_314">
<rect width="23" height="20.7993" fill="white" transform="translate(33.5031 168.669)"/>
</clipPath>
</defs>
</svg>
